{
.formatVersion = 3;
date = "2011-11-24 21:48:24 +0000";
familyName = DrSugiyama;
fontMaster = (
{
customParameters = (
{
name = typoAscender;
value = 1009;
},
{
name = typoDescender;
value = -450;
},
{
name = typoLineGap;
value = 0;
},
{
name = winAscent;
value = 1009;
},
{
name = winDescent;
value = 450;
},
{
name = hheaAscender;
value = 1009;
},
{
name = hheaDescender;
value = -450;
},
{
name = hheaLineGap;
value = 0;
}
);
id = "746fec36-5ae7-46fb-b5cd-17efca425fb8";
metricValues = (
{
},
{
pos = -50;
},
{
pos = 50;
},
{
pos = 800;
},
{
pos = -200;
},
{
pos = 700;
},
{
pos = 650;
},
{
},
{
pos = 140;
},
{
pos = 700;
},
{
pos = 650;
},
{
},
{
pos = 477;
},
{
pos = 50;
},
{
pos = 250;
}
);
name = Regular;
visible = 1;
}
);
glyphs = (
{
category = Letter;
glyphname = exclam;
layers = (
{
layerId = "746fec36-5ae7-46fb-b5cd-17efca425fb8";
name = Fore;
shapes = (
{
closed = 1;
nodes = (
(64,54,o),
(64,24.5,q),
(64,-5,o),
(83,-25.5,q),
(102,-46,o),
(129,-46,q),
(156,-46,o),
(174.5,-25.5,q),
(193,-5,o),
(193,24.5,q),
(193,54,o),
(174.5,74.5,q),
(156,95,o),
(129,95,q),
(102,95,o),
(83,74.5,q)
);
},
{
closed = 1;
nodes = (
(203,590,o),
(203,560.5,q),
(203,531,o),
(190,484,q),
(151,345,o),
(151,164,q),
(151,147,o),
(133,147,q),
(125,147,o),
(119,152,q),
(113,157,o),
(113,164,q),
(113,345,o),
(74,484,q),
(61,531,o),
(61,558.5,q),
(61,586,o),
(82.5,602,q),
(104,618,o),
(131,618,q),
(158,618,o),
(180.5,604,q)
);
}
);
width = 243;
}
);
unicode = 33;
},
{
category = Letter;
glyphname = quotedbl;
layers = (
{
layerId = "746fec36-5ae7-46fb-b5cd-17efca425fb8";
name = Fore;
shapes = (
{
closed = 1;
nodes = (
(229,554,o),
(229,528.5,q),
(229,503,o),
(224,468,q),
(214,409,o),
(208,395,q),
(194,367,o),
(181,367,q),
(170,367,o),
(162,390,q),
(148,465,o),
(148,533,q),
(148,601,o),
(186,601,q),
(205,601,o),
(215,589.5,q),
(225,578,o),
(227,566,q)
);
},
{
closed = 1;
nodes = (
(125,554,o),
(125,528.5,q),
(125,503,o),
(120,468,q),
(110,409,o),
(104,395,q),
(90,367,o),
(77,367,q),
(66,367,o),
(58,390,q),
(44,465,o),
(44,533,q),
(44,601,o),
(82,601,q),
(101,601,o),
(111,589.5,q),
(121,578,o),
(123,566,q)
);
}
);
width = 294;
}
);
unicode = 34;
},
{
category = Letter;
glyphname = numbersign;
layers = (
{
layerId = "746fec36-5ae7-46fb-b5cd-17efca425fb8";
name = Fore;
shapes = (
{
closed = 1;
nodes = (
(139,124,l),
(155,126,o),
(165,126,q),
(167,141,o),
(169,155,q),
(143,154,l)
);
},
{
closed = 1;
nodes = (
(50,145,l),
(30,145,o),
(30,170.5,q),
(30,196,o),
(40,196,q),
(57,196,o),
(101,198,q),
(113,263,o),
(116,271,q),
(123,289,o),
(146.5,289,q),
(170,289,o),
(170,269,q),
(170,266,o),
(166,250,q),
(157,226,o),
(153,202,q),
(169,204,o),
(176,204,q),
(189,265,o),
(191,272,q),
(198,289,o),
(221.5,289,q),
(245,289,o),
(245,269,q),
(245,266,o),
(239,245.5,q),
(233,225,o),
(229,208,q),
(267,212,o),
(273,212,q),
(306,212,o),
(306,195,q),
(306,185,o),
(295.5,173,q),
(285,161,o),
(278,159,q),
(238,159,o),
(218,157,q),
(216,139,o),
(214,130,q),
(264,135,l),
(296,135,o),
(296,113,q),
(296,103,o),
(289.5,93,q),
(283,83,o),
(277,83,q),
(229,80,o),
(207,80,q),
(198,30,o),
(186,-4,q),
(174,-32,o),
(148,-32,q),
(134,-32,o),
(134,-15,q),
(134,-8,o),
(142,19.5,q),
(150,47,o),
(156,78,q),
(131,76,l),
(124,33,o),
(111,-4,q),
(101,-32,o),
(73,-32,q),
(59,-32,o),
(59,-15,q),
(59,-8,o),
(61.5,1,q),
(64,10,o),
(79,71,q),
(68,70,o),
(50,68,q),
(30,68,o),
(30,94,q),
(30,120,o),
(40,120,q),
(72,120,o),
(89,122,q),
(91,132,o),
(93,150,q)
);
}
);
width = 286;
}
);
unicode = 35;
},
{
category = Letter;
glyphname = dollar;
layers = (
{
layerId = "746fec36-5ae7-46fb-b5cd-17efca425fb8";
name = Fore;
shapes = (
{
closed = 1;
nodes = (
(295,240,o),
(273,222.5,q),
(251,205,o),
(233,205,q),
(215,205,o),
(215,222,q),
(215,232,o),
(221,242,q),
(217,246,o),
(202.5,246,q),
(188,246,o),
(168.5,233,q),
(149,220,o),
(148,198,q),
(157,181,o),
(187.5,163.5,q),
(218,146,o),
(231,137,q),
(266,113,o),
(266,78.5,q),
(266,44,o),
(231,16,q),
(196,-12,o),
(150,-27,q),
(150,-60,l),
(150,-90,o),
(123,-90,q),
(119,-90,o),
(117,-81,q),
(117,-35,l),
(104,-38,o),
(94,-38,q),
(12,-38,o),
(12,17,q),
(12,33,o),
(28.5,48,q),
(45,63,o),
(60,65,q),
(64,65,o),
(74,56,q),
(101,32,o),
(165,32,q),
(177,32,o),
(183,39,q),
(189,46,o),
(189,56.5,q),
(189,67,o),
(170.5,79.5,q),
(152,92,o),
(129.5,101.5,q),
(107,111,o),
(88.5,129,q),
(70,147,o),
(70,171.5,q),
(70,196,o),
(95.5,224.5,q),
(121,253,o),
(158,274,q),
(158,325,l),
(158,355,o),
(185,355,q),
(189,355,o),
(191,346,q),
(191,291,l),
(222,304,o),
(244,304,q),
(295,304,o),
(295,262,q)
);
}
);
width = 281;
}
);
unicode = 36;
},
{
category = Letter;
glyphname = percent;
layers = (
{
layerId = "746fec36-5ae7-46fb-b5cd-17efca425fb8";
name = Fore;
shapes = (
{
closed = 1;
nodes = (
(286,342,o),
(292,352.5,q),
(298,363,o),
(306,363,q),
(314,363,o),
(326,360.5,q),
(338,358,o),
(338,355,q),
(338,346,o),
(331.5,334,q),
(325,322,o),
(304,272,q),
(283,222,o),
(260.5,168,q),
(238,114,o),
(207.5,38.5,q),
(177,-37,o),
(174,-44,q),
(161,-67,o),
(138,-67,q),
(133,-67,o),
(124.5,-64,q),
(116,-61,o),
(116,-56,q),
(116,-55,o),
(122.5,-40.5,q),
(129,-26,o),
(171,73,q),
(213,172,l),
(219,190,o),
(252.5,266,q)
);
},
{
closed = 1;
nodes = (
(298,110,o),
(332,110,q),
(351,110,o),
(362.5,98,q),
(374,86,o),
(374,70.5,q),
(374,55,o),
(363.5,43.5,q),
(353,32,o),
(335,32,q),
(317,32,o),
(307.5,44.5,q),
(298,57,o),
(298,73,q)
);
},
{
closed = 1;
nodes = (
(381,153,o),
(344.5,153,q),
(308,153,o),
(281,118,q),
(254,83,o),
(254,50,q),
(254,-15,o),
(309,-15,q),
(353,-15,o),
(384,19.5,q),
(415,54,o),
(415,87,q),
(415,120,o),
(398,136.5,q)
);
},
{
closed = 1;
nodes = (
(82,240,o),
(116,240,q),
(135,240,o),
(146.5,228,q),
(158,216,o),
(158,200.5,q),
(158,185,o),
(147.5,173.5,q),
(137,162,o),
(119,162,q),
(101,162,o),
(91.5,174.5,q),
(82,187,o),
(82,203,q)
);
},
{
closed = 1;
nodes = (
(165,283,o),
(128.5,283,q),
(92,283,o),
(65,248,q),
(38,213,o),
(38,180,q),
(38,115,o),
(93,115,q),
(137,115,o),
(168,149.5,q),
(199,184,o),
(199,217,q),
(199,250,o),
(182,266.5,q)
);
}
);
width = 395;
}
);
unicode = 37;
},
{
category = Letter;
glyphname = ampersand;
layers = (
{
layerId = "746fec36-5ae7-46fb-b5cd-17efca425fb8";
name = Fore;
shapes = (
{
closed = 1;
nodes = (
(232,406,l),
(232,412,o),
(202,412,q),
(172,412,o),
(118,381.5,q),
(64,351,o),
(62,329,q),
(67,313,o),
(113.5,285,q),
(160,257,o),
(160,234,q),
(160,211,o),
(146,193,q),
(132,175,o),
(115.5,164,q),
(99,153,o),
(85,135.5,q),
(71,118,o),
(71,99.5,q),
(71,81,o),
(86,68.5,q),
(101,56,o),
(119,56,q),
(183,56,o),
(239,119,q),
(242,200,o),
(272,251,q),
(302,302,o),
(333,302,q),
(369,302,o),
(369,241,q),
(369,180,o),
(292,103,q),
(295,31,o),
(322,12,q),
(334,3,o),
(350.5,3,q),
(367,3,o),
(385,17,q),
(391,24,o),
(399,24,q),
(412,24,o),
(412,7,q),
(412,-22,o),
(375.5,-50.5,q),
(339,-79,o),
(306,-79,q),
(235,-79,o),
(235,23,q),
(235,39,o),
(236,46,q),
(197,10,o),
(147,-15.5,q),
(97,-41,o),
(58.5,-41,q),
(20,-41,o),
(-3,-21.5,q),
(-26,-2,o),
(-26,26.5,q),
(-26,55,o),
(-12.5,80,q),
(1,105,o),
(12,117.5,q),
(23,130,o),
(47.5,155,q),
(72,180,o),
(72,188,q),
(72,196,o),
(57,205.5,q),
(42,215,o),
(24.5,222.5,q),
(7,230,o),
(-8,244.5,q),
(-23,259,o),
(-23,278,q),
(-23,326,o),
(41.5,377.5,q),
(106,429,o),
(177,458,q),
(248,487,o),
(276.5,487,q),
(305,487,o),
(319,474,q),
(333,461,o),
(333,439,q),
(333,417,o),
(303.5,396,q),
(274,375,o),
(255,375,q),
(236,375,o),
(232.5,377,q),
(229,379,o),
(229,389,q)
);
}
);
width = 348;
}
);
unicode = 38;
},
{
category = Letter;
glyphname = quotesingle;
layers = (
{
layerId = "746fec36-5ae7-46fb-b5cd-17efca425fb8";
name = Fore;
shapes = (
{
closed = 1;
nodes = (
(125,554,o),
(125,528.5,q),
(125,503,o),
(120,468,q),
(110,409,o),
(104,395,q),
(90,367,o),
(77,367,q),
(66,367,o),
(58,390,q),
(44,465,o),
(44,533,q),
(44,601,o),
(82,601,q),
(101,601,o),
(111,589.5,q),
(121,578,o),
(123,566,q)
);
}
);
width = 190;
}
);
unicode = 39;
},
{
category = Letter;
glyphname = parenleft;
layers = (
{
layerId = "746fec36-5ae7-46fb-b5cd-17efca425fb8";
name = Fore;
shapes = (
{
closed = 1;
nodes = (
(348,800,o),
(268,704,q),
(188,608,o),
(144,470.5,q),
(100,333,o),
(100,201.5,q),
(100,70,o),
(149.5,-12,q),
(199,-94,o),
(299,-94,q),
(320,-94,o),
(350,-89,q),
(360,-89,o),
(366.5,-96.5,q),
(373,-104,o),
(373,-115,q),
(373,-137,o),
(347,-155.5,q),
(321,-174,o),
(268,-174,q),
(155,-174,o),
(98,-79,q),
(41,16,o),
(41,166,q),
(41,280,o),
(74,401,q),
(107,522,o),
(164,624,q),
(221,726,o),
(308.5,791.5,q),
(396,857,o),
(495,857,q),
(520,857,o),
(533,842.5,q),
(546,828,o),
(546,808.5,q),
(546,789,o),
(536,775,q),
(526,761,o),
(514,761,q),
(502,761,o),
(496.5,767,q),
(491,773,o),
(487,780,q),
(483,787,o),
(470.5,793.5,q),
(458,800,o),
(439,800,q)
);
}
);
width = 329;
}
);
unicode = 40;
},
{
category = Letter;
glyphname = parenright;
layers = (
{
layerId = "746fec36-5ae7-46fb-b5cd-17efca425fb8";
name = Fore;
shapes = (
{
closed = 1;
nodes = (
(66,803,o),
(41,774,q),
(33,764,o),
(24,764,q),
(0,764,o),
(0,791,q),
(0,818,o),
(17.5,839,q),
(35,860,o),
(65,860,q),
(140,860,o),
(199,822.5,q),
(258,785,o),
(294,720,q),
(365,589,o),
(365,403,q),
(365,261,o),
(325.5,132,q),
(286,3,o),
(204.5,-84,q),
(123,-171,o),
(18,-171,q),
(-27,-171,o),
(-48,-156.5,q),
(-69,-142,o),
(-69,-125,q),
(-69,-108,o),
(-60,-97,q),
(-51,-86,o),
(-38,-86,q),
(-10,-91,o),
(11,-91,q),
(106,-91,o),
(177,-12,q),
(248,67,o),
(281,181.5,q),
(314,296,o),
(314,411,q),
(314,526,o),
(291.5,610,q),
(269,694,o),
(220.5,748.5,q),
(172,803,o),
(105,803,q)
);
}
);
width = 329;
}
);
unicode = 41;
},
{
category = Letter;
glyphname = asterisk;
layers = (
{
layerId = "746fec36-5ae7-46fb-b5cd-17efca425fb8";
name = Fore;
shapes = (
{
closed = 1;
nodes = (
(180,404,o),
(180,374,q),
(180,344,o),
(168,293,q),
(176,302,o),
(207,322.5,q),
(238,343,o),
(252.5,343,q),
(267,343,o),
(273.5,337,q),
(280,331,o),
(280,325,q),
(280,297,o),
(177,278,q),
(246,224,o),
(246,200,q),
(246,184,o),
(228,184,q),
(215,184,o),
(198,204,q),
(175,232,o),
(159,269,q),
(121,183,o),
(90,183,q),
(73,183,o),
(73,200,q),
(73,225,o),
(141,276,q),
(60,293,o),
(45,308,q),
(38,314,o),
(38,322,q),
(38,330,o),
(44.5,335.5,q),
(51,341,o),
(59,341,q),
(88,341,o),
(148,293,q),
(137,344,o),
(137,363,q),
(137,404,o),
(163,404,q)
);
}
);
width = 317;
}
);
unicode = 42;
},
{
category = Letter;
glyphname = plus;
layers = (
{
layerId = "746fec36-5ae7-46fb-b5cd-17efca425fb8";
name = Fore;
shapes = (
{
closed = 1;
nodes = (
(272,99,o),
(221,99,q),
(179,99,l),
(181,52,o),
(185,9,q),
(185,2,o),
(173,-3,q),
(161,-8,o),
(150,-8,q),
(128,-8,o),
(128,35,q),
(128,39,o),
(130,97,q),
(100,96,o),
(41,92,q),
(34,92,o),
(29,104.5,q),
(24,117,o),
(24,127,q),
(24,149,o),
(67,149,q),
(75,145,o),
(130,145,q),
(128,210,o),
(128,213,q),
(128,256,o),
(150,256,q),
(172,256,o),
(178.5,248.5,q),
(185,241,o),
(185,239,q),
(181,192,o),
(179,145,q),
(242,145,l),
(258,145,o),
(265,138.5,q),
(272,132,o),
(272,113,q)
);
}
);
width = 292;
}
);
unicode = 43;
},
{
category = Letter;
glyphname = comma;
layers = (
{
layerId = "746fec36-5ae7-46fb-b5cd-17efca425fb8";
name = Fore;
shapes = (
{
closed = 1;
nodes = (
(158,-48,o),
(97,-118,q),
(91,-125,o),
(85.5,-125,q),
(80,-125,o),
(76,-116,q),
(76,-113,o),
(91,-88,q),
(106,-63,o),
(106,-42.5,q),
(106,-22,o),
(96.5,-15,q),
(87,-8,o),
(75,-7,q),
(63,-6,o),
(53.5,3.5,q),
(44,13,o),
(44,35.5,q),
(44,58,o),
(61.5,78,q),
(79,98,o),
(112,98,q),
(153,98,o),
(158,48,q)
);
}
);
width = 223;
}
);
unicode = 44;
},
{
category = Letter;
glyphname = hyphen;
layers = (
{
layerId = "746fec36-5ae7-46fb-b5cd-17efca425fb8";
name = Fore;
shapes = (
{
closed = 1;
nodes = (
(123,164,o),
(152.5,164,q),
(182,164,o),
(215.5,150.5,q),
(249,137,o),
(267.5,137,q),
(286,137,o),
(296,139,q),
(308,139,o),
(309,131,q),
(309,115,o),
(274.5,97,q),
(240,79,o),
(210,79,q),
(180,79,o),
(147.5,92,q),
(115,105,o),
(95.5,105,q),
(76,105,o),
(67,103,q),
(55,103,o),
(54,111,q),
(54,127,o),
(88.5,145.5,q)
);
}
);
width = 329;
}
);
unicode = 45;
},
{
category = Letter;
glyphname = period;
layers = (
{
layerId = "746fec36-5ae7-46fb-b5cd-17efca425fb8";
name = Fore;
shapes = (
{
closed = 1;
nodes = (
(57,62,o),
(72.5,79,q),
(88,96,o),
(111,96,q),
(134,96,o),
(149.5,79,q),
(165,62,o),
(165,37,q),
(165,12,o),
(149.5,-5,q),
(134,-22,o),
(111,-22,q),
(88,-22,o),
(72.5,-5,q),
(57,12,o),
(57,37,q)
);
}
);
width = 212;
}
);
unicode = 46;
},
{
category = Letter;
glyphname = slash;
layers = (
{
layerId = "746fec36-5ae7-46fb-b5cd-17efca425fb8";
name = Fore;
shapes = (
{
closed = 1;
nodes = (
(329,731,o),
(337,731,q),
(345,731,o),
(357,728.5,q),
(369,726,o),
(369,723,q),
(369,714,o),
(345,665.5,q),
(321,617,o),
(189,292,q),
(57,-33,o),
(52,-44,q),
(39,-67,o),
(16,-67,q),
(11,-67,o),
(2.5,-64,q),
(-6,-61,o),
(-6,-56,q),
(-6,-55,o),
(-4,-49,q),
(38,38,o),
(157,329,q),
(276,620,o),
(322,718,q)
);
}
);
width = 233;
}
);
unicode = 47;
},
{
category = Letter;
glyphname = zero;
layers = (
{
layerId = "746fec36-5ae7-46fb-b5cd-17efca425fb8";
name = Fore;
shapes = (
{
closed = 1;
nodes = (
(194,204,o),
(157.5,204,q),
(121,204,o),
(103.5,182,q),
(86,160,o),
(86,127.5,q),
(86,95,o),
(106,70.5,q),
(126,46,o),
(162,46,q),
(198,46,o),
(219,69,q),
(240,92,o),
(240,124,q),
(240,156,o),
(217,180,q)
);
},
{
closed = 1;
nodes = (
(110,280,o),
(179.5,280,q),
(249,280,o),
(281,248,q),
(313,216,o),
(313,166,q),
(313,92,o),
(254.5,25.5,q),
(196,-41,o),
(112,-41,q),
(59,-41,o),
(33,-10,q),
(7,21,o),
(7,70,q),
(7,145,o),
(58.5,212.5,q)
);
}
);
width = 304;
}
);
unicode = 48;
},
{
category = Letter;
glyphname = one;
layers = (
{
layerId = "746fec36-5ae7-46fb-b5cd-17efca425fb8";
name = Fore;
shapes = (
{
closed = 1;
nodes = (
(79,155,l),
(79,180,o),
(69.5,195.5,q),
(60,211,o),
(48,215,q),
(18,226,o),
(18,240,q),
(18,252,o),
(75.5,268.5,q),
(133,285,o),
(144,285,q),
(178,285,o),
(178,253,q),
(178,243,o),
(170.5,194.5,q),
(163,146,o),
(163,103,q),
(163,60,o),
(174,9,q),
(174,-13,o),
(155,-29,q),
(136,-45,o),
(114,-45,q),
(92,-45,o),
(78.5,-29,q),
(65,-13,o),
(65,20,q)
);
}
);
width = 213;
}
);
unicode = 49;
},
{
category = Letter;
glyphname = two;
layers = (
{
layerId = "746fec36-5ae7-46fb-b5cd-17efca425fb8";
name = Fore;
shapes = (
{
closed = 1;
nodes = (
(27,190,l),
(14,190,o),
(14,201,q),
(14,233,o),
(72.5,266,q),
(131,299,o),
(163,299,q),
(195,299,o),
(209.5,284,q),
(224,269,o),
(224,246,q),
(224,158,o),
(106,78,q),
(127,78,o),
(173,67,q),
(219,56,o),
(225.5,56,q),
(232,56,o),
(254.5,66.5,q),
(277,77,o),
(282,77,q),
(290,77,o),
(290,59.5,q),
(290,42,o),
(268.5,12.5,q),
(247,-17,o),
(220,-21,q),
(200,-21,o),
(170.5,-6,q),
(141,9,o),
(118.5,9,q),
(96,9,o),
(56,-7,q),
(16,-23,o),
(7,-23,q),
(-2,-23,o),
(-2,-12.5,q),
(-2,-2,o),
(5,7,q),
(110,112,o),
(110,160,q),
(110,176,o),
(99,189,q),
(88,202,o),
(72,202,q)
);
}
);
width = 269;
}
);
unicode = 50;
},
{
category = Letter;
glyphname = three;
layers = (
{
layerId = "746fec36-5ae7-46fb-b5cd-17efca425fb8";
name = Fore;
shapes = (
{
closed = 1;
nodes = (
(144,160,l),
(159,179,o),
(159,202,q),
(157,219,o),
(137.5,219,q),
(118,219,o),
(97,196,q),
(76,173,o),
(52,173,q),
(28,173,o),
(28,196,q),
(28,233,o),
(83.5,266,q),
(139,299,o),
(193,299,q),
(282,299,o),
(282,259,q),
(282,212,o),
(163,143,q),
(163,141,o),
(184,139.5,q),
(205,138,o),
(229.5,135.5,q),
(254,133,o),
(275,118.5,q),
(296,104,o),
(296,78,q),
(296,35,o),
(228,0,q),
(160,-35,o),
(87,-35,q),
(14,-35,o),
(0,12,q),
(0,36,o),
(18,50,q),
(36,64,o),
(54,66,q),
(72,68,l),
(88,68,o),
(93.5,62,q),
(99,56,o),
(99,44,q),
(101,20,o),
(121,20,q),
(150,20,o),
(177,33,q),
(204,46,o),
(204,67,q),
(204,88,o),
(192.5,101.5,q),
(181,115,o),
(166,118,q),
(129,124,o),
(129,140,q)
);
}
);
width = 314;
}
);
unicode = 51;
},
{
category = Letter;
glyphname = four;
layers = (
{
layerId = "746fec36-5ae7-46fb-b5cd-17efca425fb8";
name = Fore;
shapes = (
{
closed = 1;
nodes = (
(135,223,l),
(135,154,o),
(177,154,q),
(177,170,o),
(184,197.5,q),
(191,225,o),
(201.5,243,q),
(212,261,o),
(234,276,q),
(256,291,o),
(280.5,291,q),
(305,291,o),
(305,281,q),
(305,276,o),
(297,255,q),
(273,192,o),
(273,135,q),
(273,78,o),
(278,48.5,q),
(283,19,o),
(283,16,q),
(282,-8,o),
(260,-26.5,q),
(238,-45,o),
(217,-45,q),
(196,-45,o),
(187,-32,q),
(183,-24,o),
(183,98,q),
(183,121,l),
(183,136,o),
(176,136,q),
(173,136,o),
(160,123,q),
(122,85,o),
(90.5,85,q),
(59,85,o),
(41.5,113.5,q),
(24,142,o),
(24,172.5,q),
(24,203,o),
(37,229.5,q),
(50,256,o),
(69,268,q),
(105,292,o),
(124,292,q),
(143,292,o),
(143,276,q)
);
}
);
width = 291;
}
);
unicode = 52;
},
{
category = Letter;
glyphname = five;
layers = (
{
layerId = "746fec36-5ae7-46fb-b5cd-17efca425fb8";
name = Fore;
shapes = (
{
closed = 1;
nodes = (
(98,233,o),
(94,228.5,q),
(90,224,o),
(90,206,q),
(90,188,o),
(178,154,q),
(210,142,o),
(237.5,122,q),
(265,102,o),
(265,75.5,q),
(265,49,o),
(246,23.5,q),
(227,-2,o),
(197,-16,q),
(138,-45,o),
(74.5,-45,q),
(11,-45,o),
(11,-24,q),
(11,2,o),
(39.5,24.5,q),
(68,47,o),
(80.5,47,q),
(93,47,o),
(93,37,q),
(93,5,o),
(114,5,q),
(126,5,o),
(136.5,18,q),
(147,31,o),
(147,48.5,q),
(147,66,o),
(129,86,q),
(111,106,o),
(89,123,q),
(67,140,o),
(49,161.5,q),
(31,183,o),
(31,203.5,q),
(31,224,o),
(41.5,240.5,q),
(52,257,o),
(67,266,q),
(82,275,o),
(108,280,q),
(147,286,o),
(213,286,q),
(233,283,o),
(239,277.5,q),
(245,272,o),
(248,266,q),
(257,253,o),
(257,233,q),
(257,193,o),
(239,193,q),
(232,193,o),
(188,213,q),
(144,233,o),
(109,233,q)
);
}
);
width = 277;
}
);
unicode = 53;
},
{
category = Letter;
glyphname = six;
layers = (
{
layerId = "746fec36-5ae7-46fb-b5cd-17efca425fb8";
name = Fore;
shapes = (
{
closed = 1;
nodes = (
(225,62,o),
(225,80.5,q),
(225,99,o),
(208.5,111.5,q),
(192,124,o),
(167,124,q),
(142,124,o),
(110,109,q),
(113,69,o),
(129,50,q),
(145,31,o),
(167,31,q),
(189,31,o),
(207,46.5,q)
);
},
{
closed = 1;
nodes = (
(157,164,o),
(204,164,q),
(251,164,o),
(280,136,q),
(309,108,o),
(309,67.5,q),
(309,27,o),
(258.5,-5,q),
(208,-37,o),
(151.5,-37,q),
(95,-37,o),
(59.5,-7.5,q),
(24,22,o),
(24,87,q),
(24,152,o),
(87.5,221,q),
(151,290,o),
(231,290,q),
(256,290,o),
(271.5,278.5,q),
(287,267,o),
(287,249,q),
(287,233,o),
(275,219,q),
(254,195,o),
(222,195,q),
(210,195,o),
(210,202,q),
(210,206,o),
(212.5,211,q),
(215,216,o),
(215,224,q),
(215,244,o),
(196,244,q),
(157,244,o),
(134.5,211,q),
(112,178,o),
(110,132,q)
);
}
);
width = 314;
}
);
unicode = 54;
},
{
category = Letter;
glyphname = seven;
layers = (
{
layerId = "746fec36-5ae7-46fb-b5cd-17efca425fb8";
name = Fore;
shapes = (
{
closed = 1;
nodes = (
(182,271,l),
(236,271,o),
(258,280.5,q),
(280,290,o),
(293.5,290,q),
(307,290,o),
(307,279,q),
(307,278,o),
(286.5,251.5,q),
(266,225,o),
(245.5,182,q),
(225,139,o),
(225,110.5,q),
(225,82,o),
(231.5,60.5,q),
(238,39,o),
(238,29,q),
(238,0,o),
(214.5,-20,q),
(191,-40,o),
(165,-40,q),
(126,-40,o),
(126,1,q),
(126,30,o),
(141,97,q),
(156,164,o),
(174,207,q),
(147,211,o),
(119.5,211,q),
(92,211,o),
(68.5,200,q),
(45,189,o),
(38,189,q),
(21,189,o),
(21,214,q),
(21,239,o),
(35,258,q),
(49,277,o),
(75,277,q)
);
}
);
width = 263;
}
);
unicode = 55;
},
{
category = Letter;
glyphname = eight;
layers = (
{
layerId = "746fec36-5ae7-46fb-b5cd-17efca425fb8";
name = Fore;
shapes = (
{
closed = 1;
nodes = (
(218,20,o),
(218,36,q),
(218,52,o),
(208,60.5,q),
(198,69,o),
(165,83,q),
(145,83,o),
(145,55.5,q),
(145,28,o),
(153.5,10.5,q),
(162,-7,o),
(175.5,-7,q),
(189,-7,o),
(203.5,6.5,q)
);
},
{
closed = 1;
nodes = (
(200,250,o),
(174,250,q),
(158,250,o),
(143,237,q),
(128,224,o),
(128,207,q),
(128,190,o),
(137.5,182,q),
(147,174,o),
(177,158,q),
(189,160,o),
(194.5,168.5,q),
(200,177,o),
(200,198,q)
);
},
{
closed = 1;
nodes = (
(239,138,o),
(251.5,133.5,q),
(264,129,o),
(284.5,111,q),
(305,93,o),
(305,70,q),
(305,26,o),
(248,-9.5,q),
(191,-45,o),
(131,-45,q),
(94,-45,o),
(67.5,-30.5,q),
(41,-16,o),
(41,13.5,q),
(41,43,o),
(59.5,62,q),
(78,81,o),
(96,89.5,q),
(114,98,o),
(114,101,q),
(114,106,o),
(95,112.5,q),
(76,119,o),
(57,134,q),
(38,149,o),
(38,174,q),
(38,224,o),
(98,257,q),
(158,290,o),
(223,290,q),
(261,290,o),
(285,276.5,q),
(309,263,o),
(309,238,q),
(309,213,o),
(283,184,q),
(257,155,o),
(231,140,q)
);
}
);
width = 323;
}
);
unicode = 56;
},
{
category = Letter;
glyphname = nine;
layers = (
{
layerId = "746fec36-5ae7-46fb-b5cd-17efca425fb8";
name = Fore;
shapes = (
{
closed = 1;
nodes = (
(191,254,o),
(169,254,q),
(147,254,o),
(134,234.5,q),
(121,215,o),
(121,190.5,q),
(121,166,o),
(134,149,q),
(147,132,o),
(173,132,q),
(199,132,o),
(228,147,q),
(225,200,o),
(208,227,q)
);
},
{
closed = 1;
nodes = (
(181,92,o),
(130.5,92,q),
(80,92,o),
(54,112,q),
(28,132,o),
(28,163,q),
(28,210,o),
(75.5,251.5,q),
(123,293,o),
(188,293,q),
(253,293,o),
(284,261,q),
(315,229,o),
(315,179,q),
(315,95,o),
(240,27,q),
(165,-41,o),
(101,-41,q),
(51,-41,o),
(51,7,q),
(51,23,o),
(63,37,q),
(84,61,o),
(116,61,q),
(130,61,o),
(130,46,q),
(129,27,l),
(129,12,o),
(140,12,q),
(162,12,o),
(193.5,47,q),
(225,82,o),
(228,123,q)
);
}
);
width = 318;
}
);
unicode = 57;
},
{
category = Letter;
glyphname = colon;
layers = (
{
layerId = "746fec36-5ae7-46fb-b5cd-17efca425fb8";
name = Fore;
shapes = (
{
closed = 1;
nodes = (
(50,240,o),
(65.5,257,q),
(81,274,o),
(104,274,q),
(127,274,o),
(142.5,257,q),
(158,240,o),
(158,215,q),
(158,190,o),
(142.5,173,q),
(127,156,o),
(104,156,q),
(81,156,o),
(65.5,173,q),
(50,190,o),
(50,215,q)
);
},
{
closed = 1;
nodes = (
(57,62,o),
(72.5,79,q),
(88,96,o),
(111,96,q),
(134,96,o),
(149.5,79,q),
(165,62,o),
(165,37,q),
(165,12,o),
(149.5,-5,q),
(134,-22,o),
(111,-22,q),
(88,-22,o),
(72.5,-5,q),
(57,12,o),
(57,37,q)
);
}
);
width = 212;
}
);
unicode = 58;
},
{
category = Letter;
glyphname = semicolon;
layers = (
{
layerId = "746fec36-5ae7-46fb-b5cd-17efca425fb8";
name = Fore;
shapes = (
{
closed = 1;
nodes = (
(50,240,o),
(65.5,257,q),
(81,274,o),
(104,274,q),
(127,274,o),
(142.5,257,q),
(158,240,o),
(158,215,q),
(158,190,o),
(142.5,173,q),
(127,156,o),
(104,156,q),
(81,156,o),
(65.5,173,q),
(50,190,o),
(50,215,q)
);
},
{
closed = 1;
nodes = (
(158,-48,o),
(97,-118,q),
(91,-125,o),
(85.5,-125,q),
(80,-125,o),
(76,-116,q),
(76,-113,o),
(91,-88,q),
(106,-63,o),
(106,-42.5,q),
(106,-22,o),
(96.5,-15,q),
(87,-8,o),
(75,-7,q),
(63,-6,o),
(53.5,3.5,q),
(44,13,o),
(44,35.5,q),
(44,58,o),
(61.5,78,q),
(79,98,o),
(112,98,q),
(153,98,o),
(158,48,q)
);
}
);
width = 223;
}
);
unicode = 59;
},
{
category = Letter;
glyphname = less;
layers = (
{
layerId = "746fec36-5ae7-46fb-b5cd-17efca425fb8";
name = Fore;
shapes = (
{
closed = 1;
nodes = (
(266,239,o),
(270.5,250.5,q),
(275,262,o),
(287,262,q),
(297,262,o),
(297,248,q),
(297,213,o),
(252.5,186.5,q),
(208,160,o),
(163,151,q),
(118,142,l),
(169,139,o),
(239.5,93.5,q),
(310,48,o),
(310,2,q),
(310,-8,o),
(303,-18.5,q),
(296,-29,o),
(288,-29,q),
(280,-29,o),
(261.5,-9.5,q),
(243,10,o),
(219,33.5,q),
(195,57,o),
(149.5,76.5,q),
(104,96,o),
(52,96,q),
(31,96,l),
(26,96,o),
(26,103.5,q),
(26,111,o),
(44,139.5,q),
(62,168,o),
(68.5,170,q),
(75,172,o),
(111,182,q),
(147,192,o),
(177.5,201.5,q),
(208,211,o),
(237,225,q)
);
}
);
width = 329;
}
);
unicode = 60;
},
{
category = Letter;
glyphname = equal;
layers = (
{
layerId = "746fec36-5ae7-46fb-b5cd-17efca425fb8";
name = Fore;
shapes = (
{
closed = 1;
nodes = (
(91,195,o),
(194,195,q),
(220,195,o),
(246,187.5,q),
(272,180,o),
(272,163,q),
(272,149,o),
(221,149,q),
(118,149,o),
(41,142,q),
(34,142,o),
(29,154,q),
(24,166,o),
(24,177,q),
(24,199,o),
(67,199,q)
);
},
{
closed = 1;
nodes = (
(110,105,o),
(213,105,q),
(291,105,o),
(291,73,q),
(291,59,o),
(240,59,q),
(137,59,o),
(60,52,q),
(53,52,o),
(48,64.5,q),
(43,77,o),
(43,87,q),
(43,109,o),
(86,109,q)
);
}
);
width = 292;
}
);
unicode = 61;
},
{
category = Letter;
glyphname = greater;
layers = (
{
layerId = "746fec36-5ae7-46fb-b5cd-17efca425fb8";
name = Fore;
shapes = (
{
closed = 1;
nodes = (
(61,283,o),
(65.5,271.5,q),
(70,260,o),
(99,246,q),
(128,232,o),
(158.5,222.5,q),
(189,213,o),
(225,203,q),
(261,193,o),
(267.5,191,q),
(274,189,o),
(292,160.5,q),
(310,132,o),
(310,124.5,q),
(310,117,o),
(305,117,q),
(284,117,l),
(232,117,o),
(186.5,97.5,q),
(141,78,o),
(117,54.5,q),
(93,31,o),
(74.5,11.5,q),
(56,-8,o),
(48,-8,q),
(40,-8,o),
(33,2.5,q),
(26,13,o),
(26,23,q),
(26,69,o),
(96.5,114.5,q),
(167,160,o),
(218,163,q),
(198,166,o),
(161.5,176.5,q),
(125,187,o),
(101.5,197.5,q),
(78,208,o),
(58.5,227.5,q),
(39,247,o),
(39,265,q),
(39,283,o),
(49,283,q)
);
}
);
width = 304;
}
);
unicode = 62;
},
{
category = Letter;
glyphname = question;
layers = (
{
layerId = "746fec36-5ae7-46fb-b5cd-17efca425fb8";
name = Fore;
shapes = (
{
closed = 1;
nodes = (
(64,-5,o),
(64,24.5,q),
(64,54,o),
(83,74.5,q),
(102,95,o),
(129,95,q),
(156,95,o),
(174.5,74.5,q),
(193,54,o),
(193,24.5,q),
(193,-5,o),
(174.5,-25.5,q),
(156,-46,o),
(129,-46,q),
(102,-46,o),
(83,-25.5,q)
);
},
{
closed = 1;
nodes = (
(300,519,o),
(300,475.5,q),
(300,432,o),
(282,398,q),
(264,364,o),
(238,340,q),
(212,316,o),
(186,295,q),
(123,245,o),
(123,220,q),
(123,203,o),
(133,188,q),
(143,173,o),
(154.5,167.5,q),
(166,162,o),
(166,158,q),
(166,154,o),
(158.5,149.5,q),
(151,145,o),
(144,145.5,q),
(137,146,o),
(123,153,q),
(109,160,o),
(92,180.5,q),
(75,201,o),
(75,233.5,q),
(75,266,o),
(127.5,347,q),
(180,428,o),
(180,457.5,q),
(180,487,o),
(147.5,508,q),
(115,529,o),
(81.5,529,q),
(48,529,o),
(48,504,q),
(48,494,o),
(83,494,q),
(99,494,o),
(99,468,q),
(99,442,o),
(84.5,423.5,q),
(70,405,o),
(46.5,405,q),
(23,405,o),
(7,424.5,q),
(-9,444,o),
(-9,471,q),
(-9,515,o),
(42,542.5,q),
(93,570,o),
(155.5,570,q),
(218,570,o),
(259,544.5,q)
);
}
);
width = 305;
}
);
unicode = 63;
},
{
category = Letter;
glyphname = at;
layers = (
{
layerId = "746fec36-5ae7-46fb-b5cd-17efca425fb8";
name = Fore;
shapes = (
{
closed = 1;
nodes = (
(347,100,l),
(347,82,o),
(362.5,62.5,q),
(378,43,o),
(398.5,43,q),
(419,43,o),
(435.5,79.5,q),
(452,116,o),
(452,164.5,q),
(452,213,o),
(423.5,249,q),
(395,285,o),
(331,285,q),
(208,285,o),
(126,204.5,q),
(44,124,o),
(44,34,q),
(44,-21,o),
(80.5,-55.5,q),
(117,-90,o),
(189,-90,q),
(196,-90,o),
(196,-93,q),
(196,-98,o),
(184.5,-103.5,q),
(173,-109,o),
(166,-109,q),
(89,-109,o),
(49.5,-69,q),
(10,-29,o),
(10,27,q),
(10,83,o),
(34.5,134.5,q),
(59,186,o),
(103.5,230.5,q),
(148,275,o),
(218,303,q),
(288,331,o),
(369,331,q),
(450,331,o),
(489.5,287.5,q),
(529,244,o),
(529,168,q),
(529,92,o),
(473.5,20.5,q),
(418,-51,o),
(336,-51,q),
(299,-51,o),
(290,-20,q),
(284,2,o),
(284,34,q),
(284,38,o),
(279,38,q),
(274,38,o),
(256,18,q),
(200,-40,o),
(165.5,-40,q),
(131,-40,o),
(112.5,-22,q),
(94,-4,o),
(94,24,q),
(94,73,o),
(120,117.5,q),
(146,162,o),
(182,189,q),
(262,248,o),
(306,248,q),
(372,246,o),
(372,201,q),
(372,185,o),
(358,169.5,q),
(344,154,o),
(332,154,q),
(320,154,o),
(299,175,q),
(278,196,o),
(253,196,q),
(228,196,o),
(212,175.5,q),
(196,155,o),
(196,123,q),
(196,71,o),
(251,71,q),
(273,71,o),
(287.5,82,q),
(302,93,o),
(308,106,q),
(325,140,o),
(339,140,q),
(351,140,o),
(351,128,q)
);
}
);
width = 530;
}
);
unicode = 64;
},
{
category = Letter;
glyphname = A;
layers = (
{
layerId = "746fec36-5ae7-46fb-b5cd-17efca425fb8";
name = Fore;
shapes = (
{
closed = 1;
nodes = (
(648,707,o),
(648,676.5,q),
(648,646,o),
(623,624,q),
(598,602,o),
(583,602,q),
(568,602,o),
(567,616,q),
(565,640,o),
(535.5,661,q),
(506,682,o),
(475,682,q),
(396,682,o),
(314,607,q),
(232,532,o),
(183,435,q),
(134,338,o),
(134,271,q),
(134,204,o),
(162.5,161.5,q),
(191,119,o),
(246,119,q),
(334,119,o),
(437,274,q),
(485,345,o),
(534,482,q),
(552,531,o),
(553,532,q),
(561,553,o),
(579,553,q),
(588,553,o),
(593.5,547.5,q),
(599,542,o),
(599,534.5,q),
(599,527,o),
(596,518,q),
(567,412,o),
(567,315.5,q),
(567,219,o),
(600,155,q),
(633,91,o),
(688,91,q),
(716,91,o),
(738,109,q),
(745,115,o),
(752,115,q),
(764,115,o),
(764,104,q),
(764,49,o),
(699,1.5,q),
(634,-46,o),
(570,-46,q),
(467,-46,o),
(467,96,q),
(467,153,o),
(481.5,224,q),
(496,295,o),
(496,297.5,q),
(496,300,o),
(492,300,q),
(488,300,o),
(483,291,q),
(426,149,o),
(327,52.5,q),
(228,-44,o),
(145,-44,q),
(62,-44,o),
(26,20,q),
(1,63,o),
(1,126,q),
(1,250,o),
(85.5,395.5,q),
(170,541,o),
(303.5,643,q),
(437,745,o),
(563,745,q),
(606,745,o),
(627,726,q)
);
}
);
width = 764;
}
);
unicode = 65;
},
{
category = Letter;
glyphname = B;
layers = (
{
layerId = "746fec36-5ae7-46fb-b5cd-17efca425fb8";
name = Fore;
shapes = (
{
closed = 1;
nodes = (
(447,499,o),
(447,566,q),
(447,615,o),
(422,655.5,q),
(397,696,o),
(347,716,q),
(329,725,o),
(309,725,q),
(250,725,o),
(196,671,q),
(142,617,o),
(111.5,540,q),
(81,463,o),
(81,384,q),
(81,305,o),
(103,234,q),
(125,163,o),
(157,163,q),
(166,163,o),
(168,174,q),
(189,252,o),
(211,474,q),
(219,555,o),
(220,556,q),
(257,581,o),
(266,581,q),
(272,581,o),
(272,566,q),
(272,551,o),
(263,510,q),
(229,353,o),
(170,-5,q),
(166,-21,o),
(153,-21,q),
(104,-21,o),
(68,100,q),
(32,221,o),
(32,345,q),
(32,469,o),
(81,574.5,q),
(130,680,o),
(216.5,743,q),
(303,806,o),
(406,806,q),
(478,806,o),
(523,758.5,q),
(568,711,o),
(568,639,q),
(568,567,o),
(529,515,q),
(490,463,o),
(439,432,q),
(494,413,o),
(532,364,q),
(601,277,o),
(601,181.5,q),
(601,86,o),
(530,8.5,q),
(459,-69,o),
(371,-69,q),
(304,-69,o),
(253.5,-2,q),
(203,65,o),
(203,109,q),
(203,117,o),
(212.5,123,q),
(222,129,o),
(267,153.5,q),
(312,178,o),
(317,179,q),
(322,180,o),
(328,180,q),
(331,179,o),
(336,170,q),
(355,123,o),
(393,71,q),
(431,19,o),
(469,19,q),
(502,19,o),
(502,77.5,q),
(502,136,o),
(469.5,201,q),
(437,266,o),
(392,310.5,q),
(347,355,o),
(314,355,q),
(303,355,o),
(283.5,347.5,q),
(264,340,o),
(257,340,q),
(239,344,o),
(239,369.5,q),
(239,395,o),
(275.5,419.5,q),
(312,444,o),
(364,444,q),
(381,444,o),
(398,441,q)
);
}
);
width = 611;
}
);
unicode = 66;
},
{
category = Letter;
glyphname = C;
layers = (
{
layerId = "746fec36-5ae7-46fb-b5cd-17efca425fb8";
name = Fore;
shapes = (
{
closed = 1;
nodes = (
(489,165,o),
(489,153.5,q),
(489,142,o),
(481,134,q),
(431,67,o),
(347.5,12.5,q),
(264,-42,o),
(177.5,-42,q),
(91,-42,o),
(45.5,13.5,q),
(0,69,o),
(0,161,q),
(0,253,o),
(42,361.5,q),
(84,470,o),
(151.5,563.5,q),
(219,657,o),
(315.5,719.5,q),
(412,782,o),
(511,782,q),
(597,782,o),
(597,703,q),
(597,645,o),
(554,568,q),
(511,491,o),
(445,434.5,q),
(379,378,o),
(323,378,q),
(293,378,o),
(293,410,q),
(293,434,o),
(321,470,q),
(349,506,o),
(373,506,q),
(386,506,o),
(383,483,q),
(380,460,o),
(405,460,q),
(441,460,o),
(472.5,515,q),
(504,570,o),
(504,618,q),
(504,717,o),
(422,717,q),
(347,717,o),
(277.5,649,q),
(208,581,o),
(167.5,483.5,q),
(127,386,o),
(127,296,q),
(127,206,o),
(170.5,151.5,q),
(214,97,o),
(306,97,q),
(345,97,o),
(381,110,q),
(431,127,o),
(449,146,q),
(467,165,o),
(478,165,q)
);
}
);
width = 504;
}
);
unicode = 67;
},
{
category = Letter;
glyphname = D;
layers = (
{
layerId = "746fec36-5ae7-46fb-b5cd-17efca425fb8";
name = Fore;
shapes = (
{
closed = 1;
nodes = (
(249,73,o),
(249,60,q),
(249,38,o),
(231,38,q),
(213,38,o),
(211,54,q),
(211,57,o),
(209.5,69,q),
(208,81,o),
(206,105,q),
(204,129,o),
(202,150,q),
(199,151,l),
(147,151,o),
(147,90,q),
(147,45,o),
(195,11.5,q),
(243,-22,o),
(293,-22,q),
(343,-22,o),
(408,24,q),
(389,37,o),
(354,64,q),
(280,122,o),
(243,139,q)
);
},
{
closed = 1;
nodes = (
(214,553,o),
(214,539,q),
(214,525,o),
(236,232,q),
(269,242,o),
(298.5,242,q),
(328,242,o),
(360,229.5,q),
(392,217,o),
(409,206,q),
(426,195,o),
(462.5,167,q),
(499,139,o),
(508,133,q),
(534,180,o),
(534,231.5,q),
(534,283,o),
(485.5,364.5,q),
(437,446,o),
(367.5,520,q),
(298,594,o),
(212,647,q),
(126,700,o),
(59,700,q),
(8,700,o),
(-46,649,q),
(-88,604,o),
(-106,567,q),
(-111,558,o),
(-119.5,558,q),
(-128,558,o),
(-134.5,563.5,q),
(-141,569,o),
(-141,576,q),
(-140,583,l),
(-115,629,o),
(-38,702,q),
(0,739,o),
(48.5,764.5,q),
(97,790,o),
(143.5,790,q),
(190,790,o),
(252,766,q),
(314,742,o),
(376,696.5,q),
(438,651,o),
(490.5,593.5,q),
(543,536,o),
(575.5,461.5,q),
(608,387,o),
(608,304.5,q),
(608,222,o),
(543,111,q),
(580,90,o),
(615,90,q),
(626,90,o),
(644,102.5,q),
(662,115,o),
(669,115,q),
(683,115,o),
(683,101,q),
(683,73,o),
(627.5,24.5,q),
(572,-24,o),
(518,-24,q),
(490,-24,o),
(452,-4,q),
(320,-136,o),
(167,-136,q),
(111,-136,o),
(81.5,-106,q),
(52,-76,o),
(52,-19,q),
(52,38,o),
(92,108,q),
(132,178,o),
(196,214,q),
(169,511,o),
(168.5,517,q),
(168,523,o),
(161.5,528.5,q),
(155,534,o),
(155,544.5,q),
(155,555,o),
(168,568.5,q),
(181,582,o),
(192,582,q),
(203,582,o),
(208.5,567.5,q)
);
}
);
width = 693;
}
);
unicode = 68;
},
{
category = Letter;
glyphname = E;
layers = (
{
layerId = "746fec36-5ae7-46fb-b5cd-17efca425fb8";
name = Fore;
shapes = (
{
closed = 1;
nodes = (
(433,686,l),
(433,704,o),
(414.5,712.5,q),
(396,721,o),
(378,721,q),
(336,721,o),
(274,694,q),
(212,667,o),
(165,629.5,q),
(118,592,o),
(117.5,566,q),
(117,540,o),
(142.5,518,q),
(168,496,o),
(198.5,482,q),
(229,468,o),
(254.5,446.5,q),
(280,425,o),
(280,399.5,q),
(280,374,o),
(264.5,351,q),
(249,328,o),
(227,310.5,q),
(205,293,o),
(184,275,q),
(131,231,o),
(131,177,q),
(131,142,o),
(160.5,116.5,q),
(190,91,o),
(228.5,91,q),
(267,91,o),
(304,103.5,q),
(341,116,o),
(374,142,q),
(418,178,o),
(463,226,q),
(470,233,o),
(477,233,q),
(484,233,o),
(489,226,q),
(494,219,o),
(494,211,q),
(494,191,o),
(458.5,150,q),
(423,109,o),
(370.5,67,q),
(318,25,o),
(248,-7,q),
(178,-39,o),
(123,-39,q),
(68,-39,o),
(34,-11,q),
(0,17,o),
(0,63.5,q),
(0,110,o),
(26,154,q),
(52,198,o),
(82.5,226,q),
(113,254,o),
(139,281,q),
(165,308,o),
(165,325.5,q),
(165,343,o),
(140,359.5,q),
(115,376,o),
(85,386.5,q),
(55,397,o),
(30,421,q),
(5,445,o),
(5,479,q),
(5,538,o),
(68,601.5,q),
(131,665,o),
(216,709.5,q),
(301,754,o),
(381,783,q),
(461,812,o),
(496.5,812,q),
(532,812,o),
(550.5,796,q),
(569,780,o),
(569,756,q),
(569,721,o),
(517,689.5,q),
(465,658,o),
(446.5,658.5,q),
(428,659,o),
(428,666,q)
);
}
);
width = 472;
}
);
unicode = 69;
},
{
category = Letter;
glyphname = F;
layers = (
{
layerId = "746fec36-5ae7-46fb-b5cd-17efca425fb8";
name = Fore;
shapes = (
{
closed = 1;
nodes = (
(210,285,o),
(210,292,q),
(210,299,o),
(233.5,325,q),
(257,351,o),
(289,380.5,q),
(321,410,o),
(365,430,q),
(409,450,o),
(454,451,q),
(484,451,o),
(501,436.5,q),
(518,422,o),
(518,403,q),
(518,384,o),
(484,345.5,q),
(450,307,o),
(424,307,q),
(418,307,o),
(404.5,314.5,q),
(391,322,o),
(377.5,322,q),
(364,322,o),
(316.5,308.5,q),
(269,295,o),
(252.5,285,q),
(236,275,o),
(228.5,275,q),
(221,275,o),
(215.5,280,q)
);
},
{
closed = 1;
nodes = (
(207,571,l),
(205,576,o),
(201,576,q),
(184,575,o),
(174.5,565.5,q),
(165,556,o),
(165,546,q),
(165,536,o),
(162,445,q),
(151,172,o),
(151,74,q),
(152,-12,l),
(152,-27,l),
(152,-35,o),
(158.5,-47,q),
(165,-59,o),
(176.5,-59,q),
(188,-59,o),
(201.5,-50,q),
(215,-41,o),
(215,-26.5,q),
(215,-12,o),
(207.5,88.5,q),
(200,189,o),
(200,218,q)
);
},
{
closed = 1;
nodes = (
(478,685,l),
(357,685,o),
(17,496,q),
(7,491,o),
(3.5,491,q),
(0,491,o),
(0,505.5,q),
(0,520,o),
(13,567,q),
(26,614,o),
(39,622,q),
(359,814,o),
(575,814,q),
(629,814,o),
(629,779,q),
(629,756,o),
(593.5,718,q),
(558,680,o),
(530,680,q)
);
}
);
width = 382;
}
);
unicode = 70;
},
{
category = Letter;
glyphname = G;
layers = (
{
layerId = "746fec36-5ae7-46fb-b5cd-17efca425fb8";
name = Fore;
shapes = (
{
closed = 1;
nodes = (
(174,448,o),
(202.5,502,q),
(231,556,o),
(264,556,q),
(283,556,o),
(283,541,q),
(283,536,o),
(269,515.5,q),
(255,495,o),
(255,485,q),
(255,435,o),
(317,435,q),
(353,435,o),
(399.5,468,q),
(446,501,o),
(483,546,q),
(520,591,o),
(546,637,q),
(572,683,o),
(572,708.5,q),
(572,734,o),
(554.5,748.5,q),
(537,763,o),
(507,763,q),
(450,763,o),
(381,721,q),
(312,679,o),
(254,615,q),
(196,551,o),
(156.5,467,q),
(117,383,o),
(117,301,q),
(117,219,o),
(168.5,163.5,q),
(220,108,o),
(297,108,q),
(339,108,o),
(383.5,129,q),
(428,150,o),
(464,182,q),
(517,232,o),
(545,267,q),
(552,278,o),
(557.5,278,q),
(563,278,o),
(567,273.5,q),
(571,269,o),
(571,262.5,q),
(571,256,o),
(563.5,229.5,q),
(556,203,o),
(539.5,113.5,q),
(523,24,o),
(523,-16.5,q),
(523,-57,o),
(528,-82,q),
(535,-122,o),
(542,-129,q),
(543,-130,o),
(548,-132,q),
(559,-137,o),
(559,-145,q),
(559,-167,o),
(541.5,-189,q),
(524,-211,o),
(510,-211,q),
(496,-211,o),
(489,-208,q),
(482,-205,o),
(477.5,-198,q),
(473,-191,o),
(470,-184,q),
(467,-177,o),
(465.5,-165.5,q),
(464,-154,o),
(463.5,-146,q),
(463,-138,o),
(462.5,-124,q),
(462,-110,o),
(461.5,-91.5,q),
(461,-73,o),
(466,-34.5,q),
(471,4,o),
(478.5,37.5,q),
(486,71,o),
(493,99.5,q),
(500,128,o),
(505,146.5,q),
(510,165,o),
(510,167.5,q),
(510,170,o),
(505.5,170,q),
(501,170,o),
(467,141,q),
(433,112,o),
(390.5,77,q),
(348,42,o),
(283.5,13,q),
(219,-16,o),
(151,-16,q),
(83,-16,o),
(42,38,q),
(1,92,o),
(1,179,q),
(1,266,o),
(42.5,367.5,q),
(84,469,o),
(150,550,q),
(216,631,o),
(295,695.5,q),
(374,760,o),
(453.5,795.5,q),
(533,831,o),
(593.5,831,q),
(654,831,o),
(660,770,q),
(660,703,o),
(582.5,602.5,q),
(505,502,o),
(403.5,427.5,q),
(302,353,o),
(238,353,q),
(174,353,o),
(174,417,q)
);
}
);
width = 589;
}
);
unicode = 71;
},
{
category = Letter;
glyphname = H;
layers = (
{
layerId = "746fec36-5ae7-46fb-b5cd-17efca425fb8";
name = Fore;
shapes = (
{
closed = 1;
nodes = (
(502,35,l),
(486,33,o),
(477,32,q),
(481,28,o),
(486,20,q),
(494,8,o),
(498.5,8,q),
(503,8,o),
(503,12,q)
);
},
{
closed = 1;
nodes = (
(530,551,l),
(530,369,o),
(547,133,q),
(557,132,o),
(575.5,132,q),
(594,132,o),
(606,141.5,q),
(618,151,o),
(625.5,160.5,q),
(633,170,o),
(641,170,q),
(659,170,o),
(659,130,q),
(643,107,o),
(611.5,84,q),
(580,61,o),
(552,50,q),
(555,-7,o),
(555,-43,q),
(555,-79,o),
(551.5,-83,q),
(548,-87,o),
(537,-92.5,q),
(526,-98,o),
(521.5,-98,q),
(517,-98,o),
(515.5,-96.5,q),
(514,-95,o),
(496,-69,q),
(451,-1,o),
(426,32,q),
(356,39,o),
(289,83,q),
(290,57,o),
(290,14,q),
(290,-162,o),
(189,-162,q),
(151,-162,o),
(104,-119,q),
(57,-76,o),
(29,-36,q),
(1,4,o),
(1,8,q),
(1,20,o),
(11,29,q),
(95,96,o),
(102,96,q),
(106,96,o),
(125,67.5,q),
(144,39,o),
(171.5,10.5,q),
(199,-18,o),
(224,-18,q),
(244,-18,o),
(244,50,q),
(244,79,o),
(240,119,q),
(180,171,o),
(140,235.5,q),
(100,300,o),
(100,326,q),
(100,352,o),
(117,374,q),
(134,396,o),
(145,396,q),
(156,396,o),
(163.5,392.5,q),
(171,389,o),
(177.5,384,q),
(184,379,o),
(200,366.5,q),
(216,354,o),
(231,343,q),
(231,348,l),
(230,375,o),
(225,476,q),
(220,577,o),
(220,696,q),
(220,815,o),
(228,843,q),
(228,850,o),
(250.5,868,q),
(273,886,o),
(281,886,q),
(289,886,o),
(289,874,q),
(289,873,o),
(286,848,q),
(276,743,o),
(276,612.5,q),
(276,482,o),
(283,293,q),
(318,257,o),
(341.5,227.5,q),
(365,198,o),
(366.5,197,q),
(368,196,o),
(371,193.5,q),
(374,191,o),
(378.5,187.5,q),
(383,184,o),
(389.5,180,q),
(396,176,o),
(404,171.5,q),
(412,167,o),
(422,162,q),
(432,157,o),
(444,153,q),
(470,144,o),
(499,138,q),
(484,718,l),
(484,732,o),
(513,748,q),
(521,753,o),
(525,753,q),
(533,753,o),
(533,729,q)
);
}
);
width = 659;
}
);
unicode = 72;
},
{
category = Letter;
glyphname = I;
layers = (
{
layerId = "746fec36-5ae7-46fb-b5cd-17efca425fb8";
name = Fore;
shapes = (
{
closed = 1;
nodes = (
(74,-3,o),
(105,18,q),
(136,39,o),
(165,57.5,q),
(194,76,o),
(230,92.5,q),
(266,109,o),
(283,109,q),
(300,109,o),
(308,99,q),
(317,85,o),
(330,56,q),
(343,27,o),
(343,21,q),
(343,15,o),
(342,12,q),
(339,4,o),
(336,2,q),
(324,-4,o),
(318.5,-7,q),
(313,-10,o),
(264,-40,q),
(128,-124,o),
(114,-124,q),
(94,-124,o),
(74,-82.5,q),
(54,-41,o),
(54,-27.5,q),
(54,-14,o),
(70,-5,q)
);
},
{
closed = 1;
nodes = (
(204,129,l),
(204,110,o),
(192,93.5,q),
(180,77,o),
(160,77,q),
(151,77,o),
(151,91,q),
(151,243,o),
(143.5,369,q),
(136,495,o),
(136,660,q),
(136,676,o),
(143,680,q),
(163,693,o),
(171.5,693,q),
(180,693,o),
(182,691,q),
(186,684,o),
(186,629.5,q),
(186,575,o),
(194,343,q)
);
},
{
closed = 1;
nodes = (
(18,743,o),
(73,772,q),
(225,852,o),
(258,852,q),
(268,852,o),
(269.5,848,q),
(271,844,o),
(278,828.5,q),
(285,813,o),
(289,800.5,q),
(293,788,o),
(293,778,q),
(293,768,o),
(279,761,q),
(276,759,o),
(239,742.5,q),
(202,726,o),
(164,708,q),
(67,664,o),
(42,644.5,q),
(17,625,o),
(8.5,625,q),
(0,625,o),
(0,635,q),
(17,736,l)
);
}
);
width = 382;
}
);
unicode = 73;
},
{
category = Letter;
glyphname = J;
layers = (
{
layerId = "746fec36-5ae7-46fb-b5cd-17efca425fb8";
name = Fore;
shapes = (
{
closed = 1;
nodes = (
(277,712,o),
(285,712,q),
(293,712,o),
(293,705,q),
(283,650,o),
(283,641,q),
(283,597,o),
(319,398,q),
(355,199,o),
(355,159.5,q),
(355,120,o),
(347,88.5,q),
(339,57,o),
(322.5,23,q),
(306,-11,o),
(272,-33.5,q),
(238,-56,o),
(190,-56,q),
(142,-56,o),
(71.5,10.5,q),
(1,77,o),
(1,116,q),
(1,129,o),
(8.5,136.5,q),
(16,144,o),
(38,165.5,q),
(60,187,o),
(72.5,201.5,q),
(85,216,o),
(92,216,q),
(96,216,o),
(124,173.5,q),
(152,131,o),
(192.5,88.5,q),
(233,46,o),
(269,46,q),
(305,46,o),
(305,138,q),
(305,210,o),
(270.5,389.5,q),
(236,569,o),
(236,620,q),
(236,671,o),
(259,702,q)
);
},
{
closed = 1;
nodes = (
(98,764,o),
(261,829.5,q),
(424,895,o),
(471,895,q),
(488,895,o),
(488,877.5,q),
(488,860,o),
(477,832.5,q),
(466,805,o),
(458,792,q),
(448,779,o),
(406,765,q),
(319,738,o),
(203.5,692,q),
(88,646,o),
(59.5,627,q),
(31,608,o),
(22.5,608,q),
(14,608,o),
(14,626.5,q),
(14,645,o),
(26.5,686,q),
(39,727,o),
(47,732,q)
);
}
);
width = 404;
}
);
unicode = 74;
},
{
category = Letter;
glyphname = K;
layers = (
{
layerId = "746fec36-5ae7-46fb-b5cd-17efca425fb8";
name = Fore;
shapes = (
{
closed = 1;
nodes = (
(1,585,o),
(18,715,q),
(18,720,o),
(25,731,q),
(38,744,o),
(59,747,q),
(68,747,o),
(68,739,q),
(48,633,o),
(48,430,q),
(48,409,o),
(49.5,409,q),
(51,409,o),
(55.5,415.5,q),
(60,422,o),
(63,422,q),
(78,422,o),
(79,415,q),
(119,364,o),
(180,364,q),
(225,364,o),
(261.5,385,q),
(298,406,o),
(319,435.5,q),
(340,465,o),
(354,500,q),
(379,558,o),
(379,603,q),
(379,648,o),
(357.5,685,q),
(336,722,o),
(302,722,q),
(297,722,o),
(290.5,717.5,q),
(284,713,o),
(278.5,713,q),
(273,713,o),
(266,717.5,q),
(259,722,o),
(259,727,q),
(259,750,o),
(300,784.5,q),
(341,819,o),
(367,819,q),
(419,819,o),
(445,785.5,q),
(471,752,o),
(471,686.5,q),
(471,621,o),
(435,538,q),
(399,455,o),
(330,393.5,q),
(261,332,o),
(180,332,q),
(146,332,o),
(127,340.5,q),
(108,349,o),
(105,349,q),
(102,349,o),
(102,343.5,q),
(102,338,o),
(106,326,q),
(178,200,o),
(260,132.5,q),
(342,65,o),
(423,65,q),
(452,65,o),
(464.5,74.5,q),
(477,84,o),
(484,91,q),
(497,104,o),
(504,104,q),
(511,104,o),
(517,95,q),
(523,86,o),
(523,79,q),
(523,44,o),
(460.5,0,q),
(398,-44,o),
(315,-44,q),
(226,-44,o),
(177,5,q),
(152,30,o),
(134.5,55,q),
(117,80,o),
(103,118.5,q),
(89,157,o),
(82,182,q),
(75,207,o),
(66,248,q),
(52,307,o),
(49,307,q),
(46,307,o),
(46,299,q),
(45,211,l),
(45,86,o),
(55,0,q),
(55,-6,o),
(43.5,-17.5,q),
(32,-29,o),
(20,-29,q),
(8,-29,o),
(8,-8,q),
(8,0,o),
(6,40,q),
(0,160,o),
(0,252,q),
(0,387,l),
(1,490,l)
);
}
);
width = 524;
}
);
unicode = 75;
},
{
category = Letter;
glyphname = L;
layers = (
{
layerId = "746fec36-5ae7-46fb-b5cd-17efca425fb8";
name = Fore;
shapes = (
{
closed = 1;
nodes = (
(299,756,o),
(299,732,q),
(299,708,o),
(274.5,667.5,q),
(250,627,o),
(230,627,q),
(226,627,o),
(217.5,633.5,q),
(209,640,o),
(209,644.5,q),
(209,649,o),
(214,654,q),
(219,659,o),
(219,663,q),
(216,700,o),
(180,700,q),
(144,700,o),
(114.5,676,q),
(85,652,o),
(69,614,q),
(38,539,o),
(38,464,q),
(38,389,o),
(46.5,248,q),
(55,107,o),
(55,71.5,q),
(55,36,o),
(60,36,q),
(61,36,o),
(70,45,q),
(93,74,o),
(151.5,122,q),
(210,170,o),
(251,170,q),
(292,170,o),
(345,137.5,q),
(398,105,o),
(452.5,72,q),
(507,39,o),
(550,39,q),
(586,39,o),
(596,57,q),
(606,75,o),
(615,75,q),
(624,75,o),
(632,65.5,q),
(640,56,o),
(640,49,q),
(640,21,o),
(571.5,-20,q),
(503,-61,o),
(461,-61,q),
(419,-61,o),
(361,-31,q),
(303,-1,o),
(248.5,29,q),
(194,59,o),
(165,59,q),
(136,59,o),
(104,30,q),
(72,1,o),
(57,-21,q),
(42,-43,o),
(33.5,-43,q),
(25,-43,o),
(17,-36,q),
(9,-29,o),
(9,-23.5,q),
(9,-18,o),
(14.5,4.5,q),
(20,27,o),
(20,87.5,q),
(20,148,o),
(10.5,252,q),
(1,356,o),
(1,497,q),
(1,613,o),
(81.5,698.5,q),
(162,784,o),
(248,784,q),
(272,784,o),
(285.5,770,q)
);
}
);
width = 641;
}
);
unicode = 76;
},
{
category = Letter;
glyphname = M;
layers = (
{
layerId = "746fec36-5ae7-46fb-b5cd-17efca425fb8";
name = Fore;
shapes = (
{
closed = 1;
nodes = (
(570,571,l),
(569,578,o),
(562.5,578,q),
(556,578,o),
(551,571,q),
(502,449,o),
(427.5,234.5,q),
(353,20,o),
(349.5,9,q),
(346,-2,o),
(330,-17.5,q),
(314,-33,o),
(302,-33,q),
(290,-33,o),
(290,-14,q),
(289,-7,o),
(287,52.5,q),
(285,112,o),
(281,174,q),
(277,236,o),
(270.5,302.5,q),
(264,369,o),
(252,411.5,q),
(240,454,o),
(225,454,q),
(199,454,o),
(78,44,q),
(62,-12,o),
(61,-14,q),
(57,-27,o),
(42.5,-36.5,q),
(28,-46,o),
(15,-46,q),
(4,-46,o),
(4,-30,q),
(11,176,o),
(11,311,q),
(11,566,o),
(3,654,q),
(0,687,l),
(0,694,o),
(14,707.5,q),
(28,721,o),
(40,721,q),
(52,721,o),
(52,699,q),
(52,692,l),
(54,608,l),
(54,567,l),
(54,186,o),
(49,106,q),
(49,88,o),
(52,88,q),
(55,88,o),
(135.5,332.5,q),
(216,577,o),
(225,607,q),
(234,637,o),
(248,652.5,q),
(262,668,o),
(278,668,q),
(301,668,o),
(316,537,q),
(331,406,o),
(339.5,275,q),
(348,144,o),
(352.5,144,q),
(357,144,o),
(379,201,q),
(401,258,o),
(429.5,339,q),
(458,420,o),
(486,501,q),
(555,695,o),
(562,691,q),
(560,692,o),
(568,699,q),
(592,719,o),
(607,721,q),
(629,718,o),
(629,694,q),
(629,668,l),
(629,593,o),
(632,548,q),
(662,49,o),
(855,49,q),
(871,49,o),
(884,58,q),
(897,67,o),
(901.5,67,q),
(906,67,o),
(912,61,q),
(918,55,o),
(918,48,q),
(918,22,o),
(863.5,-13.5,q),
(809,-49,o),
(757,-49,q),
(567,-49,o),
(567,350,q)
);
}
);
width = 919;
}
);
unicode = 77;
},
{
category = Letter;
glyphname = N;
layers = (
{
layerId = "746fec36-5ae7-46fb-b5cd-17efca425fb8";
name = Fore;
shapes = (
{
closed = 1;
nodes = (
(143,560,o),
(132,377,q),
(121,194,o),
(121,102.5,q),
(121,11,o),
(124,-15.5,q),
(127,-42,o),
(145,-42,q),
(159,-42,o),
(174,-29.5,q),
(189,-17,o),
(189,-5,q),
(189,7,o),
(179.5,88.5,q),
(170,170,o),
(170,236.5,q),
(170,303,o),
(176.5,445,q),
(183,587,o),
(188,611,q),
(188,620,o),
(181,620,q),
(171,620,o),
(163,609,q),
(155,598,o),
(150,592,q)
);
},
{
closed = 1;
nodes = (
(477,-42,o),
(446,-42,q),
(400,-42,o),
(400,73,q),
(400,105,o),
(405.5,141,q),
(411,177,o),
(411,179,q),
(411,207,o),
(386.5,283.5,q),
(362,360,o),
(323,446.5,q),
(284,533,o),
(225.5,599,q),
(167,665,o),
(110,665,q),
(74,665,o),
(48,627,q),
(28,600,o),
(22,600,q),
(12,600,o),
(0,630,q),
(29,670,o),
(90,713.5,q),
(151,757,o),
(208,757,q),
(279,757,o),
(351.5,643.5,q),
(424,530,o),
(466,365,q),
(468,371,o),
(476.5,404.5,q),
(485,438,o),
(488.5,449,q),
(492,460,o),
(501,491,q),
(510,522,o),
(517.5,541.5,q),
(525,561,o),
(536,591,q),
(551,630,o),
(592,711,q),
(607,740,o),
(662,747,q),
(674,747,o),
(674,738,q),
(674,733,o),
(670,728,q),
(624,675,o),
(570.5,541,q),
(517,407,o),
(484,278,q),
(502,175,o),
(502,118,q),
(502,61,o),
(494,26,q)
);
}
);
width = 543;
}
);
unicode = 78;
},
{
category = Letter;
glyphname = O;
layers = (
{
layerId = "746fec36-5ae7-46fb-b5cd-17efca425fb8";
name = Fore;
shapes = (
{
closed = 1;
nodes = (
(196,281,o),
(196,345.5,q),
(196,410,o),
(228.5,490.5,q),
(261,571,o),
(323,636.5,q),
(385,702,o),
(456,713,q),
(455,714,o),
(455,718,q),
(455,743,o),
(443.5,752.5,q),
(432,762,o),
(404,762,q),
(339,762,o),
(267,689.5,q),
(195,617,o),
(147.5,513,q),
(100,409,o),
(100,321,q),
(100,242,o),
(134,172,q),
(151,136,o),
(186,114,q),
(221,92,o),
(269,92,q),
(355,92,o),
(428,189,q),
(388,172,o),
(349,172,q),
(280,172,o),
(238,226.5,q)
);
},
{
closed = 1;
nodes = (
(448,263,o),
(480,273,q),
(542,399,o),
(542,507,q),
(542,566,o),
(515.5,609,q),
(489,652,o),
(439,652,q),
(375,652,o),
(324,580.5,q),
(273,509,o),
(273,428.5,q),
(273,348,o),
(320.5,305.5,q),
(368,263,o),
(417,263,q)
);
},
{
closed = 1;
nodes = (
(531,808,o),
(531,787.5,q),
(531,767,o),
(517,745.5,q),
(503,724,o),
(484,715,q),
(535,715,o),
(563,673.5,q),
(591,632,o),
(591,575,q),
(591,447,o),
(529,298,q),
(562,322,o),
(590,356,q),
(599,368,o),
(602.5,368,q),
(606,368,o),
(610,363.5,q),
(614,359,o),
(614,354,q),
(613,338,o),
(578,298,q),
(543,258,o),
(496,225,q),
(432,102,o),
(346,24,q),
(260,-54,o),
(175,-54,q),
(90,-54,o),
(45,11,q),
(0,76,o),
(0,175,q),
(0,274,o),
(32.5,374,q),
(65,474,o),
(117,555.5,q),
(169,637,o),
(231.5,702.5,q),
(294,768,o),
(358,804,q),
(422,840,o),
(474,840,q),
(494,840,o),
(512.5,824,q)
);
}
);
width = 530;
}
);
unicode = 79;
},
{
category = Letter;
glyphname = P;
layers = (
{
layerId = "746fec36-5ae7-46fb-b5cd-17efca425fb8";
name = Fore;
shapes = (
{
closed = 1;
nodes = (
(366,408,o),
(379,281,q),
(379,272,o),
(392,158.5,q),
(405,45,o),
(405,17,q),
(405,-11,o),
(389.5,-35.5,q),
(374,-60,o),
(345,-60,q),
(273,-60,o),
(192.5,10.5,q),
(112,81,o),
(57.5,189.5,q),
(3,298,o),
(3,397,q),
(3,525,o),
(48,627,q),
(93,729,o),
(187,792,q),
(281,855,o),
(411,855,q),
(536,855,o),
(596,745,q),
(626,691,o),
(626,634.5,q),
(626,578,o),
(613.5,525,q),
(601,472,o),
(580,433.5,q),
(559,395,o),
(537.5,364,q),
(516,333,o),
(492,311,q),
(451,274,o),
(438.5,267,q),
(426,260,o),
(419,260,q),
(402,260,o),
(402,281,q),
(402,292,o),
(417,299,q),
(536,383,o),
(536,512,q),
(536,578,o),
(515,627,q),
(494,676,o),
(470,703.5,q),
(446,731,o),
(405.5,749.5,q),
(365,768,o),
(314,768,q),
(194,768,o),
(125.5,681.5,q),
(57,595,o),
(57,470,q),
(57,381,o),
(102,288,q),
(147,195,o),
(213.5,135.5,q),
(280,76,o),
(341,76,q),
(354,76,o),
(357,103,q),
(356,123,o),
(346,188,q),
(323,349,o),
(323,561,q),
(323,581,o),
(332.5,595,q),
(342,609,o),
(360,609,q),
(366,609,o),
(366,582,q)
);
}
);
width = 484;
}
);
unicode = 80;
},
{
category = Letter;
glyphname = Q;
layers = (
{
layerId = "746fec36-5ae7-46fb-b5cd-17efca425fb8";
name = Fore;
shapes = (
{
closed = 1;
nodes = (
(326,367,o),
(359,348,q),
(399,326,o),
(471,298,q),
(517,401,o),
(517,484,q),
(517,650,o),
(407,650,q),
(350,650,o),
(309,598,q),
(268,546,o),
(268,487.5,q),
(268,429,o),
(310,384,q)
);
},
{
closed = 1;
nodes = (
(474,727,o),
(463.5,727,q),
(453,727,o),
(448,734,q),
(443,741,o),
(439,749,q),
(435,757,o),
(422.5,764,q),
(410,771,o),
(390,771,q),
(323,771,o),
(255.5,700,q),
(188,629,o),
(146,524.5,q),
(104,420,o),
(104,325,q),
(104,206,o),
(162,138,q),
(195,101,o),
(241,101,q),
(323,101,o),
(394,179,q),
(385,184,o),
(360,197,q),
(335,210,o),
(323.5,216,q),
(312,222,o),
(290.5,235.5,q),
(269,249,o),
(258.5,258,q),
(248,267,o),
(233,282,q),
(218,297,o),
(211,311,q),
(193,347,o),
(193,382,q),
(193,518,o),
(282,616,q),
(371,714,o),
(465,714,q),
(522,714,o),
(548,670.5,q),
(574,627,o),
(574,575,q),
(574,442,o),
(504,282,q),
(561,253,o),
(592.5,217.5,q),
(624,182,o),
(624,131.5,q),
(624,81,o),
(592.5,27,q),
(561,-27,o),
(522,-61.5,q),
(483,-96,o),
(464.5,-96,q),
(446,-96,o),
(446,-83,q),
(446,-75,o),
(453,-69,q),
(515,-21,o),
(515,42,q),
(515,105,o),
(437,154,q),
(378,62,o),
(306,7,q),
(234,-48,o),
(156,-48,q),
(105,-48,o),
(68,-10,q),
(1,59,o),
(1,198,q),
(1,283,o),
(39.5,395.5,q),
(78,508,o),
(139,609.5,q),
(200,711,o),
(286.5,781.5,q),
(373,852,o),
(458,852,q),
(519,852,o),
(519,806,q),
(516,778,o),
(495,752.5,q)
);
}
);
width = 651;
}
);
unicode = 81;
},
{
category = Letter;
glyphname = R;
layers = (
{
layerId = "746fec36-5ae7-46fb-b5cd-17efca425fb8";
name = Fore;
shapes = (
{
closed = 1;
nodes = (
(195,299,l),
(195,431,o),
(201,498,q),
(207,565,o),
(207,569,q),
(218,604,o),
(249,604,q),
(256,604,o),
(256,596,q),
(256,595,o),
(254,580,q),
(236,440,o),
(236,210,q),
(236,182,o),
(244,82,q),
(252,-18,o),
(251,-34.5,q),
(250,-51,o),
(235,-51,q),
(203,-48,o),
(164.5,-1,q),
(126,46,o),
(93,118,q),
(60,190,o),
(38,286,q),
(16,382,o),
(16,474,q),
(16,566,o),
(54,666,q),
(76,722,o),
(106.5,768,q),
(137,814,o),
(187,844.5,q),
(237,875,o),
(297,875,q),
(408,875,o),
(477.5,778.5,q),
(547,682,o),
(547,559,q),
(547,415,o),
(454,342,q),
(404,302,o),
(333,294,q),
(326,292,o),
(326,286,q),
(326,266,o),
(363.5,213.5,q),
(401,161,o),
(464.5,109.5,q),
(528,58,o),
(585,53,q),
(622,53,o),
(649,82,q),
(659,94,o),
(665,94,q),
(683,83,o),
(683,71,q),
(683,58,o),
(658,31.5,q),
(633,5,o),
(610,-12,q),
(557,-51,o),
(490.5,-51,q),
(424,-51,o),
(376.5,-11,q),
(329,29,o),
(304,94,q),
(255,221,o),
(255,362,q),
(255,377,o),
(266,377,q),
(270,376,o),
(280,368,q),
(309,345,o),
(348,341,q),
(393,341,o),
(416.5,379.5,q),
(440,418,o),
(440,481.5,q),
(440,545,o),
(417,611.5,q),
(394,678,o),
(342,728,q),
(290,778,o),
(222,778,q),
(169,778,o),
(115.5,699,q),
(62,620,o),
(62,510,q),
(62,426,o),
(95,323.5,q),
(128,221,o),
(191,140,q),
(192,140,l),
(195,140,o),
(195,148,q),
(196,173,l)
);
}
);
width = 681;
}
);
unicode = 82;
},
{
category = Letter;
glyphname = S;
layers = (
{
layerId = "746fec36-5ae7-46fb-b5cd-17efca425fb8";
name = Fore;
shapes = (
{
closed = 1;
nodes = (
(588,613,o),
(583.5,617.5,q),
(579,622,o),
(579,627,q),
(579,632,o),
(584,641,q),
(589,650,o),
(589,658,q),
(589,681,o),
(565.5,691.5,q),
(542,702,o),
(517,702,q),
(443,702,o),
(362.5,652,q),
(282,602,o),
(268,532,q),
(273,490,o),
(309.5,453.5,q),
(346,417,o),
(394,390.5,q),
(442,364,o),
(489,337,q),
(536,310,o),
(568,273,q),
(600,236,o),
(600,197.5,q),
(600,159,o),
(572,122.5,q),
(544,86,o),
(516.5,61,q),
(489,36,o),
(489,34.5,q),
(489,33,o),
(492,33,q),
(553,33,o),
(659,100,q),
(669,107,l),
(676,111,o),
(679.5,111,q),
(683,111,o),
(687,105,q),
(691,99,o),
(691,92,q),
(691,85,o),
(678,78,q),
(620,23,o),
(461.5,-27,q),
(303,-77,o),
(175,-77,q),
(0,-77,o),
(0,25,q),
(0,40,o),
(30,68,q),
(76,110,o),
(86,110,q),
(96,110,o),
(137,85,q),
(178,60,o),
(240,35,q),
(302,10,o),
(363,10,q),
(424,10,o),
(456.5,48,q),
(489,86,o),
(489,126,q),
(489,166,o),
(455,198,q),
(421,230,o),
(372.5,254.5,q),
(324,279,o),
(275,305,q),
(226,331,o),
(192,368,q),
(158,405,o),
(158,449,q),
(158,520,o),
(237,598,q),
(316,676,o),
(418,724,q),
(520,772,o),
(592,772,q),
(682,772,o),
(682,712,q),
(682,676,o),
(649.5,644.5,q),
(617,613,o),
(595,613,q)
);
}
);
width = 648;
}
);
unicode = 83;
},
{
category = Letter;
glyphname = T;
layers = (
{
layerId = "746fec36-5ae7-46fb-b5cd-17efca425fb8";
name = Fore;
shapes = (
{
closed = 1;
nodes = (
(454,40,l),
(398,40,o),
(363.5,121.5,q),
(329,203,o),
(329,329.5,q),
(329,456,o),
(357,597,q),
(357,605,o),
(347,605,q),
(322,603,o),
(315,589.5,q),
(308,576,o),
(292,521,q),
(276,466,o),
(257.5,366,q),
(239,266,o),
(239,164,q),
(239,62,o),
(264.5,2,q),
(290,-58,o),
(353,-58,q),
(395,-58,o),
(439.5,-30.5,q),
(484,-3,o),
(484,28,q),
(484,43,o),
(472,43,q)
);
},
{
closed = 1;
nodes = (
(144,694,o),
(327,744,q),
(510,794,o),
(648,801,q),
(670,798,o),
(670,778.5,q),
(670,759,o),
(658.5,728,q),
(647,697,o),
(629,696,q),
(535,690,o),
(320.5,634,q),
(106,578,o),
(20,516,q),
(14,513,o),
(9,513,q),
(0,513,o),
(0,530,q),
(0,547,o),
(13.5,589,q),
(27,631,o),
(34,635,q)
);
}
);
width = 524;
}
);
unicode = 84;
},
{
category = Letter;
glyphname = U;
layers = (
{
layerId = "746fec36-5ae7-46fb-b5cd-17efca425fb8";
name = Fore;
shapes = (
{
closed = 1;
nodes = (
(510,566,o),
(510,590,q),
(508,648,o),
(487,648,q),
(466,648,o),
(456,598.5,q),
(446,549,o),
(446,472,q),
(446,395,o),
(464,316,q),
(511,442,o),
(511,562,q)
);
},
{
closed = 1;
nodes = (
(102,574,o),
(102,371,q),
(102,341,o),
(107,293,q),
(112,245,o),
(122,217,q),
(132,189,o),
(147,162,q),
(179,104,o),
(250.5,104,q),
(322,104,o),
(382,174,q),
(371,234,o),
(371,303,q),
(383,494,o),
(425.5,620,q),
(468,746,o),
(522,746,q),
(561,746,o),
(561,644,q),
(561,570,o),
(538.5,469,q),
(516,368,o),
(475,273,q),
(502,176,o),
(550.5,113.5,q),
(599,51,o),
(668,51,q),
(686,51,o),
(702,63.5,q),
(718,76,o),
(725,76,q),
(732,76,o),
(738,68,q),
(744,60,o),
(744,52,q),
(744,24,o),
(687.5,-16.5,q),
(631,-57,o),
(559,-57,q),
(511,-57,o),
(465,-8.5,q),
(419,40,o),
(394,126,q),
(285,-29,o),
(153,-29,q),
(0,-29,o),
(0,211,q),
(0,341,o),
(40,494.5,q),
(80,648,o),
(131,729,q),
(144,750,o),
(170,750,q),
(179,750,o),
(179,740,q),
(179,734,o),
(176,725,q)
);
}
);
width = 744;
}
);
unicode = 85;
},
{
category = Letter;
glyphname = V;
layers = (
{
layerId = "746fec36-5ae7-46fb-b5cd-17efca425fb8";
name = Fore;
shapes = (
{
closed = 1;
nodes = (
(1,623,o),
(47.5,671.5,q),
(94,720,o),
(104,720,q),
(114,720,o),
(114,680,q),
(114,599,o),
(135.5,509.5,q),
(157,420,o),
(187,350,q),
(217,280,o),
(249,220,q),
(281,160,o),
(302.5,127.5,q),
(324,95,o),
(328,92,q),
(365,565,o),
(463,689,q),
(493,726,o),
(526,727,q),
(543,727,o),
(553,716,q),
(563,705,o),
(563,682,q),
(563,659,o),
(542.5,617.5,q),
(522,576,o),
(506,576,q),
(500,576,o),
(497,584.5,q),
(494,593,o),
(492,593,q),
(461,593,o),
(431,498,q),
(401,403,o),
(384,291.5,q),
(367,180,o),
(367,110,q),
(372,24,l),
(328,-32,o),
(312.5,-46.5,q),
(297,-61,o),
(288,-61,q),
(272,-61,o),
(226,14,q),
(180,89,o),
(130,192,q),
(80,295,o),
(41,417,q),
(2,539,o),
(1,620,q)
);
}
);
width = 429;
}
);
unicode = 86;
},
{
category = Letter;
glyphname = W;
layers = (
{
layerId = "746fec36-5ae7-46fb-b5cd-17efca425fb8";
name = Fore;
shapes = (
{
closed = 1;
nodes = (
(245,712,o),
(251,712,q),
(257,712,o),
(262.5,707,q),
(268,702,o),
(268,694.5,q),
(268,687,o),
(258,674,q),
(209,602,o),
(163,479,q),
(117,356,o),
(117,266.5,q),
(117,177,o),
(148,136,q),
(179,95,o),
(218.5,95,q),
(258,95,o),
(300,136,q),
(342,177,o),
(380,242,q),
(447,360,o),
(481,440,q),
(493,466,o),
(500,466,q),
(507,466,o),
(512.5,461,q),
(518,456,o),
(518,452,q),
(518,448,o),
(512.5,412,q),
(507,376,o),
(507,323,q),
(507,86,o),
(647,86,q),
(692,86,o),
(729,112.5,q),
(766,139,o),
(787,178,q),
(831,261,o),
(831,322.5,q),
(831,384,o),
(804.5,453,q),
(778,522,o),
(725.5,577.5,q),
(673,633,o),
(611,635,q),
(593,636,o),
(593,649,q),
(593,670,o),
(629,698.5,q),
(665,727,o),
(709,727,q),
(782,727,o),
(837.5,652.5,q),
(893,578,o),
(893,437,q),
(893,341,o),
(860,248.5,q),
(827,156,o),
(776.5,90.5,q),
(726,25,o),
(665.5,-15.5,q),
(605,-56,o),
(552,-56,q),
(517,-56,o),
(492,-37.5,q),
(467,-19,o),
(454,10,q),
(432,64,o),
(432,124,q),
(432,177,o),
(440,217,q),
(448,257,o),
(452,276.5,q),
(456,296,o),
(456,299.5,q),
(456,303,o),
(455,303,q),
(449,303,o),
(436,275.5,q),
(423,248,o),
(413,229,q),
(350,110,o),
(257,10,q),
(191,-61,o),
(122,-61,q),
(87,-61,o),
(48,-28,q),
(27,-10,o),
(14,26.5,q),
(1,63,o),
(1,119,q),
(1,175,o),
(29.5,270,q),
(58,365,o),
(110,474,q),
(183,629,o),
(239,705,q)
);
}
);
width = 860;
}
);
unicode = 87;
},
{
category = Letter;
glyphname = X;
layers = (
{
layerId = "746fec36-5ae7-46fb-b5cd-17efca425fb8";
name = Fore;
shapes = (
{
closed = 1;
nodes = (
(684,769,o),
(697,756,q),
(710,743,o),
(710,726,q),
(710,696,o),
(671,647.5,q),
(632,599,o),
(607,599,q),
(601,599,o),
(599.5,606.5,q),
(598,614,o),
(591,614,q),
(553,614,o),
(467,517.5,q),
(381,421,o),
(302,283,q),
(480,88,o),
(645,88,q),
(681,88,o),
(696,95.5,q),
(711,103,o),
(716,106,q),
(728,114,o),
(735.5,121,q),
(743,128,o),
(750.5,128,q),
(758,128,o),
(765.5,119,q),
(773,110,o),
(773,99.5,q),
(773,89,o),
(763,81,q),
(659,-27,o),
(533,-27,q),
(460,-27,o),
(389,13,q),
(318,53,o),
(236,157,q),
(183,42,o),
(159,-64,q),
(156,-77,o),
(151,-81,q),
(146,-85,o),
(132,-85,q),
(109,-85,o),
(109,-63,q),
(110,19,o),
(203,201,q),
(92,358,o),
(36,553,q),
(1,674,o),
(1,739,q),
(1,749,o),
(9.5,761,q),
(18,773,o),
(30,773,q),
(39,773,o),
(39,755,q),
(56,668,o),
(119,547,q),
(182,426,o),
(269,322,q),
(374,503,o),
(487.5,636,q),
(601,769,o),
(665,769,q)
);
}
);
width = 773;
}
);
unicode = 88;
},
{
category = Letter;
glyphname = Y;
layers = (
{
layerId = "746fec36-5ae7-46fb-b5cd-17efca425fb8";
name = Fore;
shapes = (
{
closed = 1;
nodes = (
(559,692,o),
(529,616.5,q),
(499,541,o),
(477,422,q),
(529,482,o),
(563.5,557.5,q),
(598,633,o),
(598,681,q),
(598,692,o),
(590,692,q)
);
},
{
closed = 1;
nodes = (
(470,-27,l),
(485,-29,o),
(486,-44,q),
(483,-106,o),
(449,-156,q),
(430,-183,o),
(407,-183,q),
(377,-183,o),
(377,-72,q),
(377,125,o),
(412,317,q),
(289,214,o),
(176,214,q),
(108,214,o),
(54.5,276.5,q),
(1,339,o),
(1,433,q),
(1,554,o),
(75,697,q),
(81,712,o),
(90.5,712,q),
(100,712,o),
(105,707,q),
(110,702,o),
(110,697,q),
(110,692,o),
(107,686,q),
(89,636,o),
(89,581.5,q),
(89,527,o),
(112,469,q),
(135,411,o),
(185.5,367.5,q),
(236,324,o),
(300,324,q),
(364,324,o),
(423,372,q),
(461,551,o),
(518.5,662.5,q),
(576,774,o),
(635,774,q),
(671,774,o),
(671,735,q),
(671,671,o),
(612.5,564,q),
(554,457,o),
(467,368,q),
(445,230,o),
(445,116.5,q),
(445,3,o),
(450,-16,q),
(452,-31,o),
(458,-31,q)
);
}
);
width = 530;
}
);
unicode = 89;
},
{
category = Letter;
glyphname = Z;
layers = (
{
layerId = "746fec36-5ae7-46fb-b5cd-17efca425fb8";
name = Fore;
shapes = (
{
closed = 1;
nodes = (
(415,126,o),
(514,69,q),
(613,12,o),
(647.5,12,q),
(682,12,o),
(702,23.5,q),
(722,35,o),
(731.5,46.5,q),
(741,58,o),
(744,58,q),
(752,58,o),
(758,45,q),
(764,32,o),
(764,27,q),
(764,-15,o),
(690.5,-54.5,q),
(617,-94,o),
(574,-94,q),
(531,-94,o),
(477.5,-73,q),
(424,-52,o),
(383,-28,q),
(272,39,o),
(246.5,39,q),
(221,39,o),
(186,8,q),
(151,-23,o),
(119.5,-54,q),
(88,-85,o),
(75.5,-85,q),
(63,-85,o),
(54,-75,q),
(45,-65,o),
(45,-56,q),
(45,-47,o),
(70.5,-19.5,q),
(96,8,o),
(144,44.5,q),
(192,81,o),
(240,103,q),
(261,147,o),
(322.5,281.5,q),
(384,416,o),
(385,417.5,q),
(386,419,o),
(405.5,460.5,q),
(425,502,o),
(432,516,q),
(439,530,o),
(458.5,568,q),
(478,606,o),
(490,626,q),
(530,687,o),
(551,708,q),
(551,711,o),
(548,711,q),
(545,711,o),
(540,708.5,q),
(535,706,o),
(484,684,q),
(433,662,o),
(397.5,647,q),
(362,632,o),
(304.5,608.5,q),
(247,585,o),
(206,571,q),
(99,535,o),
(57,535,q),
(0,535,o),
(0,577,q),
(0,593,o),
(15,608,q),
(30,623,o),
(41,632.5,q),
(52,642,o),
(63,650,q),
(102,681,o),
(109.5,681,q),
(117,681,o),
(123,676,q),
(129,671,o),
(129,664.5,q),
(129,658,o),
(114,646,q),
(99,634,o),
(99,630.5,q),
(99,627,o),
(107,627,q),
(130,627,o),
(337,691,q),
(600,772,o),
(626,790,q),
(642,801,o),
(650,801,q),
(658,801,o),
(663,790.5,q),
(668,780,o),
(668,767,q),
(668,754,o),
(657,750,q),
(589,722,o),
(494,544,q),
(446,454,o),
(301,125,q),
(331,133,o),
(358,133,q)
);
}
);
width = 765;
}
);
unicode = 90;
},
{
category = Letter;
glyphname = bracketleft;
layers = (
{
layerId = "746fec36-5ae7-46fb-b5cd-17efca425fb8";
name = Fore;
shapes = (
{
closed = 1;
nodes = (
(164,736,l),
(131,736,o),
(131,438,q),
(131,256,o),
(143.5,88.5,q),
(156,-79,o),
(172,-79,q),
(215,-74,l),
(224,-74,o),
(228.5,-97.5,q),
(233,-121,o),
(233,-144,q),
(233,-155,o),
(190.5,-160.5,q),
(148,-166,o),
(124,-166,q),
(110,-166,o),
(100,-2.5,q),
(90,161,o),
(90,361,q),
(90,561,o),
(102,695.5,q),
(114,830,o),
(138,830,q),
(156,830,o),
(194.5,821.5,q),
(233,813,o),
(233,801,q),
(233,778,o),
(228.5,753.5,q),
(224,729,o),
(215,729,q)
);
}
);
width = 253;
}
);
unicode = 91;
},
{
category = Letter;
glyphname = backslash;
layers = (
{
layerId = "746fec36-5ae7-46fb-b5cd-17efca425fb8";
name = Fore;
shapes = (
{
closed = 1;
nodes = (
(-2,620,o),
(117,329,q),
(236,38,o),
(278,-49,q),
(280,-55,o),
(280,-56,q),
(280,-61,o),
(271.5,-64,q),
(263,-67,o),
(258,-67,q),
(235,-67,o),
(222,-44,q),
(217,-33,o),
(85,292,q),
(-47,617,o),
(-71,665.5,q),
(-95,714,o),
(-95,723,q),
(-95,726,o),
(-83,728.5,q),
(-71,731,o),
(-64,731,q),
(-57,731,o),
(-48,718,q)
);
}
);
width = 312;
}
);
unicode = 92;
},
{
category = Letter;
glyphname = bracketright;
layers = (
{
layerId = "746fec36-5ae7-46fb-b5cd-17efca425fb8";
name = Fore;
shapes = (
{
closed = 1;
nodes = (
(152,-79,l),
(168,-79,o),
(180.5,88.5,q),
(193,256,o),
(193,438,q),
(193,736,o),
(160,736,q),
(109,729,l),
(100,729,o),
(95.5,753.5,q),
(91,778,o),
(91,801,q),
(91,813,o),
(129.5,821.5,q),
(168,830,o),
(186,830,q),
(210,830,o),
(222,695.5,q),
(234,561,o),
(234,361,q),
(234,161,o),
(224,-2.5,q),
(214,-166,o),
(200,-166,q),
(176,-166,o),
(133.5,-160.5,q),
(91,-155,o),
(91,-144,q),
(91,-121,o),
(95.5,-97.5,q),
(100,-74,o),
(109,-74,q)
);
}
);
width = 253;
}
);
unicode = 93;
},
{
category = Letter;
glyphname = asciicircum;
layers = (
{
layerId = "746fec36-5ae7-46fb-b5cd-17efca425fb8";
name = Fore;
shapes = (
{
closed = 1;
nodes = (
(130,75,o),
(84.5,75,q),
(39,75,o),
(39,93,q),
(39,104,o),
(65.5,113.5,q),
(92,123,o),
(108,137.5,q),
(124,152,o),
(130,164.5,q),
(136,177,o),
(146,186,q),
(156,195,o),
(171,195,q),
(186,195,o),
(196,186,q),
(206,177,o),
(212,164.5,q),
(218,152,o),
(234,137.5,q),
(250,123,o),
(276.5,113.5,q),
(303,104,o),
(303,93,q),
(303,75,o),
(257.5,75,q),
(212,75,o),
(171,111,q)
);
}
);
width = 329;
}
);
unicode = 94;
},
{
category = Letter;
glyphname = underscore;
layers = (
{
layerId = "746fec36-5ae7-46fb-b5cd-17efca425fb8";
name = Fore;
shapes = (
{
closed = 1;
nodes = (
(262,-16,l),
(294,-16,l),
(333,-16,o),
(333,-48,q),
(333,-62,o),
(308,-62,q),
(71,-62,o),
(33,-69,q),
(30,-69,o),
(27,-56.5,q),
(24,-44,o),
(24,-34,q),
(24,-12,o),
(46,-12,q),
(56,-12,l)
);
}
);
width = 370;
}
);
unicode = 95;
},
{
category = Letter;
glyphname = grave;
layers = (
{
layerId = "746fec36-5ae7-46fb-b5cd-17efca425fb8";
name = Fore;
shapes = (
{
closed = 1;
nodes = (
(51,386,o),
(60.5,398,q),
(70,410,o),
(90,410,q),
(110,410,o),
(121,400.5,q),
(132,391,o),
(136.5,378.5,q),
(141,366,o),
(160,350,q),
(179,334,o),
(209.5,324.5,q),
(240,315,o),
(240,300,q),
(240,288,o),
(225.5,288,q),
(211,288,o),
(191.5,290,q),
(172,292,o),
(135.5,298.5,q),
(99,305,o),
(75,324.5,q),
(51,344,o),
(51,373,q)
);
}
);
width = 305;
}
);
unicode = 96;
},
{
category = Letter;
glyphname = a;
layers = (
{
layerId = "746fec36-5ae7-46fb-b5cd-17efca425fb8";
name = Fore;
shapes = (
{
closed = 1;
nodes = (
(253,100,l),
(253,82,o),
(268.5,62.5,q),
(284,43,o),
(305,43,q),
(321,43,o),
(331,50,q),
(353,65,o),
(358.5,70.5,q),
(364,76,o),
(376.5,76,q),
(389,76,o),
(389,67,q),
(389,57,o),
(342,4,q),
(327,-13,o),
(298,-32,q),
(269,-51,o),
(246.5,-51,q),
(224,-51,o),
(212.5,-43.5,q),
(201,-36,o),
(196,-20,q),
(190,2,o),
(190,34,q),
(190,38,o),
(185,38,q),
(180,38,o),
(162,18,q),
(106,-40,o),
(71.5,-40,q),
(37,-40,o),
(18.5,-22,q),
(0,-4,o),
(0,24,q),
(0,73,o),
(26,117.5,q),
(52,162,o),
(88,189,q),
(168,248,o),
(212,248,q),
(278,246,o),
(278,201,q),
(278,185,o),
(264,169.5,q),
(250,154,o),
(238,154,q),
(226,154,o),
(205,175,q),
(184,196,o),
(159,196,q),
(134,196,o),
(118,175.5,q),
(102,155,o),
(102,123,q),
(102,71,o),
(157,71,q),
(179,71,o),
(193.5,82,q),
(208,93,o),
(214,106,q),
(231,140,o),
(245,140,q),
(257,140,o),
(257,128,q)
);
}
);
width = 358;
}
);
unicode = 97;
},
{
category = Letter;
glyphname = b;
layers = (
{
layerId = "746fec36-5ae7-46fb-b5cd-17efca425fb8";
name = Fore;
shapes = (
{
closed = 1;
nodes = (
(138,405,o),
(138,458,q),
(138,511,o),
(119,511,q),
(90,511,o),
(72,430,q),
(54,349,o),
(54,295.5,q),
(54,242,o),
(62,194,q),
(91,220,o),
(114.5,312.5,q)
);
},
{
closed = 1;
nodes = (
(63,-43,o),
(43.5,-24,q),
(24,-5,o),
(14.5,18,q),
(5,41,o),
(0,74,q),
(-17,184,o),
(18,344,q),
(39,445,o),
(76,516.5,q),
(113,588,o),
(151,588,q),
(167,588,o),
(176.5,568.5,q),
(186,549,o),
(186,533,q),
(185,437,o),
(147,323.5,q),
(109,210,o),
(69,161,q),
(100,52,o),
(166,52,q),
(182,52,o),
(202,61,q),
(163,75,o),
(163,118.5,q),
(163,162,o),
(195.5,203,q),
(228,244,o),
(263,244,q),
(274,244,o),
(281.5,235.5,q),
(289,227,o),
(289,215,q),
(289,203,o),
(284,190,q),
(279,177,o),
(279,163,q),
(279,134,o),
(317,134,q),
(330,134,o),
(348,145.5,q),
(366,157,o),
(372,157,q),
(385,157,o),
(385,147,q),
(385,137,o),
(366,119.5,q),
(347,102,o),
(311,83.5,q),
(275,65,o),
(237,60,q),
(194,-43,o),
(90,-43,q)
);
}
);
width = 308;
}
);
unicode = 98;
},
{
category = Letter;
glyphname = c;
layers = (
{
layerId = "746fec36-5ae7-46fb-b5cd-17efca425fb8";
name = Fore;
shapes = (
{
closed = 1;
nodes = (
(130,45,o),
(164.5,45,q),
(199,45,o),
(221.5,53.5,q),
(244,62,o),
(256,70.5,q),
(268,79,o),
(274,79,q),
(283,79,o),
(283,70,q),
(283,39,o),
(225,-3.5,q),
(167,-46,o),
(90,-46,q),
(41,-46,o),
(16.5,-21.5,q),
(-8,3,o),
(-8,43,q),
(-8,115,o),
(53.5,186.5,q),
(115,258,o),
(195,258,q),
(214,258,o),
(225.5,246.5,q),
(237,235,o),
(237,213.5,q),
(237,192,o),
(212.5,165.5,q),
(188,139,o),
(163,139,q),
(156,139,o),
(156,146,q),
(156,153,o),
(163.5,161,q),
(171,169,o),
(171,180.5,q),
(171,192,o),
(163.5,203,q),
(156,214,o),
(147,214,q),
(120,214,o),
(104,189.5,q),
(88,165,o),
(88,129.5,q),
(88,94,o),
(109,69.5,q)
);
}
);
width = 269;
}
);
unicode = 99;
},
{
category = Letter;
glyphname = d;
layers = (
{
layerId = "746fec36-5ae7-46fb-b5cd-17efca425fb8";
name = Fore;
shapes = (
{
closed = 1;
nodes = (
(228,256,o),
(249,178,q),
(274,242,o),
(290.5,321.5,q),
(307,401,o),
(307,434,q),
(307,540,o),
(280,540,q),
(257,540,o),
(242.5,482.5,q),
(228,425,o),
(228,379,q)
);
},
{
closed = 1;
nodes = (
(414,61,l),
(427,61,o),
(427,50,q),
(427,41,o),
(410,22.5,q),
(393,4,o),
(361,-16,q),
(329,-36,o),
(299,-36,q),
(233,-36,o),
(204,36,q),
(146,-35,o),
(72,-35,q),
(34,-35,o),
(17,-7.5,q),
(0,20,o),
(0,61,q),
(0,116,o),
(60.5,174,q),
(121,232,o),
(156,232,q),
(165,232,o),
(168,221,q),
(168,213,o),
(142,196,q),
(103,172,o),
(103,134,q),
(103,92,o),
(126,80,q),
(143,70,o),
(157.5,70,q),
(172,70,o),
(189,84,q),
(178,138,o),
(178,214.5,q),
(178,291,o),
(190.5,376.5,q),
(203,462,o),
(231.5,532,q),
(260,602,o),
(296,602,q),
(319,602,o),
(330,570,q),
(341,538,o),
(341,491,q),
(341,444,o),
(321.5,335.5,q),
(302,227,o),
(263,137,q),
(300,51,o),
(376,51,q)
);
}
);
width = 427;
}
);
unicode = 100;
},
{
category = Letter;
glyphname = e;
layers = (
{
layerId = "746fec36-5ae7-46fb-b5cd-17efca425fb8";
name = Fore;
shapes = (
{
closed = 1;
nodes = (
(134,186,o),
(134,207,q),
(134,228,o),
(118,229,q),
(94,229,o),
(84,207.5,q),
(74,186,o),
(74,160.5,q),
(74,135,o),
(82,115,q),
(99,121,o),
(116.5,153.5,q)
);
},
{
closed = 1;
nodes = (
(196,50,o),
(214.5,62.5,q),
(233,75,o),
(249.5,95,q),
(266,115,o),
(275.5,115,q),
(285,115,o),
(285,106,q),
(285,100,o),
(281,92,q),
(248,39,o),
(199,-1.5,q),
(150,-42,o),
(95,-42,q),
(40,-42,o),
(15.5,-15.5,q),
(-9,11,o),
(-9,55,q),
(-9,131,o),
(48,210.5,q),
(105,290,o),
(166,290,q),
(198,290,o),
(198,264,q),
(198,229,o),
(176,191.5,q),
(154,154,o),
(95,90,q),
(122,50,o),
(168,50,q)
);
}
);
width = 241;
}
);
unicode = 101;
},
{
category = Letter;
glyphname = f;
layers = (
{
layerId = "746fec36-5ae7-46fb-b5cd-17efca425fb8";
name = Fore;
shapes = (
{
closed = 1;
nodes = (
(168,471,o),
(161.5,484,q),
(155,497,o),
(147,497,q),
(115,497,o),
(105,322,q),
(100,253,o),
(97,183,q),
(168,359,o),
(168,458,q)
);
},
{
closed = 1;
nodes = (
(-24,-17,o),
(-24,-7.5,q),
(-24,2,o),
(-17,10,q),
(-11,18,o),
(2,34,q),
(33,69,o),
(37,75,q),
(41,81,o),
(47,81,q),
(53,81,o),
(59,79,q),
(65,503,o),
(122,583,q),
(137,605,o),
(157,605,q),
(209,605,o),
(209,524,q),
(209,443,o),
(169.5,320,q),
(130,197,o),
(95,129,q),
(94,102,o),
(94,61,q),
(93,54,l),
(115,41,o),
(143.5,41,q),
(172,41,o),
(187,50,q),
(202,59,o),
(209,59,q),
(216,59,o),
(216,52,q),
(216,16,o),
(170.5,-21,q),
(125,-58,o),
(87,-59,q),
(86,-81,l),
(91,-87,o),
(98.5,-97.5,q),
(106,-108,o),
(119,-145,q),
(132,-182,o),
(132,-228.5,q),
(132,-275,o),
(111.5,-318,q),
(91,-361,o),
(69,-361,q),
(50,-361,o),
(49,-347,q),
(47,-321,o),
(47,-289.5,q),
(47,-258,o),
(52,-177,q),
(57,-96,o),
(57,-89,q),
(57,-57,l),
(22,-52,o),
(-1,-34.5,q)
);
}
);
width = 219;
}
);
unicode = 102;
},
{
category = Letter;
glyphname = g;
layers = (
{
layerId = "746fec36-5ae7-46fb-b5cd-17efca425fb8";
name = Fore;
shapes = (
{
closed = 1;
nodes = (
(169,-215,o),
(169,-265,q),
(169,-315,o),
(196,-318,q),
(219,-318,o),
(219,-176,q),
(219,-127,o),
(218,-97,q),
(187,-143,o),
(178,-179,q)
);
},
{
closed = 1;
nodes = (
(216,-30,o),
(216,36,q),
(214,36,o),
(201.5,23.5,q),
(189,11,o),
(173.5,-3.5,q),
(158,-18,o),
(134.5,-30.5,q),
(111,-43,o),
(80,-43,q),
(49,-43,o),
(29.5,-24,q),
(10,-5,o),
(10,27,q),
(10,96,o),
(77.5,169.5,q),
(145,243,o),
(225,243,q),
(250,243,o),
(265.5,231.5,q),
(281,220,o),
(281,202,q),
(281,186,o),
(269,172,q),
(248,148,o),
(216,148,q),
(204,148,o),
(204,155,q),
(204,159,o),
(206.5,164,q),
(209,169,o),
(209,177,q),
(209,197,o),
(190,197,q),
(159,197,o),
(138,170,q),
(117,143,o),
(117,117,q),
(117,91,o),
(129.5,78.5,q),
(142,66,o),
(158,66,q),
(174,66,o),
(195,81,q),
(216,96,o),
(222,115,q),
(229,141,o),
(253,141,q),
(262,141,o),
(262,127.5,q),
(262,114,o),
(255.5,90.5,q),
(249,67,o),
(246.5,48.5,q),
(244,30,o),
(244,-30,q),
(305,42,o),
(355,88,q),
(366,99,o),
(377,99,q),
(388,99,o),
(388,91.5,q),
(388,84,o),
(377,74,q),
(290,-5,o),
(245,-61,q),
(247,-133,o),
(247,-178,q),
(247,-301,o),
(228.5,-375.5,q),
(210,-450,o),
(158,-450,q),
(125,-450,o),
(107,-418.5,q),
(89,-387,o),
(89,-333,q),
(89,-224,o),
(218,-62,q)
);
}
);
width = 324;
}
);
unicode = 103;
},
{
category = Letter;
glyphname = h;
layers = (
{
layerId = "746fec36-5ae7-46fb-b5cd-17efca425fb8";
name = Fore;
shapes = (
{
closed = 1;
nodes = (
(37,567,o),
(37,296,q),
(37,236,l),
(63,302,o),
(85.5,382,q),
(108,462,o),
(108,514.5,q),
(108,567,o),
(78,567,q)
);
},
{
closed = 1;
nodes = (
(57,49,o),
(105,115,q),
(153,181,o),
(166,181.5,q),
(179,182,o),
(192,160,q),
(205,138,o),
(217.5,111.5,q),
(230,85,o),
(258,62.5,q),
(286,40,o),
(314,40,q),
(342,40,o),
(348,44,q),
(354,48,o),
(357.5,48,q),
(361,48,o),
(361,40,q),
(360,20,o),
(329,-8.5,q),
(298,-37,o),
(247,-37,q),
(161,-37,o),
(127,62,q),
(124,68,o),
(121.5,68,q),
(119,68,o),
(114,64,q),
(109,60,o),
(93,41,q),
(77,22,o),
(60.5,2,q),
(44,-18,o),
(40,-22,q),
(36,-26,o),
(25,-26,q),
(14,-26,o),
(13,-14,q),
(4,76,o),
(4,174.5,q),
(4,273,o),
(6.5,327,q),
(9,381,o),
(17,466,q),
(25,551,o),
(45.5,605,q),
(66,659,o),
(97,659,q),
(162,659,o),
(162,568,q),
(162,490,o),
(120,371.5,q),
(78,253,o),
(39,184,q),
(43,49,o),
(47,49,q)
);
}
);
width = 330;
}
);
unicode = 104;
},
{
category = Letter;
glyphname = i;
layers = (
{
layerId = "746fec36-5ae7-46fb-b5cd-17efca425fb8";
name = Fore;
shapes = (
{
closed = 1;
nodes = (
(10,378,o),
(25.5,395,q),
(41,412,o),
(64,412,q),
(87,412,o),
(102.5,395,q),
(118,378,o),
(118,353,q),
(118,328,o),
(102.5,311,q),
(87,294,o),
(64,294,q),
(41,294,o),
(25.5,311,q),
(10,328,o),
(10,353,q)
);
},
{
closed = 1;
nodes = (
(243,101,o),
(251,101,q),
(265,101,o),
(265,83,q),
(265,58,o),
(203,8.5,q),
(141,-41,o),
(96,-41,q),
(51,-41,o),
(26,-9,q),
(1,23,o),
(1,73.5,q),
(1,124,o),
(18,171,q),
(35,218,o),
(52,218,q),
(60,217,o),
(60,193.5,q),
(60,170,o),
(67,142,q),
(74,114,o),
(97.5,88.5,q),
(121,63,o),
(158.5,63,q),
(196,63,o),
(233,93,q)
);
}
);
width = 234;
}
);
unicode = 105;
},
{
category = Letter;
glyphname = j;
layers = (
{
layerId = "746fec36-5ae7-46fb-b5cd-17efca425fb8";
name = Fore;
shapes = (
{
closed = 1;
nodes = (
(30,378,o),
(45.5,395,q),
(61,412,o),
(84,412,q),
(107,412,o),
(122.5,395,q),
(138,378,o),
(138,353,q),
(138,328,o),
(122.5,311,q),
(107,294,o),
(84,294,q),
(61,294,o),
(45.5,311,q),
(30,328,o),
(30,353,q)
);
},
{
closed = 1;
nodes = (
(75,-293,o),
(75,-233,q),
(75,-173,o),
(69,-23,q),
(33,-26,o),
(4,-56.5,q),
(-25,-87,o),
(-25,-133.5,q),
(-25,-180,o),
(-2,-236.5,q),
(21,-293,o),
(56,-293,q)
);
},
{
closed = 1;
nodes = (
(65,170,o),
(61.5,170,q),
(58,170,o),
(51,161,q),
(44,152,o),
(33.5,152,q),
(23,152,o),
(23,159,q),
(23,166,o),
(32,176.5,q),
(41,187,o),
(50.5,210,q),
(60,233,o),
(67,247,q),
(74,261,o),
(83.5,261,q),
(93,261,o),
(99,251.5,q),
(105,242,o),
(105,235,q),
(105,228,o),
(100.5,212,q),
(96,196,o),
(96,182,q),
(96,82,o),
(97,40,q),
(134,53,o),
(162.5,53,q),
(191,53,o),
(207.5,34,q),
(224,15,o),
(224,-8.5,q),
(224,-32,o),
(199.5,-62.5,q),
(175,-93,o),
(163.5,-93,q),
(152,-93,o),
(147,-80,q),
(144,-76,o),
(138.5,-67,q),
(133,-58,o),
(130.5,-54.5,q),
(128,-51,o),
(123.5,-45,q),
(119,-39,o),
(116,-36,q),
(107,-29,o),
(100,-26,q),
(108,-269,o),
(108,-308,q),
(108,-401,o),
(30,-401,q),
(-10,-401,o),
(-44.5,-356.5,q),
(-79,-312,o),
(-79,-231,q),
(-79,-150,o),
(-38,-78.5,q),
(3,-7,o),
(67,27,q),
(65,69,o),
(65,153,q),
(65,164,l)
);
}
);
width = 228;
}
);
unicode = 106;
},
{
category = Letter;
glyphname = k;
layers = (
{
layerId = "746fec36-5ae7-46fb-b5cd-17efca425fb8";
name = Fore;
shapes = (
{
closed = 1;
nodes = (
(103,444,o),
(103,481,q),
(103,518,o),
(96.5,535,q),
(90,552,o),
(81,552,q),
(48,552,o),
(37,368,q),
(37,229,l),
(61,289,o),
(82,366.5,q)
);
},
{
closed = 1;
nodes = (
(298,122,o),
(293.5,116.5,q),
(289,111,o),
(282,103.5,q),
(275,96,o),
(252,83.5,q),
(229,71,o),
(205,71,q),
(162,71,o),
(131.5,105.5,q),
(101,140,o),
(101,157.5,q),
(101,175,o),
(96,177,q),
(91,177,o),
(83,162,q),
(62,123,o),
(62,70.5,q),
(62,18,o),
(90.5,-11.5,q),
(119,-41,o),
(151,-41,q),
(206,-41,o),
(261,16.5,q),
(316,74,o),
(316,103,q),
(316,122,o),
(303,122,q)
);
},
{
closed = 1;
nodes = (
(38,175,l),
(38,163,o),
(40.5,163,q),
(43,163,o),
(47,167,q),
(69,230,o),
(102,276.5,q),
(135,323,o),
(174,323,q),
(209,323,o),
(209,276,q),
(209,259,o),
(192.5,229.5,q),
(176,200,o),
(161,200,q),
(155,200,o),
(149,209.5,q),
(143,219,o),
(128,219,q),
(99,219,o),
(79,193.5,q),
(59,168,o),
(50,128,q),
(36,60,o),
(36,-2,q),
(36,-32,o),
(9,-32,q),
(4,-32,o),
(4,-23,q),
(8,42,o),
(8,140,q),
(8,282,l),
(8,467,o),
(21,534,q),
(36,608,o),
(59,630,q),
(73,643,o),
(92,643,q),
(146,643,o),
(146,562,q),
(146,481,o),
(108.5,363,q),
(71,245,o),
(38,181,q)
);
}
);
width = 271;
}
);
unicode = 107;
},
{
category = Letter;
glyphname = l;
layers = (
{
layerId = "746fec36-5ae7-46fb-b5cd-17efca425fb8";
name = Fore;
shapes = (
{
closed = 1;
nodes = (
(45,424,o),
(45,357,q),
(45,290,o),
(59,225,q),
(128,328,o),
(128,501,q),
(128,526,o),
(120.5,540,q),
(113,554,o),
(102,554,q),
(74,554,o),
(59.5,489,q)
);
},
{
closed = 1;
nodes = (
(215,68,o),
(245,80,q),
(275,92,o),
(286,92,q),
(297,92,o),
(297,82,q),
(297,59,o),
(234.5,14.5,q),
(172,-30,o),
(134,-30,q),
(96,-30,o),
(72,-18,q),
(48,-6,o),
(33.5,17.5,q),
(19,41,o),
(10,64,q),
(1,87,o),
(-2,120,q),
(-8,171,o),
(-8,239,q),
(-8,307,o),
(10,402,q),
(28,497,o),
(60.5,563,q),
(93,629,o),
(129,631,q),
(139,630,o),
(145.5,627.5,q),
(152,625,o),
(158.5,610.5,q),
(165,596,o),
(165,569,q),
(165,323,o),
(68,191,q),
(108,68,o),
(199,68,q)
);
}
);
width = 256;
}
);
unicode = 108;
},
{
category = Letter;
glyphname = m;
layers = (
{
layerId = "746fec36-5ae7-46fb-b5cd-17efca425fb8";
name = Fore;
shapes = (
{
closed = 1;
nodes = (
(230,73,o),
(220.5,73,q),
(211,73,o),
(194.5,48,q),
(178,23,o),
(159,-2.5,q),
(140,-28,o),
(124,-28,q),
(115,-28,o),
(96.5,4,q),
(78,36,o),
(56,67.5,q),
(34,99,o),
(17,99,q),
(12,99,o),
(12,104,q),
(12,120,o),
(50,162,q),
(88,204,o),
(104.5,204,q),
(121,204,o),
(153.5,152,q),
(186,100,o),
(197,100,q),
(208,100,o),
(241.5,141,q),
(275,182,o),
(294.5,182,q),
(314,182,o),
(323.5,166.5,q),
(333,151,o),
(334.5,133,q),
(336,115,o),
(338,99.5,q),
(340,84,o),
(346,84,q),
(356,84,o),
(397.5,133.5,q),
(439,183,o),
(458,183,q),
(479,183,o),
(528,120,q),
(546,96,o),
(573.5,76.5,q),
(601,57,o),
(619,57,q),
(637,57,o),
(654,63,q),
(671,69,o),
(683,69,q),
(695,69,o),
(695,61,q),
(695,57,o),
(691.5,54,q),
(688,51,o),
(674.5,38.5,q),
(661,26,o),
(652.5,19,q),
(644,12,o),
(628.5,-0.5,q),
(613,-13,o),
(602,-20,q),
(572,-38,o),
(545.5,-38,q),
(519,-38,o),
(486.5,-8.5,q),
(454,21,o),
(430.5,50.5,q),
(407,80,o),
(396,80,q),
(385,80,o),
(360.5,50,q),
(336,20,o),
(310.5,-10,q),
(285,-40,o),
(266.5,-40,q),
(248,-40,o),
(238.5,-23,q),
(229,-6,o),
(229,14,q),
(230,30,l)
);
}
);
width = 658;
}
);
unicode = 109;
},
{
category = Letter;
glyphname = n;
layers = (
{
layerId = "746fec36-5ae7-46fb-b5cd-17efca425fb8";
name = Fore;
shapes = (
{
closed = 1;
nodes = (
(10,102,o),
(41,138.5,q),
(72,175,o),
(91.5,175,q),
(111,175,o),
(120.5,160,q),
(130,145,o),
(132,127,q),
(134,109,o),
(143.5,94,q),
(153,79,o),
(171.5,79,q),
(190,79,o),
(204.5,95.5,q),
(219,112,o),
(228,132.5,q),
(237,153,o),
(252,169.5,q),
(267,186,o),
(281.5,186,q),
(296,186,o),
(302,174,q),
(364,41,o),
(428,41,q),
(438,41,o),
(446,44,q),
(454,47,o),
(458,47,q),
(470,47,o),
(470,28,q),
(470,-6,o),
(434.5,-33,q),
(399,-60,o),
(362,-60,q),
(325,-60,o),
(299.5,-36,q),
(274,-12,o),
(264.5,13.5,q),
(255,39,o),
(250.5,63,q),
(246,87,o),
(241,87,q),
(233,87,o),
(209.5,55.5,q),
(186,24,o),
(156.5,-8,q),
(127,-40,o),
(104,-40,q),
(80,-37,o),
(66,-16.5,q),
(52,4,o),
(48,26,q),
(39,86,o),
(10,86,q)
);
}
);
width = 444;
}
);
unicode = 110;
},
{
category = Letter;
glyphname = o;
layers = (
{
layerId = "746fec36-5ae7-46fb-b5cd-17efca425fb8";
name = Fore;
shapes = (
{
closed = 1;
nodes = (
(176,105,o),
(149,129,q),
(122,153,o),
(118,190,q),
(102,178,o),
(102,145.5,q),
(102,113,o),
(120.5,88.5,q),
(139,64,o),
(166.5,64,q),
(194,64,o),
(208.5,78,q),
(223,92,o),
(223,105,q)
);
},
{
closed = 1;
nodes = (
(265,163,o),
(269.5,163,q),
(274,163,o),
(285,168.5,q),
(296,174,o),
(304,174,q),
(312,174,o),
(312,164,q),
(312,154,o),
(290.5,131,q),
(269,108,o),
(254,108,q),
(233,51,o),
(184.5,2.5,q),
(136,-46,o),
(85,-46,q),
(49,-46,o),
(25,-22.5,q),
(1,1,o),
(1,46.5,q),
(1,92,o),
(39,145.5,q),
(77,199,o),
(117,199,q),
(117,203,l),
(117,225,o),
(132,238.5,q),
(147,252,o),
(169,252,q),
(237,252,o),
(262,172,q)
);
}
);
width = 280;
}
);
unicode = 111;
},
{
category = Letter;
glyphname = p;
layers = (
{
layerId = "746fec36-5ae7-46fb-b5cd-17efca425fb8";
name = Fore;
shapes = (
{
closed = 1;
nodes = (
(114,135,o),
(101,32,q),
(127,1,o),
(162,1,q),
(178,1,o),
(198,11,q),
(206,35,o),
(206,61,q),
(206,87,o),
(185,111,q),
(164,135,o),
(142,135,q)
);
},
{
closed = 1;
nodes = (
(69,203,l),
(69,209,o),
(65.5,209,q),
(62,209,o),
(55.5,200,q),
(49,191,o),
(38,191,q),
(27,191,o),
(27,198,q),
(27,205,o),
(36,215.5,q),
(45,226,o),
(56.5,253.5,q),
(68,281,o),
(77,299.5,q),
(86,318,o),
(94,318,q),
(105,318,o),
(111,308.5,q),
(117,299,o),
(117,291,q),
(117,283,o),
(108,237,q),
(99,191,o),
(99,169.5,q),
(99,148,o),
(104,148,q),
(106,148,o),
(122.5,169.5,q),
(139,191,o),
(162.5,212.5,q),
(186,234,o),
(206,234,q),
(280,234,o),
(280,149,q),
(280,90,o),
(247,41,q),
(297,76,o),
(338,114,q),
(352,127,l),
(364,127,o),
(364,120,q),
(364,103,o),
(321.5,63.5,q),
(279,24,o),
(212.5,-15,q),
(146,-54,o),
(90,-66,q),
(88,-116,o),
(88,-147,q),
(88,-178,o),
(91.5,-202.5,q),
(95,-227,o),
(95,-238.5,q),
(95,-250,o),
(86,-257.5,q),
(77,-265,o),
(67,-265,q),
(54,-265,o),
(53,-248,q),
(52,-231,o),
(52,-165,q),
(52,-99,o),
(53,-71,q),
(26,-71,o),
(10,-46.5,q),
(-6,-22,o),
(-6,0,q),
(-6,22,o),
(13.5,49,q),
(33,76,o),
(62,77,q)
);
}
);
width = 316;
}
);
unicode = 112;
},
{
category = Letter;
glyphname = q;
layers = (
{
layerId = "746fec36-5ae7-46fb-b5cd-17efca425fb8";
name = Fore;
shapes = (
{
closed = 1;
nodes = (
(188,27,l),
(188,56,o),
(181.5,56,q),
(175,56,o),
(165.5,43.5,q),
(156,31,o),
(146.5,15.5,q),
(137,0,o),
(114.5,-12.5,q),
(92,-25,o),
(62,-25,q),
(4,-25,o),
(4,35,q),
(4,78,o),
(32,129,q),
(60,180,o),
(111,218.5,q),
(162,257,o),
(216,257,q),
(229,257,o),
(229,248,q),
(229,233,o),
(209,216.5,q),
(189,200,o),
(166,188,q),
(102,157,o),
(102,137.5,q),
(102,118,o),
(114,99,q),
(126,80,o),
(146.5,80,q),
(167,80,o),
(184,94.5,q),
(201,109,o),
(204,124,q),
(223,243,o),
(270,243,q),
(282,242,o),
(282,224.5,q),
(282,207,o),
(257,164.5,q),
(232,122,o),
(228,112,q),
(224,102,o),
(224,89.5,q),
(224,77,o),
(226.5,77,q),
(229,77,o),
(244.5,90.5,q),
(260,104,o),
(270.5,104,q),
(281,104,o),
(297.5,87.5,q),
(314,71,o),
(330.5,71,q),
(347,71,o),
(371,88,q),
(388,83,o),
(388,71,q),
(388,44,o),
(343,12.5,q),
(298,-19,o),
(266,-30,q),
(295,-102,o),
(295,-139.5,q),
(295,-177,o),
(293.5,-199,q),
(292,-221,o),
(287,-246,q),
(277,-298,o),
(240,-298,q),
(182,-298,o),
(182,-138,q)
);
}
);
width = 364;
}
);
unicode = 113;
},
{
category = Letter;
glyphname = r;
layers = (
{
layerId = "746fec36-5ae7-46fb-b5cd-17efca425fb8";
name = Fore;
shapes = (
{
closed = 1;
nodes = (
(-16,129,l),
(-34,129,o),
(-34,138,q),
(-34,152,o),
(1.5,191.5,q),
(37,231,o),
(65,231,q),
(77,231,o),
(86.5,224,q),
(96,217,o),
(97,207,q),
(102,162,l),
(105,158,o),
(108,158,q),
(111,158,o),
(124,174,q),
(166,223,o),
(199,223,q),
(212,223,o),
(220,219,q),
(228,215,o),
(238.5,203.5,q),
(249,192,o),
(250,191,q),
(257,194,o),
(264,194,q),
(275,194,o),
(275,180.5,q),
(275,167,o),
(236,130.5,q),
(197,94,o),
(178,94,q),
(159,94,o),
(146,111,q),
(133,128,o),
(127,128,q),
(104,128,o),
(104,104,q),
(104,86,o),
(120.5,43,q),
(137,0,o),
(137,-8,q),
(137,-28,o),
(116.5,-39.5,q),
(96,-51,o),
(71.5,-51,q),
(47,-51,o),
(32,-43,q),
(17,-35,o),
(17,-21,q),
(45,100,l),
(45,131,o),
(11,131,q)
);
}
);
width = 216;
}
);
unicode = 114;
},
{
category = Letter;
glyphname = s;
layers = (
{
layerId = "746fec36-5ae7-46fb-b5cd-17efca425fb8";
name = Fore;
shapes = (
{
closed = 1;
nodes = (
(314,88,o),
(325,100,q),
(336,111,l),
(343,118,o),
(350,118,q),
(362,118,o),
(362,104,q),
(362,99,o),
(361,96,q),
(335,33,o),
(265,-5.5,q),
(195,-44,o),
(140,-44,q),
(33,-44,o),
(33,40,q),
(33,51,o),
(59,75,q),
(85,99,o),
(97,105,q),
(105,111,o),
(109.5,111,q),
(114,111,o),
(117,107,q),
(120,103,o),
(124,97,q),
(128,91,o),
(131,87,q),
(134,83,o),
(139,76,q),
(144,69,o),
(149.5,64.5,q),
(155,60,o),
(162,56,q),
(175,46,o),
(189.5,46,q),
(204,46,o),
(204,63,q),
(204,105,o),
(173,135.5,q),
(142,166,o),
(121,166,q),
(116,166,o),
(111,160,q),
(74,123,l),
(65,114,o),
(61,114,q),
(46,114,o),
(46,127,q),
(153,258,o),
(173,258,q),
(201,258,o),
(237,220,q),
(273,182,o),
(273,144,q),
(273,108,o),
(267.5,89,q),
(262,70,o),
(262,67,q),
(262,64,o),
(270,64,q),
(278,64,o),
(296,76,q)
);
}
);
width = 317;
}
);
unicode = 115;
},
{
category = Letter;
glyphname = t;
layers = (
{
layerId = "746fec36-5ae7-46fb-b5cd-17efca425fb8";
name = Fore;
shapes = (
{
closed = 1;
nodes = (
(-171,327,o),
(-139,337,q),
(-90,358,o),
(21,402,q),
(41,554,o),
(81,554,q),
(107,554,o),
(107,471,q),
(107,447,o),
(106,435,q),
(258,493,o),
(310,506,q),
(362,519,o),
(393,519,q),
(440,519,o),
(440,485,q),
(440,474,o),
(426,467,q),
(364,436,o),
(349,436,q),
(346,436,o),
(339,440.5,q),
(332,445,o),
(323,445,q),
(314,445,o),
(286,438,q),
(229,423,o),
(99,380,q),
(87,302,o),
(64,268,q),
(68,154,o),
(94,114,q),
(106,95,o),
(128.5,81,q),
(151,67,o),
(184,67,q),
(217,67,o),
(249,97,q),
(255,103,o),
(259,103,q),
(267,103,o),
(267,90,q),
(267,48,o),
(211,5.5,q),
(155,-37,o),
(104,-37,q),
(3,-37,o),
(3,127,q),
(3,230,o),
(15,349,q),
(-68,317,o),
(-107.5,297,q),
(-147,277,o),
(-154,277,q),
(-161,277,o),
(-166,287,q),
(-171,297,o),
(-171,307,q)
);
}
);
width = 238;
}
);
unicode = 116;
},
{
category = Letter;
glyphname = u;
layers = (
{
layerId = "746fec36-5ae7-46fb-b5cd-17efca425fb8";
name = Fore;
shapes = (
{
closed = 1;
nodes = (
(463,61,o),
(407.5,14.5,q),
(352,-32,o),
(310,-32,q),
(231,-32,o),
(227,65,q),
(227,74,o),
(223,74,q),
(221,74,o),
(202.5,50,q),
(184,26,o),
(151.5,1.5,q),
(119,-23,o),
(84.5,-23,q),
(50,-23,o),
(29.5,-2,q),
(9,19,o),
(9,54.5,q),
(9,90,o),
(30,148,q),
(51,206,o),
(71,206,q),
(81,205,o),
(87.5,196,q),
(94,187,o),
(94.5,176,q),
(95,165,o),
(99,149,q),
(103,133,o),
(121,113.5,q),
(139,94,o),
(168,94,q),
(218,94,o),
(250,180,q),
(250,181,o),
(252,185.5,q),
(254,190,o),
(255,192.5,q),
(256,195,o),
(258,199.5,q),
(260,204,o),
(262,206,q),
(276,217,o),
(285,206,q),
(291,198,o),
(292,177,q),
(292,145,o),
(319.5,114.5,q),
(347,84,o),
(391,84,q),
(435,84,o),
(461,110,q),
(471,122,o),
(481,122,q),
(488,122,o),
(488,114,q),
(488,106,o),
(483,97,q)
);
}
);
width = 447;
}
);
unicode = 117;
},
{
category = Letter;
glyphname = v;
layers = (
{
layerId = "746fec36-5ae7-46fb-b5cd-17efca425fb8";
name = Fore;
shapes = (
{
closed = 1;
nodes = (
(20,168,o),
(33,197,q),
(44,216,o),
(61.5,216,q),
(79,216,o),
(89,196,q),
(99,176,o),
(103.5,152.5,q),
(108,129,o),
(122,109,q),
(136,89,o),
(162.5,89,q),
(189,89,o),
(189,114,q),
(171,126,o),
(150,149,q),
(129,172,o),
(129,192,q),
(129,212,o),
(153.5,247.5,q),
(178,283,o),
(190,283,q),
(198,283,o),
(203,271.5,q),
(208,260,o),
(208,253,q),
(208,233,o),
(232,214,q),
(256,195,o),
(293,195,q),
(299,204,o),
(306,204,q),
(316,202,o),
(316,185.5,q),
(316,169,o),
(288,145.5,q),
(260,122,o),
(225,111,q),
(219,107,o),
(218,103.5,q),
(217,100,o),
(210,73,q),
(203,46,o),
(198,34.5,q),
(193,23,o),
(182,3,q),
(162,-34,o),
(116,-34,q),
(88,-34,o),
(70,-18,q),
(52,-2,o),
(44,24,q),
(33,63,o),
(33,101,q),
(33,116,o),
(24,117,q),
(1,119,o),
(1,135,q),
(1,142,o),
(6,150,q)
);
}
);
width = 274;
}
);
unicode = 118;
},
{
category = Letter;
glyphname = w;
layers = (
{
layerId = "746fec36-5ae7-46fb-b5cd-17efca425fb8";
name = Fore;
shapes = (
{
closed = 1;
nodes = (
(256,134,l),
(256,113,o),
(269.5,96,q),
(283,79,o),
(307.5,79,q),
(332,79,o),
(346.5,90,q),
(361,101,o),
(361,113,q),
(361,115,o),
(354,124,q),
(330,150,o),
(330,185,q),
(330,220,o),
(351.5,254,q),
(373,288,o),
(394,288,q),
(415,288,o),
(426,242,q),
(430,225,o),
(442.5,210.5,q),
(455,196,o),
(476,196,q),
(478,196,o),
(487,200.5,q),
(496,205,o),
(501,205,q),
(510,205,o),
(510,190,q),
(510,151,o),
(470,122.5,q),
(430,94,o),
(397,94,q),
(390,94,o),
(387,95,q),
(370,61,o),
(344,28,q),
(318,-5,o),
(304,-18,q),
(270,-49,o),
(239,-49,q),
(184,-49,o),
(184,32,q),
(182,37,o),
(178,37,q),
(174,37,o),
(172,34,q),
(122,-33,o),
(61.5,-33,q),
(1,-33,o),
(1,56,q),
(1,111,o),
(25.5,174,q),
(50,237,o),
(77,237,q),
(89,237,o),
(89,219,q),
(85,180,l),
(85,146,o),
(99,124,q),
(121,90,o),
(147.5,90,q),
(174,90,o),
(192,102.5,q),
(210,115,o),
(217,130,q),
(236,171,o),
(253,171,q),
(259,170,o),
(259,162,q)
);
}
);
width = 450;
}
);
unicode = 119;
},
{
category = Letter;
glyphname = x;
layers = (
{
layerId = "746fec36-5ae7-46fb-b5cd-17efca425fb8";
name = Fore;
shapes = (
{
closed = 1;
nodes = (
(0,-4,o),
(70,68,q),
(26,132,o),
(26,193,q),
(26,210,o),
(55.5,239,q),
(85,268,o),
(102,268,q),
(112,268,o),
(116,256,q),
(120,245,o),
(122,243,q),
(135,208,o),
(169,157,q),
(213,191,o),
(230.5,203,q),
(248,215,o),
(256,215,q),
(269,215,o),
(269,204,q),
(269,196,o),
(257,187,q),
(232,171,o),
(186,133,q),
(241,61,o),
(293,61,q),
(304,61,o),
(309.5,64,q),
(315,67,o),
(317,67,q),
(327,67,o),
(327,57,q),
(327,51,o),
(312,32.5,q),
(297,14,o),
(267,-5,q),
(237,-24,o),
(206,-24,q),
(147,-24,o),
(89,43,q),
(54,5,o),
(34,-24,q),
(21,-37,o),
(15,-37,q),
(9,-37,o),
(4.5,-32,q),
(0,-27,o),
(0,-21,q)
);
}
);
width = 305;
}
);
unicode = 120;
},
{
category = Letter;
glyphname = y;
layers = (
{
layerId = "746fec36-5ae7-46fb-b5cd-17efca425fb8";
name = Fore;
shapes = (
{
closed = 1;
nodes = (
(253,-300,o),
(253,-102,q),
(253,-60,o),
(252,-40,q),
(189,-125,o),
(189,-193,q),
(189,-232,o),
(198.5,-266,q),
(208,-300,o),
(229,-300,q)
);
},
{
closed = 1;
nodes = (
(67,179,l),
(67,136,o),
(95.5,106.5,q),
(124,77,o),
(165,76,q),
(190,77,o),
(211.5,90.5,q),
(233,104,o),
(242,116,q),
(250,129,l),
(251,163,o),
(260,186,q),
(274,225,o),
(293,225,q),
(296,225,l),
(307,221,o),
(307,193,q),
(307,181,o),
(284,146,q),
(276,133,l),
(276,56,o),
(277,19,q),
(335,74,o),
(363,109,q),
(376,119,o),
(383.5,119,q),
(391,119,o),
(391,111.5,q),
(391,104,o),
(378,93,q),
(348,69,o),
(278,-8,q),
(281,-161,l),
(281,-285,o),
(264,-349,q),
(247,-413,o),
(200,-413,q),
(162,-413,o),
(137,-374,q),
(112,-335,o),
(112,-289,q),
(112,-201,o),
(148.5,-136.5,q),
(185,-72,o),
(252,-6,q),
(250,66,o),
(250,73,q),
(250,80,o),
(244.5,80,q),
(239,80,o),
(232,70,q),
(197,33,o),
(181,18,q),
(138,-24,o),
(94.5,-24,q),
(51,-24,o),
(25.5,5,q),
(0,34,o),
(0,87.5,q),
(0,141,o),
(20.5,185.5,q),
(41,230,o),
(59,230,q),
(71,230,o),
(71,219,q)
);
}
);
width = 336;
}
);
unicode = 121;
},
{
category = Letter;
glyphname = z;
layers = (
{
layerId = "746fec36-5ae7-46fb-b5cd-17efca425fb8";
name = Fore;
shapes = (
{
closed = 1;
nodes = (
(176,-204,o),
(176,-157.5,q),
(176,-111,o),
(160,-66,q),
(88,-143,o),
(88,-223,q),
(88,-257,o),
(100.5,-278.5,q),
(113,-300,o),
(128,-300,q),
(151,-300,o),
(163.5,-252,q)
);
},
{
closed = 1;
nodes = (
(41,159,l),
(30,159,o),
(30,168,q),
(30,195,o),
(79,222.5,q),
(128,250,o),
(154.5,250,q),
(181,250,o),
(193,237.5,q),
(205,225,o),
(205,206,q),
(205,166,o),
(148,102,q),
(146,100,o),
(146,97,q),
(146,89,o),
(160,89,q),
(203,79,o),
(226,25,q),
(257,49,o),
(278.5,61.5,q),
(300,74,o),
(303,74,q),
(316,74,o),
(316,60,q),
(315,56,o),
(294.5,42.5,q),
(274,29,o),
(267,24,q),
(234,0,l),
(240,-21,o),
(240,-48.5,q),
(240,-76,o),
(229,-131.5,q),
(218,-187,o),
(198,-249,q),
(178,-311,o),
(141.5,-355,q),
(105,-399,o),
(62,-399,q),
(35,-399,o),
(18,-376.5,q),
(1,-354,o),
(1,-325,q),
(1,-193,o),
(149,-43,q),
(122,10,o),
(78,10,q),
(58,10,o),
(45,0,q),
(32,-10,o),
(24.5,-10,q),
(17,-10,o),
(17,-0.5,q),
(17,9,o),
(21,13,q),
(25,17,o),
(36.5,28,q),
(48,39,o),
(55,46.5,q),
(62,54,o),
(74,67,q),
(86,80,o),
(92,90,q),
(110,117,o),
(110,132.5,q),
(110,148,o),
(101.5,158.5,q),
(93,169,o),
(79,169,q)
);
}
);
width = 284;
}
);
unicode = 122;
},
{
category = Letter;
glyphname = braceleft;
layers = (
{
layerId = "746fec36-5ae7-46fb-b5cd-17efca425fb8";
name = Fore;
shapes = (
{
closed = 1;
nodes = (
(187,73,l),
(187,-70,o),
(246,-108,q),
(271,-125,o),
(306.5,-125,q),
(342,-125,o),
(374,-95,q),
(380,-89,o),
(384,-89,q),
(392,-89,o),
(392,-102,q),
(392,-144,o),
(336,-186.5,q),
(280,-229,o),
(228,-229,q),
(176,-229,o),
(155.5,-188.5,q),
(135,-148,o),
(135,-92,q),
(135,-36,o),
(142,45,q),
(149,126,o),
(149,160,q),
(149,266,o),
(94,266,q),
(66,266,o),
(49.5,283.5,q),
(33,301,o),
(33,324,q),
(33,347,o),
(49.5,364.5,q),
(66,382,o),
(94,382,q),
(149,382,o),
(149,488,q),
(149,521,o),
(142,602,q),
(135,683,o),
(135,739,q),
(135,795,o),
(155.5,836,q),
(176,877,o),
(231,877,q),
(286,877,o),
(317,855,q),
(348,833,o),
(348,807,q),
(348,793,o),
(337.5,783,q),
(327,773,o),
(308,773,q),
(235,773,o),
(213,701,q),
(191,629,o),
(191,437,q),
(191,386,o),
(183,358,q),
(175,330,o),
(152,324,q),
(192,313,o),
(192,211,q)
);
}
);
width = 308;
}
);
unicode = 123;
},
{
category = Letter;
glyphname = bar;
layers = (
{
layerId = "746fec36-5ae7-46fb-b5cd-17efca425fb8";
name = Fore;
shapes = (
{
closed = 1;
nodes = (
(100,-26,l),
(100,-49,o),
(105,-80.5,q),
(110,-112,o),
(110,-119,q),
(110,-140,o),
(86.5,-140,q),
(63,-140,o),
(55.5,-134.5,q),
(48,-129,o),
(48,-108,q),
(48,-108,o),
(60,600,q),
(60,651,o),
(44,722,q),
(46,736,o),
(58,749.5,q),
(70,763,o),
(79.5,763,q),
(89,763,o),
(93,752,q),
(102,726,o),
(102,542,q)
);
}
);
width = 168;
}
);
unicode = 124;
},
{
category = Letter;
glyphname = braceright;
layers = (
{
layerId = "746fec36-5ae7-46fb-b5cd-17efca425fb8";
name = Fore;
shapes = (
{
closed = 1;
nodes = (
(190,211,l),
(190,313,o),
(230,324,q),
(207,330,o),
(199,358,q),
(191,386,o),
(191,437,q),
(191,629,o),
(169,701,q),
(147,773,o),
(74,773,q),
(55,773,o),
(44.5,783,q),
(34,793,o),
(34,807,q),
(34,833,o),
(65,855,q),
(96,877,o),
(151,877,q),
(206,877,o),
(226.5,836,q),
(247,795,o),
(247,739,q),
(247,683,o),
(240,602,q),
(233,521,o),
(233,488,q),
(233,382,o),
(288,382,q),
(317,382,o),
(333,365,q),
(349,348,o),
(349,324,q),
(349,300,o),
(333,283,q),
(317,266,o),
(288,266,q),
(233,266,o),
(233,160,q),
(233,126,o),
(240,45,q),
(247,-36,o),
(247,-92,q),
(247,-148,o),
(226.5,-188.5,q),
(206,-229,o),
(154,-229,q),
(102,-229,o),
(46,-186.5,q),
(-10,-144,o),
(-10,-102,q),
(-10,-89,o),
(-2,-89,q),
(2,-89,o),
(8,-95,q),
(40,-125,o),
(75.5,-125,q),
(111,-125,o),
(136,-108.5,q),
(161,-92,o),
(174,-62,q),
(195,-10,o),
(195,73,q)
);
}
);
width = 262;
}
);
unicode = 125;
},
{
category = Letter;
glyphname = asciitilde;
layers = (
{
layerId = "746fec36-5ae7-46fb-b5cd-17efca425fb8";
name = Fore;
shapes = (
{
closed = 1;
nodes = (
(123,164,o),
(152.5,164,q),
(182,164,o),
(215.5,150.5,q),
(249,137,o),
(267.5,137,q),
(286,137,o),
(296,139,q),
(308,139,o),
(309,131,q),
(309,115,o),
(274.5,97,q),
(240,79,o),
(210,79,q),
(180,79,o),
(147.5,92,q),
(115,105,o),
(95.5,105,q),
(76,105,o),
(67,103,q),
(55,103,o),
(54,111,q),
(54,127,o),
(88.5,145.5,q)
);
}
);
width = 329;
}
);
unicode = 126;
},
{
category = Letter;
glyphname = exclamdown;
layers = (
{
layerId = "746fec36-5ae7-46fb-b5cd-17efca425fb8";
name = Fore;
shapes = (
{
closed = 1;
nodes = (
(64,169,o),
(64,198.5,q),
(64,228,o),
(83,248.5,q),
(102,269,o),
(129,269,q),
(156,269,o),
(174.5,248.5,q),
(193,228,o),
(193,198.5,q),
(193,169,o),
(174.5,148.5,q),
(156,128,o),
(129,128,q),
(102,128,o),
(83,148.5,q)
);
},
{
closed = 1;
nodes = (
(203,-367,o),
(203,-337.5,q),
(203,-308,o),
(190,-262,q),
(151,-122,o),
(151,59,q),
(151,76,o),
(133,76,q),
(125,76,o),
(119,71,q),
(113,66,o),
(113,59,q),
(113,-122,o),
(74,-262,q),
(61,-308,o),
(61,-335.5,q),
(61,-363,o),
(82.5,-379,q),
(104,-395,o),
(131,-395,q),
(158,-395,o),
(180.5,-381,q)
);
}
);
width = 243;
}
);
unicode = 161;
},
{
category = Letter;
glyphname = cent;
layers = (
{
layerId = "746fec36-5ae7-46fb-b5cd-17efca425fb8";
name = Fore;
shapes = (
{
closed = 1;
nodes = (
(150,66,o),
(184.5,66,q),
(219,66,o),
(241.5,74.5,q),
(264,83,o),
(276,91.5,q),
(288,100,o),
(294,100,q),
(303,100,o),
(303,91,q),
(303,64,o),
(255.5,25.5,q),
(208,-13,o),
(143,-22,q),
(143,-58,l),
(143,-88,o),
(116,-88,q),
(112,-88,o),
(110,-79,q),
(110,-25,l),
(61,-25,o),
(36.5,0,q),
(12,25,o),
(12,68.5,q),
(12,112,o),
(42.5,164.5,q),
(73,217,o),
(120,249,q),
(120,301,l),
(120,331,o),
(147,331,q),
(151,331,o),
(153,322,q),
(153,266,l),
(184,279,o),
(209,279,q),
(234,279,o),
(245.5,267.5,q),
(257,256,o),
(257,234.5,q),
(257,213,o),
(232.5,186.5,q),
(208,160,o),
(183,160,q),
(176,160,o),
(176,167,q),
(176,174,o),
(183.5,182,q),
(191,190,o),
(191,201.5,q),
(191,213,o),
(183.5,224,q),
(176,235,o),
(167,235,q),
(140,235,o),
(124,210.5,q),
(108,186,o),
(108,150.5,q),
(108,115,o),
(129,90.5,q)
);
}
);
width = 280;
}
);
unicode = 162;
},
{
category = Letter;
glyphname = sterling;
layers = (
{
layerId = "746fec36-5ae7-46fb-b5cd-17efca425fb8";
name = Fore;
shapes = (
{
closed = 1;
nodes = (
(104,72,o),
(104,64.5,q),
(104,57,o),
(106,57,q),
(132,71,o),
(153,71,q),
(174,71,o),
(215,41.5,q),
(256,12,o),
(273,12,q),
(290,12,o),
(296,15,q),
(302,18,o),
(304.5,18,q),
(307,18,o),
(310,14.5,q),
(313,11,o),
(313,8,q),
(313,-4,o),
(285.5,-20.5,q),
(258,-37,o),
(238.5,-37,q),
(219,-37,o),
(176,-12.5,q),
(133,12,o),
(120,12,q),
(107,12,o),
(93.5,0,q),
(80,-12,o),
(74,-21,q),
(68,-30,o),
(65,-30,q),
(55,-30,o),
(55,-21,q),
(55,-20,o),
(57,-16,q),
(60,2,o),
(60,25.5,q),
(60,49,o),
(56,87,q),
(38,77,o),
(33.5,73.5,q),
(29,70,o),
(25,70,q),
(21,70,o),
(21,77,q),
(21,84,o),
(26.5,99.5,q),
(32,115,o),
(35,117,q),
(47,125,o),
(53,128,q),
(52,144,o),
(52,191,q),
(52,304,o),
(143,304,q),
(194,304,o),
(194,262,q),
(194,240,o),
(172,222.5,q),
(150,205,o),
(132,205,q),
(114,205,o),
(114,222,q),
(114,232,o),
(120,242,q),
(116,246,o),
(106,246,q),
(91,246,o),
(91,206,q),
(91,189,o),
(95,147,q),
(137,160,o),
(193,160,q),
(202,160,o),
(202,152.5,q),
(202,145,o),
(197.5,132.5,q),
(193,120,o),
(186,119,q),
(142,117,o),
(100,104,q)
);
}
);
width = 308;
}
);
unicode = 163;
},
{
category = Letter;
glyphname = currency;
layers = (
{
layerId = "746fec36-5ae7-46fb-b5cd-17efca425fb8";
name = Fore;
shapes = (
{
closed = 1;
nodes = (
(166,161,o),
(148,161,q),
(114,161,o),
(114,125,q),
(114,109,o),
(123.5,96.5,q),
(133,84,o),
(150.5,84,q),
(168,84,o),
(178,95,q),
(188,106,o),
(188,122,q),
(188,138,o),
(177,149.5,q)
);
},
{
closed = 1;
nodes = (
(71,5,o),
(56.5,5,q),
(42,5,o),
(42,16,q),
(42,20,o),
(43,23,q),
(63,57,l),
(57,72,o),
(57,99.5,q),
(57,127,o),
(79,163,q),
(48,192,o),
(48,201,q),
(48,217,o),
(58,218,q),
(61,219,l),
(68,217,l),
(100,190,l),
(128,216,o),
(164,216,q),
(180,216,o),
(192,213,q),
(200,227,l),
(210,245,o),
(222,245,q),
(239,245,o),
(239,228,q),
(221,197,l),
(241,180,o),
(241,145.5,q),
(241,111,o),
(215,74,q),
(241,53,o),
(243,40,q),
(237,22,o),
(229,22,q),
(225,22,o),
(221,26,q),
(193,50,l),
(159,23,o),
(120,23,q),
(100,23,o),
(86,31,q)
);
}
);
width = 277;
}
);
unicode = 164;
},
{
category = Letter;
glyphname = yen;
layers = (
{
layerId = "746fec36-5ae7-46fb-b5cd-17efca425fb8";
name = Fore;
shapes = (
{
closed = 1;
nodes = (
(88,80,o),
(103,87,q),
(77,127,o),
(55,181,q),
(33,235,o),
(32,273,q),
(39,296,o),
(54,317,q),
(69,338,o),
(82,338,q),
(95,338,o),
(95,316,q),
(95,240,o),
(145,157,q),
(147,238,o),
(177,285,q),
(207,332,o),
(238,332,q),
(266,332,o),
(266,295,q),
(266,283,o),
(256.5,266.5,q),
(247,250,o),
(238.5,250,q),
(230,250,o),
(228,254,q),
(196,243,o),
(184,110,q),
(214,112,o),
(227,112,q),
(240,112,o),
(240,104.5,q),
(240,97,o),
(235.5,84,q),
(231,71,o),
(224,71,q),
(209,71,o),
(181,66,q),
(179,32,o),
(179,-9,q),
(179,-17,o),
(162,-30.5,q),
(145,-44,o),
(134,-44,q),
(119,-44,o),
(119,49,q),
(90,40,o),
(78.5,31,q),
(67,22,o),
(63,22,q),
(59,22,o),
(59,29,q),
(59,36,o),
(64.5,51.5,q),
(70,67,o),
(73,69,q)
);
}
);
width = 270;
}
);
unicode = 165;
},
{
category = Letter;
glyphname = brokenbar;
layers = (
{
layerId = "746fec36-5ae7-46fb-b5cd-17efca425fb8";
name = Fore;
shapes = (
{
closed = 1;
nodes = (
(102,-26,l),
(102,-49,o),
(107,-80.5,q),
(112,-112,o),
(112,-119,q),
(112,-140,o),
(88.5,-140,q),
(65,-140,o),
(57.5,-134.5,q),
(50,-129,o),
(50,-108,q),
(50,-108,o),
(54,202,q),
(54,230,o),
(54,244,q),
(54,258,o),
(55.5,260.5,q),
(57,263,o),
(58.5,265,q),
(60,267,o),
(62,268,q),
(64,269,o),
(67,270,q),
(73,272,o),
(79,272,q),
(92,272,l),
(100,272,o),
(101.5,254,q),
(103,236,o),
(103,198,q)
);
},
{
closed = 1;
nodes = (
(60,600,l),
(60,651,o),
(44,722,q),
(46,736,o),
(58,749.5,q),
(70,763,o),
(81,763,q),
(92,763,o),
(101,643,q),
(110,523,o),
(110,414,q),
(110,393,o),
(90.5,393,q),
(71,393,o),
(64,398,q),
(57,403,o),
(57,425,q)
);
}
);
width = 168;
}
);
unicode = 166;
},
{
category = Letter;
glyphname = section;
layers = (
{
layerId = "746fec36-5ae7-46fb-b5cd-17efca425fb8";
name = Fore;
shapes = (
{
closed = 1;
nodes = (
(160,121,o),
(203,100,q),
(208,97,o),
(210,95,q),
(229,99,o),
(229,117,q),
(229,130,o),
(217.5,137.5,q),
(206,145,o),
(198.5,149,q),
(191,153,o),
(179,159.5,q),
(167,166,o),
(159,170,q),
(148,157,o),
(148,143,q)
);
},
{
closed = 1;
nodes = (
(70,155,o),
(124,197,q),
(110,215,o),
(110,233,q),
(110,275,o),
(172.5,321,q),
(235,367,o),
(285,367,q),
(335,367,o),
(335,325,q),
(335,303,o),
(313,285.5,q),
(291,268,o),
(273,268,q),
(255,268,o),
(255,285,q),
(255,295,o),
(261,305,q),
(257,309,o),
(242.5,309,q),
(228,309,o),
(208.5,296,q),
(189,283,o),
(188,261,q),
(197,244,o),
(227.5,226.5,q),
(258,209,o),
(271,200,q),
(306,176,o),
(306,137.5,q),
(306,99,o),
(250,64,q),
(266,45,o),
(266,21,q),
(266,-21,o),
(206,-57,q),
(146,-93,o),
(94,-93,q),
(12,-93,o),
(12,-38,q),
(12,-22,o),
(28.5,-7,q),
(45,8,o),
(60,10,q),
(64,10,o),
(74,2,q),
(103,-23,o),
(165,-23,q),
(177,-23,o),
(183,-16,q),
(189,-9,o),
(189,1.5,q),
(189,12,o),
(170.5,24.5,q),
(152,37,o),
(129.5,46.5,q),
(107,56,o),
(88.5,74,q),
(70,92,o),
(70,115,q)
);
}
);
width = 304;
}
);
unicode = 167;
},
{
category = Letter;
glyphname = dieresis;
layers = (
{
layerId = "746fec36-5ae7-46fb-b5cd-17efca425fb8";
name = Fore;
shapes = (
{
closed = 1;
nodes = (
(270,378,o),
(285.5,395,q),
(301,412,o),
(324,412,q),
(347,412,o),
(362.5,395,q),
(378,378,o),
(378,353,q),
(378,328,o),
(362.5,311,q),
(347,294,o),
(324,294,q),
(301,294,o),
(285.5,311,q),
(270,328,o),
(270,353,q)
);
},
{
closed = 1;
nodes = (
(130,378,o),
(145.5,395,q),
(161,412,o),
(184,412,q),
(207,412,o),
(222.5,395,q),
(238,378,o),
(238,353,q),
(238,328,o),
(222.5,311,q),
(207,294,o),
(184,294,q),
(161,294,o),
(145.5,311,q),
(130,328,o),
(130,353,q)
);
}
);
width = 500;
}
);
unicode = 168;
},
{
category = Letter;
glyphname = copyright;
layers = (
{
layerId = "746fec36-5ae7-46fb-b5cd-17efca425fb8";
name = Fore;
shapes = (
{
closed = 1;
nodes = (
(264,152,o),
(296.5,152,q),
(329,152,o),
(353,165.5,q),
(377,179,o),
(379,179,q),
(386,179,o),
(386,172,q),
(386,147,o),
(339.5,113,q),
(293,79,o),
(232,79,q),
(193,79,o),
(173.5,99,q),
(154,119,o),
(154,151,q),
(154,209,o),
(203.5,266,q),
(253,323,o),
(316,323,q),
(331,323,o),
(340.5,314,q),
(350,305,o),
(350,287.5,q),
(350,270,o),
(330,248.5,q),
(310,227,o),
(290,227,q),
(285,227,o),
(285,232.5,q),
(285,238,o),
(291,245,q),
(297,252,o),
(297,260.5,q),
(297,269,o),
(291,278,q),
(285,287,o),
(278,287,q),
(256,287,o),
(243,267.5,q),
(230,248,o),
(230,220,q),
(230,192,o),
(247,172,q)
);
},
{
closed = 1;
nodes = (
(162,26,o),
(238,26,q),
(314,26,o),
(377,99.5,q),
(440,173,o),
(440,252,q),
(440,304,o),
(405.5,337,q),
(371,370,o),
(303.5,370,q),
(236,370,o),
(168.5,301.5,q),
(101,233,o),
(101,161,q),
(101,109,o),
(131.5,67.5,q)
);
},
{
closed = 1;
nodes = (
(452,413,o),
(500.5,377.5,q),
(549,342,o),
(549,289,q),
(549,236,o),
(518,181.5,q),
(487,127,o),
(437,82,q),
(387,37,o),
(318,7,q),
(249,-23,o),
(169,-23,q),
(89,-23,o),
(46,11,q),
(3,45,o),
(3,97,q),
(3,149,o),
(33,204,q),
(63,259,o),
(110.5,305.5,q),
(158,352,o),
(223,382.5,q),
(288,413,o),
(352,413,q)
);
}
);
width = 557;
}
);
unicode = 169;
},
{
category = Letter;
glyphname = ordfeminine;
layers = (
{
layerId = "746fec36-5ae7-46fb-b5cd-17efca425fb8";
name = Fore;
shapes = (
{
closed = 1;
nodes = (
(224,182,l),
(224,168,o),
(235.5,153.5,q),
(247,139,o),
(261.5,139,q),
(276,139,o),
(301,157,q),
(308,164,o),
(317,164,q),
(326,164,o),
(326,157,q),
(326,142,o),
(288.5,105,q),
(251,68,o),
(216,68,q),
(198,68,o),
(188.5,80,q),
(179,92,o),
(178,103,q),
(177,114,o),
(177,132,q),
(177,135,o),
(174,135,q),
(171,135,o),
(140,106,q),
(109,77,o),
(85.5,77,q),
(62,77,o),
(48,90.5,q),
(34,104,o),
(34,133,q),
(34,162,o),
(53.5,195.5,q),
(73,229,o),
(100,249,q),
(161,293,o),
(193,293,q),
(243,290,o),
(243,258,q),
(243,245,o),
(232.5,233.5,q),
(222,222,o),
(213,222,q),
(204,222,o),
(188,238,q),
(172,254,o),
(153,254,q),
(134,254,o),
(122.5,238.5,q),
(111,223,o),
(111,199,q),
(111,160,o),
(152,160,q),
(168,160,o),
(179,168,q),
(190,176,o),
(194,186,q),
(206,212,o),
(218,212,q),
(227,212,o),
(227,203,q)
);
}
);
width = 305;
}
);
unicode = 170;
},
{
category = Letter;
glyphname = guillemotleft;
layers = (
{
layerId = "746fec36-5ae7-46fb-b5cd-17efca425fb8";
name = Fore;
shapes = (
{
closed = 1;
nodes = (
(354,-42,o),
(340,-42,q),
(326,-42,o),
(306,-13,q),
(294,11,o),
(275.5,27,q),
(257,43,o),
(242.5,49,q),
(228,55,o),
(217.5,65,q),
(207,75,o),
(207,90,q),
(207,105,o),
(217.5,115,q),
(228,125,o),
(242.5,131,q),
(257,137,o),
(275.5,153,q),
(294,169,o),
(306,193,q),
(326,222,o),
(340.5,222,q),
(355,222,o),
(364.5,208,q),
(374,194,o),
(374,172.5,q),
(374,151,o),
(356.5,127.5,q),
(339,104,o),
(302,90,q),
(376,52,o),
(376,4,q),
(376,-15,o),
(365,-28.5,q)
);
},
{
closed = 1;
nodes = (
(237,-42,o),
(208,-42,q),
(192,-42,o),
(172,-13,q),
(160,11,o),
(136.5,27,q),
(113,43,o),
(93,49,q),
(73,55,o),
(58,65,q),
(43,75,o),
(43,90,q),
(43,105,o),
(58,115,q),
(73,125,o),
(93,131,q),
(113,137,o),
(136.5,153,q),
(160,169,o),
(172,193,q),
(192,222,o),
(208,222,q),
(237,222,o),
(237,173,q),
(237,157,o),
(213,133.5,q),
(189,110,o),
(138,90,q),
(188,77,o),
(212.5,51,q),
(237,25,o),
(237,7,q)
);
}
);
width = 421;
}
);
unicode = 171;
},
{
category = Letter;
glyphname = logicalnot;
layers = (
{
layerId = "746fec36-5ae7-46fb-b5cd-17efca425fb8";
name = Fore;
shapes = (
{
closed = 1;
nodes = (
(272,118,l),
(274,72,o),
(278,30,q),
(278,23,o),
(266,18,q),
(254,13,o),
(243,13,q),
(221,13,o),
(221,56,q),
(221,60,o),
(222,106,q),
(221,106,l),
(118,106,o),
(41,99,q),
(34,99,o),
(29,111.5,q),
(24,124,o),
(24,134,q),
(24,156,o),
(67,156,q),
(69,156,l),
(71,156,o),
(75.5,155.5,q),
(80,155,o),
(87,154.5,q),
(94,154,o),
(105.5,153.5,q),
(117,153,o),
(131.5,152.5,q),
(146,152,o),
(168,152,q),
(214,152,l),
(235,152,o),
(253.5,144,q),
(272,136,o),
(272,120,q)
);
}
);
width = 292;
}
);
unicode = 172;
},
{
category = Letter;
glyphname = registered;
layers = (
{
layerId = "746fec36-5ae7-46fb-b5cd-17efca425fb8";
name = Fore;
shapes = (
{
closed = 1;
nodes = (
(260,42,l),
(260,36,o),
(254,36,q),
(217,39,o),
(193,86,q),
(169,133,o),
(169,193.5,q),
(169,254,o),
(196,297,q),
(223,340,o),
(271,340,q),
(319,340,o),
(345.5,309.5,q),
(372,279,o),
(372,241.5,q),
(372,204,o),
(350,178.5,q),
(328,153,o),
(286,150,q),
(284,148,o),
(284,142.5,q),
(284,137,o),
(306,111,q),
(328,85,o),
(352,75,q),
(392,110,o),
(416,158,q),
(440,206,o),
(440,255,q),
(440,304,o),
(405.5,337,q),
(371,370,o),
(303.5,370,q),
(236,370,o),
(168.5,301.5,q),
(101,233,o),
(101,161,q),
(101,109,o),
(131.5,67.5,q),
(162,26,o),
(232,26,q),
(268,26,o),
(307,44,q),
(261,74,o),
(261,171,q),
(261,177,o),
(265,177,q),
(280,165,o),
(292.5,164.5,q),
(305,164,o),
(313.5,177,q),
(322,190,o),
(322,217.5,q),
(322,245,o),
(302.5,276.5,q),
(283,308,o),
(250,308,q),
(225,300,o),
(212,273.5,q),
(199,247,o),
(199,212,q),
(199,142,o),
(240,99,q),
(242,99,o),
(242,102,q),
(242,230,o),
(250,247,q),
(253,250,o),
(257.5,250,q),
(262,250,o),
(262,248,q),
(255,229,o),
(255,122,q)
);
},
{
closed = 1;
nodes = (
(452,413,o),
(500.5,377.5,q),
(549,342,o),
(549,289,q),
(549,236,o),
(518,181.5,q),
(487,127,o),
(437,82,q),
(387,37,o),
(318,7,q),
(249,-23,o),
(169,-23,q),
(89,-23,o),
(46,11,q),
(3,45,o),
(3,97,q),
(3,149,o),
(33,204,q),
(63,259,o),
(110.5,305.5,q),
(158,352,o),
(223,382.5,q),
(288,413,o),
(352,413,q)
);
}
);
width = 557;
}
);
unicode = 174;
},
{
category = Letter;
glyphname = macron;
layers = (
{
layerId = "746fec36-5ae7-46fb-b5cd-17efca425fb8";
name = Fore;
shapes = (
{
closed = 1;
nodes = (
(304,301,o),
(253,301,q),
(150,301,o),
(73,294,q),
(66,294,o),
(61,306,q),
(56,318,o),
(56,329,q),
(56,351,o),
(99,351,q),
(101,351,l),
(103,351,o),
(107.5,350.5,q),
(112,350,o),
(119,349.5,q),
(126,349,o),
(137.5,348.5,q),
(149,348,o),
(163.5,347.5,q),
(178,347,o),
(200,347,q),
(200,347,o),
(246,347,q),
(267,347,o),
(285.5,339,q),
(304,331,o),
(304,315,q)
);
}
);
width = 358;
}
);
unicode = 175;
},
{
category = Letter;
glyphname = degree;
layers = (
{
layerId = "746fec36-5ae7-46fb-b5cd-17efca425fb8";
name = Fore;
shapes = (
{
closed = 1;
nodes = (
(136,260,o),
(117.5,260,q),
(99,260,o),
(90.5,249,q),
(82,238,o),
(82,222.5,q),
(82,207,o),
(91.5,194.5,q),
(101,182,o),
(118.5,182,q),
(136,182,o),
(147,193.5,q),
(158,205,o),
(158,220.5,q),
(158,236,o),
(147,248,q)
);
},
{
closed = 1;
nodes = (
(95,297,o),
(129,297,q),
(163,297,o),
(178.5,281.5,q),
(194,266,o),
(194,236,q),
(194,206,o),
(165,173,q),
(136,140,o),
(95,140,q),
(43,140,o),
(43,194,q),
(43,231,o),
(69,264,q)
);
}
);
width = 198;
}
);
unicode = 176;
},
{
category = Letter;
glyphname = plusminus;
layers = (
{
layerId = "746fec36-5ae7-46fb-b5cd-17efca425fb8";
name = Fore;
shapes = (
{
closed = 1;
nodes = (
(128,243,l),
(128,293,o),
(150,293,q),
(172,293,o),
(178.5,285.5,q),
(185,278,o),
(185,276,q),
(180,218,o),
(179,202,q),
(242,202,l),
(258,202,o),
(265,195.5,q),
(272,189,o),
(272,170,q),
(272,156,o),
(221,156,q),
(179,156,l),
(180,140,o),
(185,86,q),
(185,79,o),
(173,74,q),
(161,69,o),
(150,69,q),
(128,69,o),
(128,116,q),
(130,154,l),
(100,153,o),
(41,149,q),
(34,149,o),
(29,161.5,q),
(24,174,o),
(24,184,q),
(24,206,o),
(67,206,q),
(75,202,o),
(130,202,q)
);
},
{
closed = 1;
nodes = (
(272,-2,o),
(221,-2,q),
(118,-2,o),
(41,-9,q),
(34,-9,o),
(29,3.5,q),
(24,16,o),
(24,26,q),
(24,48,o),
(67,48,q),
(69,48,l),
(71,48,o),
(75.5,47.5,q),
(80,47,o),
(87,46.5,q),
(94,46,o),
(105.5,45.5,q),
(117,45,o),
(131.5,44.5,q),
(146,44,o),
(168,44,q),
(214,44,l),
(235,44,o),
(253.5,36,q),
(272,28,o),
(272,12,q)
);
}
);
width = 292;
}
);
unicode = 177;
},
{
category = Letter;
glyphname = twosuperior;
layers = (
{
layerId = "746fec36-5ae7-46fb-b5cd-17efca425fb8";
name = Fore;
shapes = (
{
closed = 1;
nodes = (
(33,200,l),
(25,200,o),
(25,207,q),
(25,226,o),
(60,246,q),
(95,266,o),
(114.5,266,q),
(134,266,o),
(145.5,256.5,q),
(157,247,o),
(157,233,q),
(157,219,o),
(154,207.5,q),
(151,196,o),
(135.5,176.5,q),
(120,157,o),
(90,137,q),
(102,137,o),
(127,130.5,q),
(152,124,o),
(156,124,q),
(160,124,o),
(173.5,130,q),
(187,136,o),
(191,136,q),
(195,136,o),
(195,125.5,q),
(195,115,o),
(180,93,q),
(165,71,o),
(151.5,70,q),
(138,69,o),
(120,78,q),
(102,87,o),
(88.5,87,q),
(75,87,o),
(51,77,q),
(27,67,o),
(23.5,67,q),
(20,67,o),
(17.5,72,q),
(15,77,o),
(15,81,q),
(15,85,o),
(20,90,q),
(83,153,o),
(83,182,q),
(83,192,o),
(76.5,199.5,q),
(70,207,o),
(60,207,q)
);
}
);
width = 200;
}
);
unicode = 178;
},
{
category = Letter;
glyphname = threesuperior;
layers = (
{
layerId = "746fec36-5ae7-46fb-b5cd-17efca425fb8";
name = Fore;
shapes = (
{
closed = 1;
nodes = (
(102,182,l),
(111,193,o),
(111,207,q),
(109,217,o),
(97.5,217,q),
(86,217,o),
(73.5,203.5,q),
(61,190,o),
(46.5,190,q),
(32,190,o),
(32,203,q),
(32,226,o),
(65,245.5,q),
(98,265,o),
(131,265,q),
(192,265,o),
(192,241,q),
(192,213,o),
(121,172,q),
(121,171,o),
(141,170,q),
(161,169,o),
(181,161,q),
(201,153,o),
(201,130,q),
(201,107,o),
(157,86,q),
(113,65,o),
(68,65,q),
(23,65,o),
(15,93,q),
(15,107,o),
(25.5,116.5,q),
(36,126,o),
(47,128,q),
(58,130,l),
(75,130,o),
(75,115.5,q),
(75,101,o),
(90.5,101,q),
(106,101,o),
(120,108,q),
(134,115,o),
(134,126.5,q),
(134,138,o),
(127.5,145,q),
(121,152,o),
(114,154,q),
(93,159,o),
(93,170,q)
);
}
);
width = 211;
}
);
unicode = 179;
},
{
category = Letter;
glyphname = acute;
layers = (
{
layerId = "746fec36-5ae7-46fb-b5cd-17efca425fb8";
name = Fore;
shapes = (
{
closed = 1;
nodes = (
(255,344,o),
(228,323.5,q),
(201,303,o),
(163,294,q),
(98,280,o),
(65,280,q),
(50,280,o),
(50,292,q),
(50,306,o),
(76,315,q),
(118,329,o),
(141,347.5,q),
(164,366,o),
(168,379,q),
(179,410,o),
(218,410,q),
(236,410,o),
(245.5,398,q),
(255,386,o),
(255,373,q)
);
}
);
width = 305;
}
);
unicode = 180;
},
{
category = Letter;
glyphname = paragraph;
layers = (
{
layerId = "746fec36-5ae7-46fb-b5cd-17efca425fb8";
name = Fore;
shapes = (
{
closed = 1;
nodes = (
(133,74,o),
(81,132,q),
(29,190,o),
(29,256.5,q),
(29,323,o),
(53,382,q),
(77,441,o),
(109,441,q),
(136,441,o),
(163,394,q),
(217,298,o),
(217,74,q)
);
},
{
closed = 1;
nodes = (
(213,-347,o),
(225,-368,q),
(237,-389,o),
(258,-389,q),
(279,-389,o),
(301.5,-373,q),
(324,-357,o),
(324,-343.5,q),
(324,-330,o),
(315,-328,q),
(270,-324,o),
(270,-148,q),
(270,-82,o),
(283.5,49.5,q),
(297,181,o),
(297,235,q),
(297,329,o),
(267,378.5,q),
(237,428,o),
(160,428,q),
(230,336,o),
(230,81,q),
(230,-15,o),
(219.5,-144,q),
(209,-273,o),
(209,-277,q)
);
}
);
width = 383;
}
);
unicode = 182;
},
{
category = Letter;
glyphname = periodcentered;
layers = (
{
layerId = "746fec36-5ae7-46fb-b5cd-17efca425fb8";
name = Fore;
shapes = (
{
closed = 1;
nodes = (
(57,152,o),
(72.5,169,q),
(88,186,o),
(111,186,q),
(134,186,o),
(149.5,169,q),
(165,152,o),
(165,127,q),
(165,102,o),
(149.5,85,q),
(134,68,o),
(111,68,q),
(88,68,o),
(72.5,85,q),
(57,102,o),
(57,127,q)
);
}
);
width = 212;
}
);
unicode = 183;
},
{
category = Letter;
glyphname = cedilla;
layers = (
{
layerId = "746fec36-5ae7-46fb-b5cd-17efca425fb8";
name = Fore;
shapes = (
{
closed = 1;
nodes = (
(143,-118,o),
(37,-118,q),
(23,-118,o),
(23,-107,q),
(23,-104,o),
(50.5,-97,q),
(78,-90,o),
(78,-77.5,q),
(78,-65,o),
(68.5,-54.5,q),
(59,-44,o),
(59,-39,q),
(59,-24,o),
(81,-3.5,q),
(103,17,o),
(114.5,17,q),
(126,17,o),
(126,8,q),
(126,-1,o),
(119.5,-11,q),
(113,-21,o),
(113,-25,q),
(113,-38,o),
(128,-45,q),
(143,-52,o),
(143,-64,q)
);
}
);
width = 195;
}
);
unicode = 184;
},
{
category = Letter;
glyphname = onesuperior;
layers = (
{
layerId = "746fec36-5ae7-46fb-b5cd-17efca425fb8";
name = Fore;
shapes = (
{
closed = 1;
nodes = (
(47,179,l),
(47,194,o),
(41,203.5,q),
(35,213,o),
(28,216,q),
(10,223,o),
(10,230,q),
(10,237,o),
(48,247,q),
(86,257,o),
(93,257,q),
(113,257,o),
(113,238,q),
(113,232,o),
(108.5,203,q),
(104,174,o),
(104,148.5,q),
(104,123,o),
(111,91,q),
(111,78,o),
(96,68.5,q),
(81,59,o),
(67,59,q),
(38,59,o),
(38,98,q)
);
}
);
width = 133;
}
);
unicode = 185;
},
{
category = Letter;
glyphname = ordmasculine;
layers = (
{
layerId = "746fec36-5ae7-46fb-b5cd-17efca425fb8";
name = Fore;
shapes = (
{
closed = 1;
nodes = (
(164,249,o),
(139.5,249,q),
(115,249,o),
(103,234,q),
(91,219,o),
(91,197,q),
(91,175,o),
(104.5,158.5,q),
(118,142,o),
(142.5,142,q),
(167,142,o),
(181,157.5,q),
(195,173,o),
(195,194.5,q),
(195,216,o),
(179.5,232.5,q)
);
},
{
closed = 1;
nodes = (
(108,300,o),
(155,300,q),
(202,300,o),
(223.5,278.5,q),
(245,257,o),
(245,223,q),
(245,173,o),
(205.5,128,q),
(166,83,o),
(109,83,q),
(73,83,o),
(55,104,q),
(37,125,o),
(37,158,q),
(37,209,o),
(72.5,254.5,q)
);
}
);
width = 261;
}
);
unicode = 186;
},
{
category = Letter;
glyphname = guillemotright;
layers = (
{
layerId = "746fec36-5ae7-46fb-b5cd-17efca425fb8";
name = Fore;
shapes = (
{
closed = 1;
nodes = (
(94,-42,o),
(80,-42,q),
(66,-42,o),
(55,-28.5,q),
(44,-15,o),
(44,4,q),
(44,52,o),
(118,90,q),
(81,104,o),
(63.5,127.5,q),
(46,151,o),
(46,172.5,q),
(46,194,o),
(55.5,208,q),
(65,222,o),
(79.5,222,q),
(94,222,o),
(114,193,q),
(126,169,o),
(144.5,153,q),
(163,137,o),
(177.5,131,q),
(192,125,o),
(202.5,115,q),
(213,105,o),
(213,90,q),
(213,75,o),
(202.5,65,q),
(192,55,o),
(177.5,49,q),
(163,43,o),
(144.5,27,q),
(126,11,o),
(114,-13,q)
);
},
{
closed = 1;
nodes = (
(183,25,o),
(207.5,51,q),
(232,77,o),
(282,90,q),
(231,110,o),
(207,133.5,q),
(183,157,o),
(183,173,q),
(183,222,o),
(212,222,q),
(228,222,o),
(248,193,q),
(260,169,o),
(283.5,153,q),
(307,137,o),
(327,131,q),
(347,125,o),
(362,115,q),
(377,105,o),
(377,90,q),
(377,75,o),
(362,65,q),
(347,55,o),
(327,49,q),
(307,43,o),
(283.5,27,q),
(260,11,o),
(248,-13,q),
(228,-42,o),
(212,-42,q),
(183,-42,o),
(183,7,q)
);
}
);
width = 421;
}
);
unicode = 187;
},
{
category = Letter;
glyphname = onequarter;
layers = (
{
layerId = "746fec36-5ae7-46fb-b5cd-17efca425fb8";
name = Fore;
shapes = (
{
closed = 1;
nodes = (
(290,150,l),
(290,109,o),
(311,109,q),
(311,117,o),
(317,134.5,q),
(323,152,o),
(330,162,q),
(349,191,o),
(382,191,q),
(394,191,o),
(394,186.5,q),
(394,182,o),
(389,170,q),
(375,134,o),
(375,98.5,q),
(375,63,o),
(378,45.5,q),
(381,28,o),
(381,26,q),
(380,12,o),
(364,0.5,q),
(348,-11,o),
(335.5,-11,q),
(323,-11,o),
(317,-3,q),
(315,-1,o),
(315,75,q),
(315,89,l),
(315,98,o),
(312,98,q),
(309,98,o),
(301,90,q),
(278,67,o),
(259.5,67,q),
(241,67,o),
(230,84.5,q),
(219,102,o),
(219,123,q),
(219,144,o),
(234,162,q),
(258,192,o),
(283,192,q),
(295,192,o),
(295,182,q)
);
},
{
closed = 1;
nodes = (
(47,179,l),
(47,194,o),
(41,203.5,q),
(35,213,o),
(28,216,q),
(10,223,o),
(10,230,q),
(10,237,o),
(48,247,q),
(86,257,o),
(93,257,q),
(113,257,o),
(113,238,q),
(113,232,o),
(108.5,203,q),
(104,174,o),
(104,148.5,q),
(104,123,o),
(111,91,q),
(111,78,o),
(96,68.5,q),
(81,59,o),
(67,59,q),
(38,59,o),
(38,98,q)
);
},
{
closed = 1;
nodes = (
(214,277,o),
(222,277,q),
(230,277,o),
(242,274.5,q),
(254,272,o),
(254,269,q),
(254,260,o),
(245,244,q),
(219,186,o),
(186,99.5,q),
(153,13,o),
(133,-34,q),
(120,-57,o),
(97,-57,q),
(92,-57,o),
(83.5,-54,q),
(75,-51,o),
(75,-46.5,q),
(75,-42,o),
(85,-25,q),
(95,-8,o),
(126,75,q),
(157,158,o),
(207,264,q)
);
}
);
width = 415;
}
);
unicode = 188;
},
{
category = Letter;
glyphname = onehalf;
layers = (
{
layerId = "746fec36-5ae7-46fb-b5cd-17efca425fb8";
name = Fore;
shapes = (
{
closed = 1;
nodes = (
(47,179,l),
(47,194,o),
(41,203.5,q),
(35,213,o),
(28,216,q),
(10,223,o),
(10,230,q),
(10,237,o),
(48,247,q),
(86,257,o),
(93,257,q),
(113,257,o),
(113,238,q),
(113,232,o),
(108.5,203,q),
(104,174,o),
(104,148.5,q),
(104,123,o),
(111,91,q),
(111,78,o),
(96,68.5,q),
(81,59,o),
(67,59,q),
(38,59,o),
(38,98,q)
);
},
{
closed = 1;
nodes = (
(231,131,l),
(223,131,o),
(223,138,q),
(223,157,o),
(258,177,q),
(293,197,o),
(312.5,197,q),
(332,197,o),
(343.5,187.5,q),
(355,178,o),
(355,164,q),
(355,150,o),
(352,138.5,q),
(349,127,o),
(333.5,107.5,q),
(318,88,o),
(288,68,q),
(300,68,o),
(325,61.5,q),
(350,55,o),
(354,55,q),
(358,55,o),
(371.5,61,q),
(385,67,o),
(389,67,q),
(393,67,o),
(393,56.5,q),
(393,46,o),
(378,24,q),
(363,2,o),
(349.5,1,q),
(336,0,o),
(318,9,q),
(300,18,o),
(286.5,18,q),
(273,18,o),
(249,8,q),
(225,-2,o),
(221.5,-2,q),
(218,-2,o),
(215.5,3,q),
(213,8,o),
(213,12,q),
(213,16,o),
(218,21,q),
(281,84,o),
(281,113,q),
(281,123,o),
(274.5,130.5,q),
(268,138,o),
(258,138,q)
);
},
{
closed = 1;
nodes = (
(214,277,o),
(222,277,q),
(230,277,o),
(242,274.5,q),
(254,272,o),
(254,269,q),
(254,260,o),
(245,244,q),
(219,186,o),
(186,99.5,q),
(153,13,o),
(133,-34,q),
(120,-57,o),
(97,-57,q),
(92,-57,o),
(83.5,-54,q),
(75,-51,o),
(75,-46.5,q),
(75,-42,o),
(85,-25,q),
(95,-8,o),
(126,75,q),
(157,158,o),
(207,264,q)
);
}
);
width = 382;
}
);
unicode = 189;
},
{
category = Letter;
glyphname = threequarters;
layers = (
{
layerId = "746fec36-5ae7-46fb-b5cd-17efca425fb8";
name = Fore;
shapes = (
{
closed = 1;
nodes = (
(102,182,l),
(111,193,o),
(111,207,q),
(109,217,o),
(97.5,217,q),
(86,217,o),
(73.5,203.5,q),
(61,190,o),
(46.5,190,q),
(32,190,o),
(32,203,q),
(32,226,o),
(65,245.5,q),
(98,265,o),
(131,265,q),
(192,265,o),
(192,241,q),
(192,213,o),
(121,172,q),
(121,171,o),
(141,170,q),
(161,169,o),
(181,161,q),
(201,153,o),
(201,130,q),
(201,107,o),
(157,86,q),
(113,65,o),
(68,65,q),
(23,65,o),
(15,93,q),
(15,107,o),
(25.5,116.5,q),
(36,126,o),
(47,128,q),
(58,130,l),
(75,130,o),
(75,115.5,q),
(75,101,o),
(90.5,101,q),
(106,101,o),
(120,108,q),
(134,115,o),
(134,126.5,q),
(134,138,o),
(127.5,145,q),
(121,152,o),
(114,154,q),
(93,159,o),
(93,170,q)
);
},
{
closed = 1;
nodes = (
(357,150,l),
(357,109,o),
(378,109,q),
(378,117,o),
(384,134.5,q),
(390,152,o),
(397,162,q),
(416,191,o),
(449,191,q),
(461,191,o),
(461,186.5,q),
(461,182,o),
(456,170,q),
(442,129,o),
(442,96,q),
(442,63,o),
(445,45.5,q),
(448,28,o),
(448,26,q),
(447,12,o),
(431,0.5,q),
(415,-11,o),
(402.5,-11,q),
(390,-11,o),
(384,-3,q),
(382,-1,o),
(382,75,q),
(382,89,l),
(382,98,o),
(379,98,q),
(376,98,o),
(368,90,q),
(345,67,o),
(326.5,67,q),
(308,67,o),
(297,84.5,q),
(286,102,o),
(286,123,q),
(286,144,o),
(301,162,q),
(325,192,o),
(350,192,q),
(362,192,o),
(362,182,q)
);
},
{
closed = 1;
nodes = (
(281,277,o),
(289,277,q),
(297,277,o),
(309,274.5,q),
(321,272,o),
(321,269,q),
(321,260,o),
(312,244,q),
(286,186,o),
(253,99.5,q),
(220,13,o),
(200,-34,q),
(187,-57,o),
(164,-57,q),
(159,-57,o),
(150.5,-54,q),
(142,-51,o),
(142,-46.5,q),
(142,-42,o),
(152,-25,q),
(162,-8,o),
(193,75,q),
(224,158,o),
(274,264,q)
);
}
);
width = 482;
}
);
unicode = 190;
},
{
category = Letter;
glyphname = questiondown;
layers = (
{
layerId = "746fec36-5ae7-46fb-b5cd-17efca425fb8";
name = Fore;
shapes = (
{
closed = 1;
nodes = (
(228,224,o),
(228,194.5,q),
(228,165,o),
(209,144.5,q),
(190,124,o),
(163,124,q),
(136,124,o),
(117.5,144.5,q),
(99,165,o),
(99,194.5,q),
(99,224,o),
(117.5,244.5,q),
(136,265,o),
(163,265,q),
(190,265,o),
(209,244.5,q)
);
},
{
closed = 1;
nodes = (
(-8,-300,o),
(-8,-256.5,q),
(-8,-213,o),
(10,-179,q),
(28,-145,o),
(54,-121,q),
(80,-97,o),
(106,-76,q),
(169,-26,o),
(169,-1,q),
(169,36,o),
(134,54,q),
(126,57,o),
(126,61,q),
(126,65,o),
(133.5,69.5,q),
(141,74,o),
(148,73.5,q),
(155,73,o),
(169,66,q),
(183,59,o),
(200,38.5,q),
(217,18,o),
(217,-14.5,q),
(217,-47,o),
(164.5,-128,q),
(112,-209,o),
(112,-238.5,q),
(112,-268,o),
(144.5,-289,q),
(177,-310,o),
(210.5,-310,q),
(244,-310,o),
(244,-285,q),
(244,-275,o),
(209,-275,q),
(193,-275,o),
(193,-249,q),
(193,-223,o),
(207.5,-204.5,q),
(222,-186,o),
(245.5,-186,q),
(269,-186,o),
(285,-205.5,q),
(301,-225,o),
(301,-252,q),
(301,-296,o),
(250,-323.5,q),
(199,-351,o),
(136.5,-351,q),
(74,-351,o),
(33,-325.5,q)
);
}
);
width = 305;
}
);
unicode = 191;
},
{
category = Letter;
glyphname = Agrave;
layers = (
{
layerId = "746fec36-5ae7-46fb-b5cd-17efca425fb8";
name = Fore;
shapes = (
{
closed = 1;
nodes = (
(362,871,o),
(371.5,883,q),
(381,895,o),
(401,895,q),
(421,895,o),
(432,885.5,q),
(443,876,o),
(447.5,863.5,q),
(452,851,o),
(471,835,q),
(490,819,o),
(520.5,809.5,q),
(551,800,o),
(551,785,q),
(551,773,o),
(536.5,773,q),
(522,773,o),
(502.5,775,q),
(483,777,o),
(446.5,783.5,q),
(410,790,o),
(386,809.5,q),
(362,829,o),
(362,858,q)
);
},
{
closed = 1;
nodes = (
(648,646,o),
(648,676.5,q),
(648,707,o),
(627,726,q),
(606,745,o),
(563,745,q),
(437,745,o),
(303.5,643,q),
(170,541,o),
(85.5,395.5,q),
(1,250,o),
(1,126,q),
(1,63,o),
(26,20,q),
(62,-44,o),
(145,-44,q),
(228,-44,o),
(327,52.5,q),
(426,149,o),
(483,291,q),
(488,300,o),
(493,300,q),
(496,300,o),
(496,297.5,q),
(496,295,o),
(481.5,224,q),
(467,153,o),
(467,96,q),
(467,-46,o),
(570,-46,q),
(634,-46,o),
(699,1.5,q),
(764,49,o),
(764,104,q),
(764,115,o),
(752,115,q),
(745,115,o),
(738,109,q),
(716,91,o),
(688,91,q),
(633,91,o),
(600,155,q),
(567,219,o),
(567,315.5,q),
(567,412,o),
(596,518,q),
(599,527,o),
(599,534.5,q),
(599,542,o),
(593.5,547.5,q),
(588,553,o),
(579,553,q),
(561,553,o),
(553,532,q),
(552,531,o),
(534,482,q),
(485,345,o),
(437,274,q),
(334,119,o),
(246,119,q),
(191,119,o),
(162.5,161.5,q),
(134,204,o),
(134,271,q),
(134,338,o),
(183,435,q),
(232,532,o),
(314,607,q),
(396,682,o),
(475,682,q),
(506,682,o),
(535.5,661,q),
(565,640,o),
(567,616,q),
(568,602,o),
(583,602,q),
(598,602,o),
(623,624,q)
);
}
);
width = 764;
}
);
unicode = 192;
},
{
category = Letter;
glyphname = Aacute;
layers = (
{
layerId = "746fec36-5ae7-46fb-b5cd-17efca425fb8";
name = Fore;
shapes = (
{
closed = 1;
nodes = (
(527,820,o),
(500,799.5,q),
(473,779,o),
(435,770,q),
(370,756,o),
(337,756,q),
(322,756,o),
(322,768,q),
(322,782,o),
(348,791,q),
(390,805,o),
(413,823.5,q),
(436,842,o),
(440,855,q),
(451,886,o),
(490,886,q),
(508,886,o),
(517.5,874,q),
(527,862,o),
(527,849,q)
);
},
{
closed = 1;
nodes = (
(648,707,o),
(648,676.5,q),
(648,646,o),
(623,624,q),
(598,602,o),
(583,602,q),
(568,602,o),
(567,616,q),
(565,640,o),
(535.5,661,q),
(506,682,o),
(475,682,q),
(396,682,o),
(314,607,q),
(232,532,o),
(183,435,q),
(134,338,o),
(134,271,q),
(134,204,o),
(162.5,161.5,q),
(191,119,o),
(246,119,q),
(334,119,o),
(437,274,q),
(485,345,o),
(534,482,q),
(552,531,o),
(553,532,q),
(561,553,o),
(579,553,q),
(588,553,o),
(593.5,547.5,q),
(599,542,o),
(599,534.5,q),
(599,527,o),
(596,518,q),
(567,412,o),
(567,315.5,q),
(567,219,o),
(600,155,q),
(633,91,o),
(688,91,q),
(716,91,o),
(738,109,q),
(745,115,o),
(752,115,q),
(764,115,o),
(764,104,q),
(764,49,o),
(699,1.5,q),
(634,-46,o),
(570,-46,q),
(467,-46,o),
(467,96,q),
(467,153,o),
(481.5,224,q),
(496,295,o),
(496,297.5,q),
(496,300,o),
(492,300,q),
(488,300,o),
(483,291,q),
(426,149,o),
(327,52.5,q),
(228,-44,o),
(145,-44,q),
(62,-44,o),
(26,20,q),
(1,63,o),
(1,126,q),
(1,250,o),
(85.5,395.5,q),
(170,541,o),
(303.5,643,q),
(437,745,o),
(563,745,q),
(606,745,o),
(627,726,q)
);
}
);
width = 764;
}
);
unicode = 193;
},
{
category = Letter;
glyphname = Acircumflex;
layers = (
{
layerId = "746fec36-5ae7-46fb-b5cd-17efca425fb8";
name = Fore;
shapes = (
{
closed = 1;
nodes = (
(434,776,o),
(388.5,776,q),
(343,776,o),
(343,794,q),
(343,805,o),
(369.5,814.5,q),
(396,824,o),
(412,838.5,q),
(428,853,o),
(434,865.5,q),
(440,878,o),
(450,887,q),
(460,896,o),
(475,896,q),
(490,896,o),
(500,887,q),
(510,878,o),
(516,865.5,q),
(522,853,o),
(538,838.5,q),
(554,824,o),
(580.5,814.5,q),
(607,805,o),
(607,794,q),
(607,776,o),
(561.5,776,q),
(516,776,o),
(475,812,q)
);
},
{
closed = 1;
nodes = (
(648,646,o),
(648,676.5,q),
(648,707,o),
(627,726,q),
(606,745,o),
(563,745,q),
(437,745,o),
(303.5,643,q),
(170,541,o),
(85.5,395.5,q),
(1,250,o),
(1,126,q),
(1,63,o),
(26,20,q),
(62,-44,o),
(145,-44,q),
(228,-44,o),
(327,52.5,q),
(426,149,o),
(483,291,q),
(488,300,o),
(493,300,q),
(496,300,o),
(496,297.5,q),
(496,295,o),
(481.5,224,q),
(467,153,o),
(467,96,q),
(467,-46,o),
(570,-46,q),
(634,-46,o),
(699,1.5,q),
(764,49,o),
(764,104,q),
(764,115,o),
(752,115,q),
(745,115,o),
(738,109,q),
(716,91,o),
(688,91,q),
(633,91,o),
(600,155,q),
(567,219,o),
(567,315.5,q),
(567,412,o),
(596,518,q),
(599,527,o),
(599,534.5,q),
(599,542,o),
(593.5,547.5,q),
(588,553,o),
(579,553,q),
(561,553,o),
(553,532,q),
(552,531,o),
(534,482,q),
(485,345,o),
(437,274,q),
(334,119,o),
(246,119,q),
(191,119,o),
(162.5,161.5,q),
(134,204,o),
(134,271,q),
(134,338,o),
(183,435,q),
(232,532,o),
(314,607,q),
(396,682,o),
(475,682,q),
(506,682,o),
(535.5,661,q),
(565,640,o),
(567,616,q),
(568,602,o),
(583,602,q),
(598,602,o),
(623,624,q)
);
}
);
width = 764;
}
);
unicode = 194;
},
{
category = Letter;
glyphname = Atilde;
layers = (
{
layerId = "746fec36-5ae7-46fb-b5cd-17efca425fb8";
name = Fore;
shapes = (
{
closed = 1;
nodes = (
(387,852,o),
(414.5,852,q),
(442,852,o),
(472,838.5,q),
(502,825,o),
(518.5,825,q),
(535,825,o),
(544,827,q),
(554,827,o),
(555,819,q),
(555,803,o),
(524,785,q),
(493,767,o),
(466,767,q),
(439,767,o),
(410,780,q),
(381,793,o),
(363.5,793,q),
(346,793,o),
(337,791,q),
(327,791,o),
(326,799,q),
(326,815,o),
(356.5,833.5,q)
);
},
{
closed = 1;
nodes = (
(648,707,o),
(648,676.5,q),
(648,646,o),
(623,624,q),
(598,602,o),
(583,602,q),
(568,602,o),
(567,616,q),
(565,640,o),
(535.5,661,q),
(506,682,o),
(475,682,q),
(396,682,o),
(314,607,q),
(232,532,o),
(183,435,q),
(134,338,o),
(134,271,q),
(134,204,o),
(162.5,161.5,q),
(191,119,o),
(246,119,q),
(334,119,o),
(437,274,q),
(485,345,o),
(534,482,q),
(552,531,o),
(553,532,q),
(561,553,o),
(579,553,q),
(588,553,o),
(593.5,547.5,q),
(599,542,o),
(599,534.5,q),
(599,527,o),
(596,518,q),
(567,412,o),
(567,315.5,q),
(567,219,o),
(600,155,q),
(633,91,o),
(688,91,q),
(716,91,o),
(738,109,q),
(745,115,o),
(752,115,q),
(764,115,o),
(764,104,q),
(764,49,o),
(699,1.5,q),
(634,-46,o),
(570,-46,q),
(467,-46,o),
(467,96,q),
(467,153,o),
(481.5,224,q),
(496,295,o),
(496,297.5,q),
(496,300,o),
(492,300,q),
(488,300,o),
(483,291,q),
(426,149,o),
(327,52.5,q),
(228,-44,o),
(145,-44,q),
(62,-44,o),
(26,20,q),
(1,63,o),
(1,126,q),
(1,250,o),
(85.5,395.5,q),
(170,541,o),
(303.5,643,q),
(437,745,o),
(563,745,q),
(606,745,o),
(627,726,q)
);
}
);
width = 764;
}
);
unicode = 195;
},
{
category = Letter;
glyphname = Adieresis;
layers = (
{
layerId = "746fec36-5ae7-46fb-b5cd-17efca425fb8";
name = Fore;
shapes = (
{
closed = 1;
nodes = (
(437,854,o),
(452.5,871,q),
(468,888,o),
(491,888,q),
(514,888,o),
(529.5,871,q),
(545,854,o),
(545,829,q),
(545,804,o),
(529.5,787,q),
(514,770,o),
(491,770,q),
(468,770,o),
(452.5,787,q),
(437,804,o),
(437,829,q)
);
},
{
closed = 1;
nodes = (
(297,854,o),
(312.5,871,q),
(328,888,o),
(351,888,q),
(374,888,o),
(389.5,871,q),
(405,854,o),
(405,829,q),
(405,804,o),
(389.5,787,q),
(374,770,o),
(351,770,q),
(328,770,o),
(312.5,787,q),
(297,804,o),
(297,829,q)
);
},
{
closed = 1;
nodes = (
(648,707,o),
(648,676.5,q),
(648,646,o),
(623,624,q),
(598,602,o),
(583,602,q),
(568,602,o),
(567,616,q),
(565,640,o),
(535.5,661,q),
(506,682,o),
(475,682,q),
(396,682,o),
(314,607,q),
(232,532,o),
(183,435,q),
(134,338,o),
(134,271,q),
(134,204,o),
(162.5,161.5,q),
(191,119,o),
(246,119,q),
(334,119,o),
(437,274,q),
(485,345,o),
(534,482,q),
(552,531,o),
(553,532,q),
(561,553,o),
(579,553,q),
(588,553,o),
(593.5,547.5,q),
(599,542,o),
(599,534.5,q),
(599,527,o),
(596,518,q),
(567,412,o),
(567,315.5,q),
(567,219,o),
(600,155,q),
(633,91,o),
(688,91,q),
(716,91,o),
(738,109,q),
(745,115,o),
(752,115,q),
(764,115,o),
(764,104,q),
(764,49,o),
(699,1.5,q),
(634,-46,o),
(570,-46,q),
(467,-46,o),
(467,96,q),
(467,153,o),
(481.5,224,q),
(496,295,o),
(496,297.5,q),
(496,300,o),
(492,300,q),
(488,300,o),
(483,291,q),
(426,149,o),
(327,52.5,q),
(228,-44,o),
(145,-44,q),
(62,-44,o),
(26,20,q),
(1,63,o),
(1,126,q),
(1,250,o),
(85.5,395.5,q),
(170,541,o),
(303.5,643,q),
(437,745,o),
(563,745,q),
(606,745,o),
(627,726,q)
);
}
);
width = 764;
}
);
unicode = 196;
},
{
category = Letter;
glyphname = Aring;
layers = (
{
layerId = "746fec36-5ae7-46fb-b5cd-17efca425fb8";
name = Fore;
shapes = (
{
closed = 1;
nodes = (
(397,851,o),
(397,838.5,q),
(397,826,o),
(406,817,q),
(415,808,o),
(427.5,808,q),
(440,808,o),
(451.5,819.5,q),
(463,831,o),
(463,843.5,q),
(463,856,o),
(454,865,q),
(445,874,o),
(433,874,q),
(421,874,o),
(409,862.5,q)
);
},
{
closed = 1;
nodes = (
(362,872,o),
(381.5,894,q),
(401,916,o),
(430,916,q),
(459,916,o),
(478.5,894,q),
(498,872,o),
(498,841,q),
(498,810,o),
(478.5,788,q),
(459,766,o),
(430,766,q),
(401,766,o),
(381.5,788,q),
(362,810,o),
(362,841,q)
);
},
{
closed = 1;
nodes = (
(648,707,o),
(648,676.5,q),
(648,646,o),
(623,624,q),
(598,602,o),
(583,602,q),
(568,602,o),
(567,616,q),
(565,640,o),
(535.5,661,q),
(506,682,o),
(475,682,q),
(396,682,o),
(314,607,q),
(232,532,o),
(183,435,q),
(134,338,o),
(134,271,q),
(134,204,o),
(162.5,161.5,q),
(191,119,o),
(246,119,q),
(334,119,o),
(437,274,q),
(485,345,o),
(534,482,q),
(552,531,o),
(553,532,q),
(561,553,o),
(579,553,q),
(588,553,o),
(593.5,547.5,q),
(599,542,o),
(599,534.5,q),
(599,527,o),
(596,518,q),
(567,412,o),
(567,315.5,q),
(567,219,o),
(600,155,q),
(633,91,o),
(688,91,q),
(716,91,o),
(738,109,q),
(745,115,o),
(752,115,q),
(764,115,o),
(764,104,q),
(764,49,o),
(699,1.5,q),
(634,-46,o),
(570,-46,q),
(467,-46,o),
(467,96,q),
(467,153,o),
(481.5,224,q),
(496,295,o),
(496,297.5,q),
(496,300,o),
(492,300,q),
(488,300,o),
(483,291,q),
(426,149,o),
(327,52.5,q),
(228,-44,o),
(145,-44,q),
(62,-44,o),
(26,20,q),
(1,63,o),
(1,126,q),
(1,250,o),
(85.5,395.5,q),
(170,541,o),
(303.5,643,q),
(437,745,o),
(563,745,q),
(606,745,o),
(627,726,q)
);
}
);
width = 764;
}
);
unicode = 197;
},
{
category = Letter;
glyphname = AE;
layers = (
{
layerId = "746fec36-5ae7-46fb-b5cd-17efca425fb8";
name = Fore;
shapes = (
{
closed = 1;
nodes = (
(583,261,o),
(592,269,q),
(601,277,o),
(607.5,284,q),
(614,291,o),
(617.5,295.5,q),
(621,300,o),
(625,305,q),
(632,314,o),
(632,327,q),
(632,350,o),
(569,378,q),
(567,356,o),
(567,322.5,q),
(567,289,o),
(571,249,q)
);
},
{
closed = 1;
nodes = (
(467,320,o),
(507,412,q),
(472,439,o),
(472,479,q),
(472,551,o),
(564,628,q),
(555,650,o),
(528,666,q),
(501,682,o),
(475,682,q),
(396,682,o),
(314,607,q),
(232,532,o),
(183,435,q),
(134,338,o),
(134,271,q),
(134,204,o),
(162.5,161.5,q),
(191,119,o),
(246,119,q),
(334,119,o),
(437,274,q)
);
},
{
closed = 1;
nodes = (
(900,686,l),
(900,704,o),
(881.5,712.5,q),
(863,721,o),
(845,721,q),
(803,721,o),
(741,694,q),
(679,667,o),
(632,629.5,q),
(585,592,o),
(584.5,566,q),
(584,540,o),
(609.5,518,q),
(635,496,o),
(665.5,482,q),
(696,468,o),
(721.5,446.5,q),
(747,425,o),
(747,399.5,q),
(747,374,o),
(731.5,351,q),
(716,328,o),
(694,310.5,q),
(672,293,o),
(650,275,q),
(598,231,o),
(598,177,q),
(598,142,o),
(627.5,116.5,q),
(657,91,o),
(695.5,91,q),
(734,91,o),
(771,103.5,q),
(808,116,o),
(840,142,q),
(885,178,o),
(930,226,q),
(937,233,o),
(944,233,q),
(951,233,o),
(956,226,q),
(961,219,o),
(961,211,q),
(961,191,o),
(925.5,150,q),
(890,109,o),
(837.5,67,q),
(785,25,o),
(715,-7,q),
(645,-39,o),
(590,-39,q),
(535,-39,o),
(501,-11,q),
(467,17,o),
(467,70.5,q),
(467,124,o),
(481.5,209.5,q),
(496,295,o),
(496,297.5,q),
(496,300,o),
(492,300,q),
(488,300,o),
(483,291,q),
(426,149,o),
(327,52.5,q),
(228,-44,o),
(145,-44,q),
(62,-44,o),
(26,20,q),
(1,63,o),
(1,126,q),
(1,250,o),
(85.5,395.5,q),
(170,541,o),
(303.5,643,q),
(437,745,o),
(563,745,q),
(603,745,o),
(624,728.5,q),
(645,712,o),
(648,688,q),
(733,741,o),
(828,776.5,q),
(923,812,o),
(961,812,q),
(999,812,o),
(1017.5,796,q),
(1036,780,o),
(1036,756,q),
(1036,721,o),
(984,689.5,q),
(932,658,o),
(913.5,658.5,q),
(895,659,o),
(895,666,q)
);
}
);
width = 939;
}
);
unicode = 198;
},
{
category = Letter;
glyphname = Ccedilla;
layers = (
{
layerId = "746fec36-5ae7-46fb-b5cd-17efca425fb8";
name = Fore;
shapes = (
{
closed = 1;
nodes = (
(489,165,o),
(489,153.5,q),
(489,142,o),
(481,134,q),
(446,87,o),
(390.5,43,q),
(335,-1,o),
(276,-23,q),
(276,-25,l),
(276,-38,o),
(291,-45,q),
(306,-52,o),
(306,-64,q),
(306,-118,o),
(200,-118,q),
(186,-118,o),
(186,-107,q),
(186,-104,o),
(213.5,-97,q),
(241,-90,o),
(241,-77.5,q),
(241,-65,o),
(231.5,-54.5,q),
(222,-44,o),
(222,-38,q),
(196,-42,o),
(184,-42,q),
(91,-42,o),
(45.5,13.5,q),
(0,69,o),
(0,161,q),
(0,253,o),
(42,361.5,q),
(84,470,o),
(151.5,563.5,q),
(219,657,o),
(315.5,719.5,q),
(412,782,o),
(511,782,q),
(597,782,o),
(597,703,q),
(597,645,o),
(554,568,q),
(511,491,o),
(445,434.5,q),
(379,378,o),
(323,378,q),
(293,378,o),
(293,410,q),
(293,434,o),
(321,470,q),
(349,506,o),
(373,506,q),
(386,506,o),
(383,483,q),
(380,460,o),
(405,460,q),
(441,460,o),
(472.5,515,q),
(504,570,o),
(504,618,q),
(504,717,o),
(422,717,q),
(347,717,o),
(277.5,649,q),
(208,581,o),
(167.5,483.5,q),
(127,386,o),
(127,296,q),
(127,206,o),
(170.5,151.5,q),
(214,97,o),
(306,97,q),
(345,97,o),
(381,110,q),
(431,127,o),
(449,146,q),
(467,165,o),
(478,165,q)
);
}
);
width = 504;
}
);
unicode = 199;
},
{
category = Letter;
glyphname = Egrave;
layers = (
{
layerId = "746fec36-5ae7-46fb-b5cd-17efca425fb8";
name = Fore;
shapes = (
{
closed = 1;
nodes = (
(210,913,o),
(219.5,925,q),
(229,937,o),
(249,937,q),
(269,937,o),
(280,927.5,q),
(291,918,o),
(295.5,905.5,q),
(300,893,o),
(319,877,q),
(338,861,o),
(368.5,851.5,q),
(399,842,o),
(399,827,q),
(399,815,o),
(384.5,815,q),
(370,815,o),
(350.5,817,q),
(331,819,o),
(294.5,825.5,q),
(258,832,o),
(234,851.5,q),
(210,871,o),
(210,900,q)
);
},
{
closed = 1;
nodes = (
(428,666,l),
(428,659,o),
(446.5,658.5,q),
(465,658,o),
(517,689.5,q),
(569,721,o),
(569,756,q),
(569,780,o),
(550.5,796,q),
(532,812,o),
(496.5,812,q),
(461,812,o),
(381,783,q),
(301,754,o),
(216,709.5,q),
(131,665,o),
(68,601.5,q),
(5,538,o),
(5,479,q),
(5,445,o),
(30,421,q),
(55,397,o),
(85,386,q),
(165,358,o),
(165,322,q),
(165,308,o),
(139,281,q),
(113,254,o),
(82.5,226,q),
(52,198,o),
(26,154,q),
(0,110,o),
(0,63.5,q),
(0,17,o),
(34,-11,q),
(68,-39,o),
(123,-39,q),
(178,-39,o),
(248,-7,q),
(318,25,o),
(370.5,67,q),
(423,109,o),
(458.5,150,q),
(494,191,o),
(494,211,q),
(494,219,o),
(489,226,q),
(484,233,o),
(477,233,q),
(470,233,o),
(463,226,q),
(370,126,o),
(304,104,q),
(267,91,o),
(228.5,91,q),
(190,91,o),
(160.5,116.5,q),
(131,142,o),
(131,174.5,q),
(131,207,o),
(146.5,232,q),
(162,257,o),
(184,275,q),
(206,293,o),
(228,310,q),
(280,353,o),
(280,401,q),
(280,425,o),
(254.5,446.5,q),
(229,468,o),
(198.5,482,q),
(168,496,o),
(142.5,518,q),
(117,540,o),
(117.5,566,q),
(118,592,o),
(165,629.5,q),
(212,667,o),
(274,694,q),
(336,721,o),
(378,721,q),
(396,721,o),
(414.5,712.5,q),
(433,704,o),
(433,686,q)
);
}
);
width = 472;
}
);
unicode = 200;
},
{
category = Letter;
glyphname = Eacute;
layers = (
{
layerId = "746fec36-5ae7-46fb-b5cd-17efca425fb8";
name = Fore;
shapes = (
{
closed = 1;
nodes = (
(388,858,o),
(361,837.5,q),
(334,817,o),
(296,808,q),
(231,794,o),
(198,794,q),
(183,794,o),
(183,806,q),
(183,820,o),
(209,829,q),
(251,843,o),
(274,861.5,q),
(297,880,o),
(302,893,q),
(312,924,o),
(351,924,q),
(369,924,o),
(378.5,912,q),
(388,900,o),
(388,887,q)
);
},
{
closed = 1;
nodes = (
(433,686,l),
(433,704,o),
(414.5,712.5,q),
(396,721,o),
(378,721,q),
(336,721,o),
(274,694,q),
(212,667,o),
(165,629.5,q),
(118,592,o),
(117.5,566,q),
(117,540,o),
(142.5,518,q),
(168,496,o),
(198.5,482,q),
(229,468,o),
(254.5,446.5,q),
(280,425,o),
(280,399.5,q),
(280,374,o),
(264.5,351,q),
(249,328,o),
(227,310.5,q),
(205,293,o),
(184,275,q),
(131,231,o),
(131,177,q),
(131,142,o),
(160.5,116.5,q),
(190,91,o),
(228.5,91,q),
(267,91,o),
(304,103.5,q),
(341,116,o),
(374,142,q),
(418,178,o),
(463,226,q),
(470,233,o),
(477,233,q),
(484,233,o),
(489,226,q),
(494,219,o),
(494,211,q),
(494,191,o),
(458.5,150,q),
(423,109,o),
(370.5,67,q),
(318,25,o),
(248,-7,q),
(178,-39,o),
(123,-39,q),
(68,-39,o),
(34,-11,q),
(0,17,o),
(0,63.5,q),
(0,110,o),
(26,154,q),
(52,198,o),
(82.5,226,q),
(113,254,o),
(139,281,q),
(165,308,o),
(165,325.5,q),
(165,343,o),
(140,359.5,q),
(115,376,o),
(85,386.5,q),
(55,397,o),
(30,421,q),
(5,445,o),
(5,479,q),
(5,538,o),
(68,601.5,q),
(131,665,o),
(216,709.5,q),
(301,754,o),
(381,783,q),
(461,812,o),
(496.5,812,q),
(532,812,o),
(550.5,796,q),
(569,780,o),
(569,756,q),
(569,721,o),
(517,689.5,q),
(465,658,o),
(446.5,658.5,q),
(428,659,o),
(428,666,q)
);
}
);
width = 472;
}
);
unicode = 201;
},
{
category = Letter;
glyphname = Ecircumflex;
layers = (
{
layerId = "746fec36-5ae7-46fb-b5cd-17efca425fb8";
name = Fore;
shapes = (
{
closed = 1;
nodes = (
(259,817,o),
(213.5,817,q),
(168,817,o),
(168,835,q),
(168,846,o),
(194.5,855.5,q),
(221,865,o),
(237,879.5,q),
(253,894,o),
(259,906.5,q),
(265,919,o),
(275,928,q),
(285,937,o),
(300,937,q),
(315,937,o),
(325,928,q),
(335,919,o),
(341,906.5,q),
(347,894,o),
(363,879.5,q),
(379,865,o),
(405.5,855.5,q),
(432,846,o),
(432,835,q),
(432,817,o),
(386.5,817,q),
(341,817,o),
(300,853,q)
);
},
{
closed = 1;
nodes = (
(428,666,l),
(428,659,o),
(446.5,658.5,q),
(465,658,o),
(517,689.5,q),
(569,721,o),
(569,756,q),
(569,780,o),
(550.5,796,q),
(532,812,o),
(496.5,812,q),
(461,812,o),
(381,783,q),
(301,754,o),
(216,709.5,q),
(131,665,o),
(68,601.5,q),
(5,538,o),
(5,479,q),
(5,445,o),
(30,421,q),
(55,397,o),
(85,386,q),
(165,358,o),
(165,322,q),
(165,308,o),
(139,281,q),
(113,254,o),
(82.5,226,q),
(52,198,o),
(26,154,q),
(0,110,o),
(0,63.5,q),
(0,17,o),
(34,-11,q),
(68,-39,o),
(123,-39,q),
(178,-39,o),
(248,-7,q),
(318,25,o),
(370.5,67,q),
(423,109,o),
(458.5,150,q),
(494,191,o),
(494,211,q),
(494,219,o),
(489,226,q),
(484,233,o),
(477,233,q),
(470,233,o),
(463,226,q),
(370,126,o),
(304,104,q),
(267,91,o),
(228.5,91,q),
(190,91,o),
(160.5,116.5,q),
(131,142,o),
(131,174.5,q),
(131,207,o),
(146.5,232,q),
(162,257,o),
(184,275,q),
(206,293,o),
(228,310,q),
(280,353,o),
(280,401,q),
(280,425,o),
(254.5,446.5,q),
(229,468,o),
(198.5,482,q),
(168,496,o),
(142.5,518,q),
(117,540,o),
(117.5,566,q),
(118,592,o),
(165,629.5,q),
(212,667,o),
(274,694,q),
(336,721,o),
(378,721,q),
(396,721,o),
(414.5,712.5,q),
(433,704,o),
(433,686,q)
);
}
);
width = 472;
}
);
unicode = 202;
},
{
category = Letter;
glyphname = Edieresis;
layers = (
{
layerId = "746fec36-5ae7-46fb-b5cd-17efca425fb8";
name = Fore;
shapes = (
{
closed = 1;
nodes = (
(309,914,o),
(324.5,931,q),
(340,948,o),
(363,948,q),
(386,948,o),
(401.5,931,q),
(417,914,o),
(417,889,q),
(417,864,o),
(401.5,847,q),
(386,830,o),
(363,830,q),
(340,830,o),
(324.5,847,q),
(309,864,o),
(309,889,q)
);
},
{
closed = 1;
nodes = (
(169,914,o),
(184.5,931,q),
(200,948,o),
(223,948,q),
(246,948,o),
(261.5,931,q),
(277,914,o),
(277,889,q),
(277,864,o),
(261.5,847,q),
(246,830,o),
(223,830,q),
(200,830,o),
(184.5,847,q),
(169,864,o),
(169,889,q)
);
},
{
closed = 1;
nodes = (
(433,686,l),
(433,704,o),
(414.5,712.5,q),
(396,721,o),
(378,721,q),
(336,721,o),
(274,694,q),
(212,667,o),
(165,629.5,q),
(118,592,o),
(117.5,566,q),
(117,540,o),
(142.5,518,q),
(168,496,o),
(198.5,482,q),
(229,468,o),
(254.5,446.5,q),
(280,425,o),
(280,399.5,q),
(280,374,o),
(264.5,351,q),
(249,328,o),
(227,310.5,q),
(205,293,o),
(184,275,q),
(131,231,o),
(131,177,q),
(131,142,o),
(160.5,116.5,q),
(190,91,o),
(228.5,91,q),
(267,91,o),
(304,103.5,q),
(341,116,o),
(374,142,q),
(418,178,o),
(463,226,q),
(470,233,o),
(477,233,q),
(484,233,o),
(489,226,q),
(494,219,o),
(494,211,q),
(494,191,o),
(458.5,150,q),
(423,109,o),
(370.5,67,q),
(318,25,o),
(248,-7,q),
(178,-39,o),
(123,-39,q),
(68,-39,o),
(34,-11,q),
(0,17,o),
(0,63.5,q),
(0,110,o),
(26,154,q),
(52,198,o),
(82.5,226,q),
(113,254,o),
(139,281,q),
(165,308,o),
(165,325.5,q),
(165,343,o),
(140,359.5,q),
(115,376,o),
(85,386.5,q),
(55,397,o),
(30,421,q),
(5,445,o),
(5,479,q),
(5,538,o),
(68,601.5,q),
(131,665,o),
(216,709.5,q),
(301,754,o),
(381,783,q),
(461,812,o),
(496.5,812,q),
(532,812,o),
(550.5,796,q),
(569,780,o),
(569,756,q),
(569,721,o),
(517,689.5,q),
(465,658,o),
(446.5,658.5,q),
(428,659,o),
(428,666,q)
);
}
);
width = 472;
}
);
unicode = 203;
},
{
category = Letter;
glyphname = Igrave;
layers = (
{
layerId = "746fec36-5ae7-46fb-b5cd-17efca425fb8";
name = Fore;
shapes = (
{
closed = 1;
nodes = (
(61,984,o),
(70.5,996,q),
(80,1008,o),
(100,1008,q),
(120,1008,o),
(131,998.5,q),
(142,989,o),
(146.5,976.5,q),
(151,964,o),
(170,948,q),
(189,932,o),
(219.5,922.5,q),
(250,913,o),
(250,898,q),
(250,886,o),
(235.5,886,q),
(221,886,o),
(201.5,888,q),
(182,890,o),
(145.5,896.5,q),
(109,903,o),
(85,922.5,q),
(61,942,o),
(61,971,q)
);
},
{
closed = 1;
nodes = (
(54,-41,o),
(54,-29,q),
(54,-17,o),
(63,-10.5,q),
(72,-4,o),
(120,28,q),
(240,109,o),
(287,109,q),
(300,109,o),
(308,99,q),
(317,85,o),
(330,56,q),
(343,27,o),
(343,21,q),
(343,15,o),
(342,12,q),
(339,4,o),
(336,2,q),
(324,-4,o),
(318.5,-7,q),
(313,-10,o),
(264,-40,q),
(128,-124,o),
(114,-124,q),
(94,-124,o),
(74,-82.5,q)
);
},
{
closed = 1;
nodes = (
(204,129,l),
(204,110,o),
(192,93.5,q),
(180,77,o),
(160,77,q),
(151,77,o),
(151,91,q),
(151,243,o),
(143.5,369,q),
(136,495,o),
(136,660,q),
(136,676,o),
(143,680,q),
(163,693,o),
(171.5,693,q),
(180,693,o),
(182,691,q),
(186,684,o),
(186,629.5,q),
(186,575,o),
(194,343,q)
);
},
{
closed = 1;
nodes = (
(18,743,o),
(73,772,q),
(225,852,o),
(258,852,q),
(268,852,o),
(269.5,848,q),
(271,844,o),
(278,828.5,q),
(285,813,o),
(289,800.5,q),
(293,788,o),
(293,778,q),
(293,768,o),
(279,761,q),
(276,759,o),
(239,742.5,q),
(202,726,o),
(164,708,q),
(67,664,o),
(42,644.5,q),
(17,625,o),
(8.5,625,q),
(0,625,o),
(0,635,q),
(17,736,l)
);
}
);
width = 382;
}
);
unicode = 204;
},
{
category = Letter;
glyphname = Iacute;
layers = (
{
layerId = "746fec36-5ae7-46fb-b5cd-17efca425fb8";
name = Fore;
shapes = (
{
closed = 1;
nodes = (
(268,943,o),
(241,922.5,q),
(214,902,o),
(176,894,q),
(111,879,o),
(78,879,q),
(63,879,o),
(63,891,q),
(63,905,o),
(89,914,q),
(131,928,o),
(154,946.5,q),
(177,965,o),
(182,978,q),
(192,1009,o),
(231,1009,q),
(249,1009,o),
(258.5,997,q),
(268,985,o),
(268,972,q)
);
},
{
closed = 1;
nodes = (
(54,-41,o),
(54,-29,q),
(54,-17,o),
(63,-10.5,q),
(72,-4,o),
(120,28,q),
(240,109,o),
(287,109,q),
(300,109,o),
(308,99,q),
(317,85,o),
(330,56,q),
(343,27,o),
(343,21,q),
(343,15,o),
(342,12,q),
(339,4,o),
(336,2,q),
(324,-4,o),
(318.5,-7,q),
(313,-10,o),
(264,-40,q),
(128,-124,o),
(114,-124,q),
(94,-124,o),
(74,-82.5,q)
);
},
{
closed = 1;
nodes = (
(204,129,l),
(204,110,o),
(192,93.5,q),
(180,77,o),
(160,77,q),
(151,77,o),
(151,91,q),
(151,243,o),
(143.5,369,q),
(136,495,o),
(136,660,q),
(136,676,o),
(143,680,q),
(163,693,o),
(171.5,693,q),
(180,693,o),
(182,691,q),
(186,684,o),
(186,629.5,q),
(186,575,o),
(194,343,q)
);
},
{
closed = 1;
nodes = (
(18,743,o),
(73,772,q),
(225,852,o),
(258,852,q),
(268,852,o),
(269.5,848,q),
(271,844,o),
(278,828.5,q),
(285,813,o),
(289,800.5,q),
(293,788,o),
(293,778,q),
(293,768,o),
(279,761,q),
(276,759,o),
(239,742.5,q),
(202,726,o),
(164,708,q),
(67,664,o),
(42,644.5,q),
(17,625,o),
(8.5,625,q),
(0,625,o),
(0,635,q),
(17,736,l)
);
}
);
width = 382;
}
);
unicode = 205;
},
{
category = Letter;
glyphname = Icircumflex;
layers = (
{
layerId = "746fec36-5ae7-46fb-b5cd-17efca425fb8";
name = Fore;
shapes = (
{
closed = 1;
nodes = (
(110,878,o),
(64.5,878,q),
(19,878,o),
(19,896,q),
(19,907,o),
(45.5,916.5,q),
(72,926,o),
(88,940.5,q),
(104,955,o),
(110,967.5,q),
(116,980,o),
(126,989,q),
(136,998,o),
(151,998,q),
(166,998,o),
(176,989,q),
(186,980,o),
(192,967.5,q),
(198,955,o),
(214,940.5,q),
(230,926,o),
(256.5,916.5,q),
(283,907,o),
(283,896,q),
(283,878,o),
(237.5,878,q),
(192,878,o),
(151,914,q)
);
},
{
closed = 1;
nodes = (
(54,-41,o),
(54,-29,q),
(54,-17,o),
(63,-10.5,q),
(72,-4,o),
(120,28,q),
(240,109,o),
(287,109,q),
(300,109,o),
(308,99,q),
(317,85,o),
(330,56,q),
(343,27,o),
(343,21,q),
(343,15,o),
(342,12,q),
(339,4,o),
(336,2,q),
(324,-4,o),
(318.5,-7,q),
(313,-10,o),
(264,-40,q),
(128,-124,o),
(114,-124,q),
(94,-124,o),
(74,-82.5,q)
);
},
{
closed = 1;
nodes = (
(204,129,l),
(204,110,o),
(192,93.5,q),
(180,77,o),
(160,77,q),
(151,77,o),
(151,91,q),
(151,243,o),
(143.5,369,q),
(136,495,o),
(136,660,q),
(136,676,o),
(143,680,q),
(163,693,o),
(171.5,693,q),
(180,693,o),
(182,691,q),
(186,684,o),
(186,629.5,q),
(186,575,o),
(194,343,q)
);
},
{
closed = 1;
nodes = (
(18,743,o),
(73,772,q),
(225,852,o),
(258,852,q),
(268,852,o),
(269.5,848,q),
(271,844,o),
(278,828.5,q),
(285,813,o),
(289,800.5,q),
(293,788,o),
(293,778,q),
(293,768,o),
(279,761,q),
(276,759,o),
(239,742.5,q),
(202,726,o),
(164,708,q),
(67,664,o),
(42,644.5,q),
(17,625,o),
(8.5,625,q),
(0,625,o),
(0,635,q),
(17,736,l)
);
}
);
width = 382;
}
);
unicode = 206;
},
{
category = Letter;
glyphname = Idieresis;
layers = (
{
layerId = "746fec36-5ae7-46fb-b5cd-17efca425fb8";
name = Fore;
shapes = (
{
closed = 1;
nodes = (
(192,967,o),
(207.5,984,q),
(223,1001,o),
(246,1001,q),
(269,1001,o),
(284.5,984,q),
(300,967,o),
(300,942,q),
(300,917,o),
(284.5,900,q),
(269,883,o),
(246,883,q),
(223,883,o),
(207.5,900,q),
(192,917,o),
(192,942,q)
);
},
{
closed = 1;
nodes = (
(52,967,o),
(67.5,984,q),
(83,1001,o),
(106,1001,q),
(129,1001,o),
(144.5,984,q),
(160,967,o),
(160,942,q),
(160,917,o),
(144.5,900,q),
(129,883,o),
(106,883,q),
(83,883,o),
(67.5,900,q),
(52,917,o),
(52,942,q)
);
},
{
closed = 1;
nodes = (
(54,-41,o),
(54,-29,q),
(54,-17,o),
(63,-10.5,q),
(72,-4,o),
(120,28,q),
(240,109,o),
(287,109,q),
(300,109,o),
(308,99,q),
(317,85,o),
(330,56,q),
(343,27,o),
(343,21,q),
(343,15,o),
(342,12,q),
(339,4,o),
(336,2,q),
(324,-4,o),
(318.5,-7,q),
(313,-10,o),
(264,-40,q),
(128,-124,o),
(114,-124,q),
(94,-124,o),
(74,-82.5,q)
);
},
{
closed = 1;
nodes = (
(204,129,l),
(204,110,o),
(192,93.5,q),
(180,77,o),
(160,77,q),
(151,77,o),
(151,91,q),
(151,243,o),
(143.5,369,q),
(136,495,o),
(136,660,q),
(136,676,o),
(143,680,q),
(163,693,o),
(171.5,693,q),
(180,693,o),
(182,691,q),
(186,684,o),
(186,629.5,q),
(186,575,o),
(194,343,q)
);
},
{
closed = 1;
nodes = (
(18,743,o),
(73,772,q),
(225,852,o),
(258,852,q),
(268,852,o),
(269.5,848,q),
(271,844,o),
(278,828.5,q),
(285,813,o),
(289,800.5,q),
(293,788,o),
(293,778,q),
(293,768,o),
(279,761,q),
(276,759,o),
(239,742.5,q),
(202,726,o),
(164,708,q),
(67,664,o),
(42,644.5,q),
(17,625,o),
(8.5,625,q),
(0,625,o),
(0,635,q),
(17,736,l)
);
}
);
width = 382;
}
);
unicode = 207;
},
{
category = Letter;
glyphname = Eth;
layers = (
{
layerId = "746fec36-5ae7-46fb-b5cd-17efca425fb8";
name = Fore;
shapes = (
{
closed = 1;
nodes = (
(211,56,o),
(202,150,q),
(195,150,l),
(147,150,o),
(147,90,q),
(147,45,o),
(195,11.5,q),
(243,-22,o),
(293,-22,q),
(343,-22,o),
(408,24,q),
(389,37,o),
(354,64,q),
(280,122,o),
(243,139,q),
(249,73,o),
(249,60,q),
(249,38,o),
(231,38,q),
(213,38,o),
(211,54,q)
);
},
{
closed = 1;
nodes = (
(214,553,o),
(214,538.5,q),
(214,524,o),
(224,397,q),
(280,410,o),
(309,410,q),
(318,410,o),
(318,402.5,q),
(318,395,o),
(313.5,382.5,q),
(309,370,o),
(302,369,q),
(280,367,o),
(227,356,q),
(236,235,o),
(236,232,q),
(269,242,o),
(298.5,242,q),
(328,242,o),
(360,229.5,q),
(392,217,o),
(409,206,q),
(426,195,o),
(462.5,167,q),
(499,139,o),
(508,133,q),
(534,180,o),
(534,231.5,q),
(534,283,o),
(485.5,364.5,q),
(437,446,o),
(367.5,520,q),
(298,594,o),
(212,647,q),
(126,700,o),
(65.5,700,q),
(5,700,o),
(-46,649,q),
(-88,604,o),
(-106,567,q),
(-111,558,o),
(-118,558,q),
(-125,558,o),
(-129,560,q),
(-141,565,o),
(-141,576,q),
(-140,583,l),
(-115,629,o),
(-38,702,q),
(0,739,o),
(48.5,764.5,q),
(97,790,o),
(143.5,790,q),
(190,790,o),
(252,766,q),
(314,742,o),
(376,696.5,q),
(438,651,o),
(490.5,593.5,q),
(543,536,o),
(575.5,461.5,q),
(608,387,o),
(608,304.5,q),
(608,222,o),
(543,111,q),
(580,90,o),
(615,90,q),
(626,90,o),
(644,102.5,q),
(662,115,o),
(669,115,q),
(683,115,o),
(683,101,q),
(683,73,o),
(627.5,24.5,q),
(572,-24,o),
(518,-24,q),
(490,-24,o),
(452,-4,q),
(320,-136,o),
(167,-136,q),
(111,-136,o),
(81.5,-106,q),
(52,-76,o),
(52,-19,q),
(52,38,o),
(92,108,q),
(132,178,o),
(196,214,q),
(184,346,l),
(98,322,o),
(65,299,q),
(64,298,o),
(60,298,q),
(56,298,o),
(56,305,q),
(56,312,o),
(61.5,327.5,q),
(67,343,o),
(70,345,q),
(95,363,o),
(181,387,q),
(169,509,o),
(168.5,516,q),
(168,523,o),
(161.5,528.5,q),
(155,534,o),
(155,544.5,q),
(155,555,o),
(168,568.5,q),
(181,582,o),
(192,582,q),
(203,582,o),
(208.5,567.5,q)
);
}
);
width = 693;
}
);
unicode = 208;
},
{
category = Letter;
glyphname = Ntilde;
layers = (
{
layerId = "746fec36-5ae7-46fb-b5cd-17efca425fb8";
name = Fore;
shapes = (
{
closed = 1;
nodes = (
(155,598,o),
(158,602,q),
(161,606,o),
(165,610,q),
(175,620,o),
(181.5,620,q),
(188,620,o),
(188,611,q),
(183,587,o),
(176.5,445,q),
(170,303,o),
(170,236.5,q),
(170,170,o),
(179.5,88.5,q),
(189,7,o),
(189,-5,q),
(189,-17,o),
(174,-29.5,q),
(159,-42,o),
(145,-42,q),
(127,-42,o),
(124,-15.5,q),
(121,11,o),
(121,102.5,q),
(121,194,o),
(132,377,q),
(143,560,o),
(150,592,q)
);
},
{
closed = 1;
nodes = (
(477,-42,o),
(446,-42,q),
(400,-42,o),
(400,73,q),
(400,105,o),
(405.5,141,q),
(411,177,o),
(411,179,q),
(411,207,o),
(386.5,283.5,q),
(362,360,o),
(323,446.5,q),
(284,533,o),
(225.5,599,q),
(167,665,o),
(110,665,q),
(74,665,o),
(48,627,q),
(28,600,o),
(22,600,q),
(12,600,o),
(0,630,q),
(29,670,o),
(90,713.5,q),
(151,757,o),
(208,757,q),
(279,757,o),
(351.5,643.5,q),
(424,530,o),
(466,365,q),
(468,371,o),
(476.5,404.5,q),
(485,438,o),
(488.5,449,q),
(492,460,o),
(501,491,q),
(510,522,o),
(517.5,541.5,q),
(525,561,o),
(536,591,q),
(551,630,o),
(592,711,q),
(607,740,o),
(662,747,q),
(674,747,o),
(674,738,q),
(674,733,o),
(670,728,q),
(624,675,o),
(570.5,541,q),
(517,407,o),
(484,278,q),
(502,175,o),
(502,118,q),
(502,61,o),
(494,26,q)
);
},
{
closed = 1;
nodes = (
(346,858,o),
(373,858,q),
(400,858,o),
(430,844.5,q),
(460,831,o),
(477,831,q),
(494,831,o),
(503,833,q),
(513,833,o),
(514,825,q),
(514,809,o),
(483,791,q),
(452,773,o),
(425,773,q),
(398,773,o),
(369,786,q),
(340,799,o),
(322.5,799,q),
(305,799,o),
(296,797,q),
(286,797,o),
(285,805,q),
(285,821,o),
(315.5,839.5,q)
);
}
);
width = 543;
}
);
unicode = 209;
},
{
category = Letter;
glyphname = Ograve;
layers = (
{
layerId = "746fec36-5ae7-46fb-b5cd-17efca425fb8";
name = Fore;
shapes = (
{
closed = 1;
nodes = (
(300,963,o),
(309.5,975,q),
(319,987,o),
(339,987,q),
(359,987,o),
(370,977.5,q),
(381,968,o),
(385.5,955.5,q),
(390,943,o),
(409,927,q),
(428,911,o),
(458.5,901.5,q),
(489,892,o),
(489,877,q),
(489,865,o),
(474.5,865,q),
(460,865,o),
(440.5,867,q),
(421,869,o),
(384.5,875.5,q),
(348,882,o),
(324,901.5,q),
(300,921,o),
(300,950,q)
);
},
{
closed = 1;
nodes = (
(196,410,o),
(196,345.5,q),
(196,281,o),
(238,226.5,q),
(280,172,o),
(349,172,q),
(388,172,o),
(428,189,q),
(355,92,o),
(269,92,q),
(221,92,o),
(186,114,q),
(151,136,o),
(134,172,q),
(100,242,o),
(100,325.5,q),
(100,409,o),
(147.5,513,q),
(195,617,o),
(267,689.5,q),
(339,762,o),
(404,762,q),
(432,762,o),
(443.5,752.5,q),
(455,743,o),
(455,718,q),
(455,714,o),
(456,713,q),
(385,702,o),
(323,636.5,q),
(261,571,o),
(228.5,490.5,q)
);
},
{
closed = 1;
nodes = (
(368,263,o),
(320.5,305.5,q),
(273,348,o),
(273,428.5,q),
(273,509,o),
(324,580.5,q),
(375,652,o),
(439,652,q),
(489,652,o),
(515.5,609,q),
(542,566,o),
(542,507,q),
(542,399,o),
(480,273,q),
(448,263,o),
(417,263,q)
);
},
{
closed = 1;
nodes = (
(531,767,o),
(531,787.5,q),
(531,808,o),
(512.5,824,q),
(494,840,o),
(474,840,q),
(422,840,o),
(358,804,q),
(294,768,o),
(231.5,702.5,q),
(169,637,o),
(117,555.5,q),
(65,474,o),
(32.5,374,q),
(0,274,o),
(0,175,q),
(0,76,o),
(45,11,q),
(90,-54,o),
(175,-54,q),
(260,-54,o),
(346,24,q),
(432,102,o),
(496,225,q),
(543,258,o),
(578,298,q),
(613,338,o),
(614,354,q),
(614,359,o),
(610,363.5,q),
(606,368,o),
(603,368,q),
(600,368,o),
(598,366,q),
(596,364,o),
(590,356.5,q),
(584,349,o),
(576,340,q),
(556,317,o),
(529,298,q),
(591,447,o),
(591,575,q),
(591,632,o),
(563,673.5,q),
(535,715,o),
(484,715,q),
(503,724,o),
(517,745.5,q)
);
}
);
width = 530;
}
);
unicode = 210;
},
{
category = Letter;
glyphname = Oacute;
layers = (
{
layerId = "746fec36-5ae7-46fb-b5cd-17efca425fb8";
name = Fore;
shapes = (
{
closed = 1;
nodes = (
(491,932,o),
(464,911.5,q),
(437,891,o),
(399,882,q),
(334,868,o),
(301,868,q),
(286,868,o),
(286,880,q),
(286,894,o),
(312,903,q),
(354,917,o),
(377,935.5,q),
(400,954,o),
(404,967,q),
(415,998,o),
(454,998,q),
(472,998,o),
(481.5,986,q),
(491,974,o),
(491,961,q)
);
},
{
closed = 1;
nodes = (
(196,281,o),
(196,345.5,q),
(196,410,o),
(228.5,490.5,q),
(261,571,o),
(323,636.5,q),
(385,702,o),
(456,713,q),
(455,714,o),
(455,718,q),
(455,743,o),
(443.5,752.5,q),
(432,762,o),
(404,762,q),
(339,762,o),
(267,689.5,q),
(195,617,o),
(147.5,513,q),
(100,409,o),
(100,321,q),
(100,242,o),
(134,172,q),
(151,136,o),
(186,114,q),
(221,92,o),
(269,92,q),
(355,92,o),
(428,189,q),
(388,172,o),
(349,172,q),
(280,172,o),
(238,226.5,q)
);
},
{
closed = 1;
nodes = (
(448,263,o),
(480,273,q),
(542,399,o),
(542,507,q),
(542,566,o),
(515.5,609,q),
(489,652,o),
(439,652,q),
(375,652,o),
(324,580.5,q),
(273,509,o),
(273,428.5,q),
(273,348,o),
(320.5,305.5,q),
(368,263,o),
(417,263,q)
);
},
{
closed = 1;
nodes = (
(531,808,o),
(531,787.5,q),
(531,767,o),
(517,745.5,q),
(503,724,o),
(484,715,q),
(535,715,o),
(563,673.5,q),
(591,632,o),
(591,575,q),
(591,447,o),
(529,298,q),
(562,322,o),
(590,356,q),
(599,368,o),
(602.5,368,q),
(606,368,o),
(610,363.5,q),
(614,359,o),
(614,354,q),
(613,338,o),
(578,298,q),
(543,258,o),
(496,225,q),
(432,102,o),
(346,24,q),
(260,-54,o),
(175,-54,q),
(90,-54,o),
(45,11,q),
(0,76,o),
(0,175,q),
(0,274,o),
(32.5,374,q),
(65,474,o),
(117,555.5,q),
(169,637,o),
(231.5,702.5,q),
(294,768,o),
(358,804,q),
(422,840,o),
(474,840,q),
(494,840,o),
(512.5,824,q)
);
}
);
width = 530;
}
);
unicode = 211;
},
{
category = Letter;
glyphname = Ocircumflex;
layers = (
{
layerId = "746fec36-5ae7-46fb-b5cd-17efca425fb8";
name = Fore;
shapes = (
{
closed = 1;
nodes = (
(373,859,o),
(327.5,859,q),
(282,859,o),
(282,877,q),
(282,888,o),
(308.5,897.5,q),
(335,907,o),
(351,921.5,q),
(367,936,o),
(373,948.5,q),
(379,961,o),
(389,970,q),
(399,979,o),
(414,979,q),
(429,979,o),
(439,970,q),
(449,961,o),
(455,948.5,q),
(461,936,o),
(477,921.5,q),
(493,907,o),
(519.5,897.5,q),
(546,888,o),
(546,877,q),
(546,859,o),
(500.5,859,q),
(455,859,o),
(414,895,q)
);
},
{
closed = 1;
nodes = (
(196,410,o),
(196,345.5,q),
(196,281,o),
(238,226.5,q),
(280,172,o),
(349,172,q),
(388,172,o),
(428,189,q),
(355,92,o),
(269,92,q),
(221,92,o),
(186,114,q),
(151,136,o),
(134,172,q),
(100,242,o),
(100,325.5,q),
(100,409,o),
(147.5,513,q),
(195,617,o),
(267,689.5,q),
(339,762,o),
(404,762,q),
(432,762,o),
(443.5,752.5,q),
(455,743,o),
(455,718,q),
(455,714,o),
(456,713,q),
(385,702,o),
(323,636.5,q),
(261,571,o),
(228.5,490.5,q)
);
},
{
closed = 1;
nodes = (
(368,263,o),
(320.5,305.5,q),
(273,348,o),
(273,428.5,q),
(273,509,o),
(324,580.5,q),
(375,652,o),
(439,652,q),
(489,652,o),
(515.5,609,q),
(542,566,o),
(542,507,q),
(542,399,o),
(480,273,q),
(448,263,o),
(417,263,q)
);
},
{
closed = 1;
nodes = (
(531,767,o),
(531,787.5,q),
(531,808,o),
(512.5,824,q),
(494,840,o),
(474,840,q),
(422,840,o),
(358,804,q),
(294,768,o),
(231.5,702.5,q),
(169,637,o),
(117,555.5,q),
(65,474,o),
(32.5,374,q),
(0,274,o),
(0,175,q),
(0,76,o),
(45,11,q),
(90,-54,o),
(175,-54,q),
(260,-54,o),
(346,24,q),
(432,102,o),
(496,225,q),
(543,258,o),
(578,298,q),
(613,338,o),
(614,354,q),
(614,359,o),
(610,363.5,q),
(606,368,o),
(603,368,q),
(600,368,o),
(598,366,q),
(596,364,o),
(590,356.5,q),
(584,349,o),
(576,340,q),
(556,317,o),
(529,298,q),
(591,447,o),
(591,575,q),
(591,632,o),
(563,673.5,q),
(535,715,o),
(484,715,q),
(503,724,o),
(517,745.5,q)
);
}
);
width = 530;
}
);
unicode = 212;
},
{
category = Letter;
glyphname = Otilde;
layers = (
{
layerId = "746fec36-5ae7-46fb-b5cd-17efca425fb8";
name = Fore;
shapes = (
{
closed = 1;
nodes = (
(327,943,o),
(354.5,943,q),
(382,943,o),
(412,929.5,q),
(442,916,o),
(458.5,916,q),
(475,916,o),
(484,918,q),
(494,918,o),
(495,910,q),
(495,894,o),
(464,876,q),
(433,858,o),
(406,858,q),
(379,858,o),
(350,871,q),
(321,884,o),
(303.5,884,q),
(286,884,o),
(277,882,q),
(267,882,o),
(266,890,q),
(266,906,o),
(296.5,924.5,q)
);
},
{
closed = 1;
nodes = (
(196,281,o),
(196,345.5,q),
(196,410,o),
(228.5,490.5,q),
(261,571,o),
(323,636.5,q),
(385,702,o),
(456,713,q),
(455,714,o),
(455,718,q),
(455,743,o),
(443.5,752.5,q),
(432,762,o),
(404,762,q),
(339,762,o),
(267,689.5,q),
(195,617,o),
(147.5,513,q),
(100,409,o),
(100,321,q),
(100,242,o),
(134,172,q),
(151,136,o),
(186,114,q),
(221,92,o),
(269,92,q),
(355,92,o),
(428,189,q),
(388,172,o),
(349,172,q),
(280,172,o),
(238,226.5,q)
);
},
{
closed = 1;
nodes = (
(448,263,o),
(480,273,q),
(542,399,o),
(542,507,q),
(542,566,o),
(515.5,609,q),
(489,652,o),
(439,652,q),
(375,652,o),
(324,580.5,q),
(273,509,o),
(273,428.5,q),
(273,348,o),
(320.5,305.5,q),
(368,263,o),
(417,263,q)
);
},
{
closed = 1;
nodes = (
(531,808,o),
(531,787.5,q),
(531,767,o),
(517,745.5,q),
(503,724,o),
(484,715,q),
(535,715,o),
(563,673.5,q),
(591,632,o),
(591,575,q),
(591,447,o),
(529,298,q),
(562,322,o),
(590,356,q),
(599,368,o),
(602.5,368,q),
(606,368,o),
(610,363.5,q),
(614,359,o),
(614,354,q),
(613,338,o),
(578,298,q),
(543,258,o),
(496,225,q),
(432,102,o),
(346,24,q),
(260,-54,o),
(175,-54,q),
(90,-54,o),
(45,11,q),
(0,76,o),
(0,175,q),
(0,274,o),
(32.5,374,q),
(65,474,o),
(117,555.5,q),
(169,637,o),
(231.5,702.5,q),
(294,768,o),
(358,804,q),
(422,840,o),
(474,840,q),
(494,840,o),
(512.5,824,q)
);
}
);
width = 530;
}
);
unicode = 213;
},
{
category = Letter;
glyphname = Odieresis;
layers = (
{
layerId = "746fec36-5ae7-46fb-b5cd-17efca425fb8";
name = Fore;
shapes = (
{
closed = 1;
nodes = (
(234,944,o),
(249.5,961,q),
(265,978,o),
(288,978,q),
(311,978,o),
(326.5,961,q),
(342,944,o),
(342,919,q),
(342,894,o),
(326.5,877,q),
(311,860,o),
(288,860,q),
(265,860,o),
(249.5,877,q),
(234,894,o),
(234,919,q)
);
},
{
closed = 1;
nodes = (
(374,944,o),
(389.5,961,q),
(405,978,o),
(428,978,q),
(451,978,o),
(466.5,961,q),
(482,944,o),
(482,919,q),
(482,894,o),
(466.5,877,q),
(451,860,o),
(428,860,q),
(405,860,o),
(389.5,877,q),
(374,894,o),
(374,919,q)
);
},
{
closed = 1;
nodes = (
(196,281,o),
(196,345.5,q),
(196,410,o),
(228.5,490.5,q),
(261,571,o),
(323,636.5,q),
(385,702,o),
(456,713,q),
(455,714,o),
(455,718,q),
(455,743,o),
(443.5,752.5,q),
(432,762,o),
(404,762,q),
(339,762,o),
(267,689.5,q),
(195,617,o),
(147.5,513,q),
(100,409,o),
(100,321,q),
(100,242,o),
(134,172,q),
(151,136,o),
(186,114,q),
(221,92,o),
(269,92,q),
(355,92,o),
(428,189,q),
(388,172,o),
(349,172,q),
(280,172,o),
(238,226.5,q)
);
},
{
closed = 1;
nodes = (
(448,263,o),
(480,273,q),
(542,399,o),
(542,507,q),
(542,566,o),
(515.5,609,q),
(489,652,o),
(439,652,q),
(375,652,o),
(324,580.5,q),
(273,509,o),
(273,428.5,q),
(273,348,o),
(320.5,305.5,q),
(368,263,o),
(417,263,q)
);
},
{
closed = 1;
nodes = (
(531,808,o),
(531,787.5,q),
(531,767,o),
(517,745.5,q),
(503,724,o),
(484,715,q),
(535,715,o),
(563,673.5,q),
(591,632,o),
(591,575,q),
(591,447,o),
(529,298,q),
(562,322,o),
(590,356,q),
(599,368,o),
(602.5,368,q),
(606,368,o),
(610,363.5,q),
(614,359,o),
(614,354,q),
(613,338,o),
(578,298,q),
(543,258,o),
(496,225,q),
(432,102,o),
(346,24,q),
(260,-54,o),
(175,-54,q),
(90,-54,o),
(45,11,q),
(0,76,o),
(0,175,q),
(0,274,o),
(32.5,374,q),
(65,474,o),
(117,555.5,q),
(169,637,o),
(231.5,702.5,q),
(294,768,o),
(358,804,q),
(422,840,o),
(474,840,q),
(494,840,o),
(512.5,824,q)
);
}
);
width = 530;
}
);
unicode = 214;
},
{
category = Letter;
glyphname = multiply;
layers = (
{
layerId = "746fec36-5ae7-46fb-b5cd-17efca425fb8";
name = Fore;
shapes = (
{
closed = 1;
nodes = (
(211,26,o),
(152,84,q),
(124,55,o),
(93,17,q),
(91,15,o),
(84,15,q),
(77,15,o),
(64,22,q),
(51,29,o),
(51,38,q),
(51,47,o),
(52.5,51,q),
(54,55,o),
(59.5,61.5,q),
(65,68,o),
(70.5,73.5,q),
(76,79,o),
(89.5,92,q),
(103,105,o),
(116,118,q),
(105,129,o),
(81.5,149.5,q),
(58,170,o),
(53,174.5,q),
(48,179,o),
(48,186,q),
(48,193,o),
(55,206,q),
(62,219,o),
(72.5,219,q),
(83,219,o),
(91,214,q),
(99,209,o),
(105,202,q),
(120,185,o),
(150,152,q),
(197,201,l),
(217,221,o),
(227.5,221,q),
(238,221,o),
(247.5,211.5,q),
(257,202,o),
(257,191.5,q),
(257,181,o),
(255,179,q),
(216,146,o),
(185,117,q),
(229,72,l),
(241,60,o),
(241,51,q),
(241,42,o),
(233.5,34,q),
(226,26,o),
(222,26,q)
);
}
);
width = 267;
}
);
unicode = 215;
},
{
category = Letter;
glyphname = Oslash;
layers = (
{
layerId = "746fec36-5ae7-46fb-b5cd-17efca425fb8";
name = Fore;
shapes = (
{
closed = 1;
nodes = (
(388,172,o),
(349.5,172,q),
(311,172,o),
(282,189,q),
(256,123,o),
(245,93,q),
(252,92,o),
(269,92,q),
(355,92,o),
(428,189,q)
);
},
{
closed = 1;
nodes = (
(273,378,o),
(294,339,q),
(361,510,o),
(418,650,q),
(360,637,o),
(316.5,569,q),
(273,501,o),
(273,428,q)
);
},
{
closed = 1;
nodes = (
(448,263,o),
(480,273,q),
(542,399,o),
(542,507,q),
(542,557,o),
(522.5,597,q),
(503,637,o),
(465,648,q),
(390,460,l),
(339,333,o),
(326,300,q),
(369,263,o),
(417,263,q)
);
},
{
closed = 1;
nodes = (
(196,270,o),
(196,339,q),
(196,408,o),
(227,485.5,q),
(258,563,o),
(316.5,628.5,q),
(375,694,o),
(443,710,q),
(447,718,o),
(453,734,q),
(448,762,o),
(404,762,q),
(339,762,o),
(267,689.5,q),
(195,617,o),
(147.5,513,q),
(100,409,o),
(100,331.5,q),
(100,254,o),
(123.5,192.5,q),
(147,131,o),
(201,106,q),
(222,158,o),
(246,217,q)
);
},
{
closed = 1;
nodes = (
(136,-50,l),
(71,-36,o),
(35.5,26,q),
(0,88,o),
(0,181,q),
(0,274,o),
(32.5,374,q),
(65,474,o),
(117,555.5,q),
(169,637,o),
(231.5,702.5,q),
(294,768,o),
(358,804,q),
(422,840,o),
(474,840,q),
(483,840,o),
(496,835,q),
(511,870,o),
(523,895,q),
(530,908,o),
(538,908,q),
(546,908,o),
(558,905.5,q),
(570,903,o),
(570,900,q),
(570,891,o),
(565,881.5,q),
(560,872,o),
(528,800,q),
(531,792,o),
(531,780.5,q),
(531,769,o),
(520.5,751.5,q),
(510,734,o),
(495,722,q),
(494,720,o),
(492,714,q),
(539,710,o),
(565,669.5,q),
(591,629,o),
(591,575,q),
(591,447,o),
(529,298,q),
(562,322,o),
(590,356,q),
(599,368,o),
(602.5,368,q),
(606,368,o),
(610,363.5,q),
(614,359,o),
(614,354,q),
(613,338,o),
(578,298,q),
(543,258,o),
(496,225,q),
(435,107,o),
(353,30,q),
(271,-47,o),
(186,-53,q),
(172,-87,o),
(156,-127,q),
(146,-150,o),
(120,-150,q),
(115,-150,o),
(106.5,-147,q),
(98,-144,o),
(98,-139,q)
);
}
);
width = 530;
}
);
unicode = 216;
},
{
category = Letter;
glyphname = Ugrave;
layers = (
{
layerId = "746fec36-5ae7-46fb-b5cd-17efca425fb8";
name = Fore;
shapes = (
{
closed = 1;
nodes = (
(237,874,o),
(246.5,886,q),
(256,898,o),
(276,898,q),
(296,898,o),
(307,888.5,q),
(318,879,o),
(322.5,866.5,q),
(327,854,o),
(346,838,q),
(365,822,o),
(395.5,812.5,q),
(426,803,o),
(426,788,q),
(426,776,o),
(411.5,776,q),
(397,776,o),
(377.5,778,q),
(358,780,o),
(321.5,786.5,q),
(285,793,o),
(261,812.5,q),
(237,832,o),
(237,861,q)
);
},
{
closed = 1;
nodes = (
(510,566,o),
(510,590,q),
(508,648,o),
(487,648,q),
(466,648,o),
(456,598.5,q),
(446,549,o),
(446,472,q),
(446,395,o),
(464,316,q),
(511,442,o),
(511,562,q)
);
},
{
closed = 1;
nodes = (
(102,574,o),
(102,371,q),
(102,341,o),
(107,293,q),
(112,245,o),
(122,217,q),
(132,189,o),
(147,162,q),
(179,104,o),
(250.5,104,q),
(322,104,o),
(382,174,q),
(371,234,o),
(371,303,q),
(383,494,o),
(425.5,620,q),
(468,746,o),
(522,746,q),
(561,746,o),
(561,644,q),
(561,570,o),
(538.5,469,q),
(516,368,o),
(475,273,q),
(502,176,o),
(550.5,113.5,q),
(599,51,o),
(668,51,q),
(686,51,o),
(702,63.5,q),
(718,76,o),
(725,76,q),
(732,76,o),
(738,68,q),
(744,60,o),
(744,52,q),
(744,24,o),
(687.5,-16.5,q),
(631,-57,o),
(559,-57,q),
(511,-57,o),
(465,-8.5,q),
(419,40,o),
(394,126,q),
(285,-29,o),
(153,-29,q),
(0,-29,o),
(0,211,q),
(0,341,o),
(40,494.5,q),
(80,648,o),
(131,729,q),
(144,750,o),
(170,750,q),
(179,750,o),
(179,740,q),
(179,734,o),
(176,725,q)
);
}
);
width = 744;
}
);
unicode = 217;
},
{
category = Letter;
glyphname = Uacute;
layers = (
{
layerId = "746fec36-5ae7-46fb-b5cd-17efca425fb8";
name = Fore;
shapes = (
{
closed = 1;
nodes = (
(469,832,o),
(442,811.5,q),
(415,791,o),
(377,782,q),
(312,768,o),
(279,768,q),
(264,768,o),
(264,780,q),
(264,794,o),
(290,803,q),
(332,817,o),
(355,835.5,q),
(378,854,o),
(382,867,q),
(393,898,o),
(432,898,q),
(450,898,o),
(459.5,886,q),
(469,874,o),
(469,861,q)
);
},
{
closed = 1;
nodes = (
(510,566,o),
(510,590,q),
(508,648,o),
(487,648,q),
(466,648,o),
(456,598.5,q),
(446,549,o),
(446,472,q),
(446,395,o),
(464,316,q),
(511,442,o),
(511,562,q)
);
},
{
closed = 1;
nodes = (
(102,574,o),
(102,371,q),
(102,341,o),
(107,293,q),
(112,245,o),
(122,217,q),
(132,189,o),
(147,162,q),
(179,104,o),
(250.5,104,q),
(322,104,o),
(382,174,q),
(371,234,o),
(371,303,q),
(383,494,o),
(425.5,620,q),
(468,746,o),
(522,746,q),
(561,746,o),
(561,644,q),
(561,570,o),
(538.5,469,q),
(516,368,o),
(475,273,q),
(502,176,o),
(550.5,113.5,q),
(599,51,o),
(668,51,q),
(686,51,o),
(702,63.5,q),
(718,76,o),
(725,76,q),
(732,76,o),
(738,68,q),
(744,60,o),
(744,52,q),
(744,24,o),
(687.5,-16.5,q),
(631,-57,o),
(559,-57,q),
(511,-57,o),
(465,-8.5,q),
(419,40,o),
(394,126,q),
(285,-29,o),
(153,-29,q),
(0,-29,o),
(0,211,q),
(0,341,o),
(40,494.5,q),
(80,648,o),
(131,729,q),
(144,750,o),
(170,750,q),
(179,750,o),
(179,740,q),
(179,734,o),
(176,725,q)
);
}
);
width = 744;
}
);
unicode = 218;
},
{
category = Letter;
glyphname = Ucircumflex;
layers = (
{
layerId = "746fec36-5ae7-46fb-b5cd-17efca425fb8";
name = Fore;
shapes = (
{
closed = 1;
nodes = (
(510,566,o),
(510,590,q),
(508,648,o),
(487,648,q),
(466,648,o),
(456,598.5,q),
(446,549,o),
(446,472,q),
(446,395,o),
(464,316,q),
(511,442,o),
(511,562,q)
);
},
{
closed = 1;
nodes = (
(306,772,o),
(260.5,772,q),
(215,772,o),
(215,790,q),
(215,801,o),
(241.5,810.5,q),
(268,820,o),
(284,834.5,q),
(300,849,o),
(306,861.5,q),
(312,874,o),
(322,883,q),
(332,892,o),
(347,892,q),
(362,892,o),
(372,883,q),
(382,874,o),
(388,861.5,q),
(394,849,o),
(410,834.5,q),
(426,820,o),
(452.5,810.5,q),
(479,801,o),
(479,790,q),
(479,772,o),
(433.5,772,q),
(388,772,o),
(347,808,q)
);
},
{
closed = 1;
nodes = (
(102,574,o),
(102,371,q),
(102,341,o),
(107,293,q),
(112,245,o),
(122,217,q),
(132,189,o),
(147,162,q),
(179,104,o),
(250.5,104,q),
(322,104,o),
(382,174,q),
(371,234,o),
(371,303,q),
(383,494,o),
(425.5,620,q),
(468,746,o),
(522,746,q),
(561,746,o),
(561,644,q),
(561,570,o),
(538.5,469,q),
(516,368,o),
(475,273,q),
(502,176,o),
(550.5,113.5,q),
(599,51,o),
(668,51,q),
(686,51,o),
(702,63.5,q),
(718,76,o),
(725,76,q),
(732,76,o),
(738,68,q),
(744,60,o),
(744,52,q),
(744,24,o),
(687.5,-16.5,q),
(631,-57,o),
(559,-57,q),
(511,-57,o),
(465,-8.5,q),
(419,40,o),
(394,126,q),
(285,-29,o),
(153,-29,q),
(0,-29,o),
(0,211,q),
(0,341,o),
(40,494.5,q),
(80,648,o),
(131,729,q),
(144,750,o),
(170,750,q),
(179,750,o),
(179,740,q),
(179,734,o),
(176,725,q)
);
}
);
width = 744;
}
);
unicode = 219;
},
{
category = Letter;
glyphname = Udieresis;
layers = (
{
layerId = "746fec36-5ae7-46fb-b5cd-17efca425fb8";
name = Fore;
shapes = (
{
closed = 1;
nodes = (
(382,868,o),
(397.5,885,q),
(413,902,o),
(436,902,q),
(459,902,o),
(474.5,885,q),
(490,868,o),
(490,843,q),
(490,818,o),
(474.5,801,q),
(459,784,o),
(436,784,q),
(413,784,o),
(397.5,801,q),
(382,818,o),
(382,843,q)
);
},
{
closed = 1;
nodes = (
(242,868,o),
(257.5,885,q),
(273,902,o),
(296,902,q),
(319,902,o),
(334.5,885,q),
(350,868,o),
(350,843,q),
(350,818,o),
(334.5,801,q),
(319,784,o),
(296,784,q),
(273,784,o),
(257.5,801,q),
(242,818,o),
(242,843,q)
);
},
{
closed = 1;
nodes = (
(510,566,o),
(510,590,q),
(508,648,o),
(487,648,q),
(466,648,o),
(456,598.5,q),
(446,549,o),
(446,472,q),
(446,395,o),
(464,316,q),
(511,442,o),
(511,562,q)
);
},
{
closed = 1;
nodes = (
(102,574,o),
(102,371,q),
(102,341,o),
(107,293,q),
(112,245,o),
(122,217,q),
(132,189,o),
(147,162,q),
(179,104,o),
(250.5,104,q),
(322,104,o),
(382,174,q),
(371,234,o),
(371,303,q),
(383,494,o),
(425.5,620,q),
(468,746,o),
(522,746,q),
(561,746,o),
(561,644,q),
(561,570,o),
(538.5,469,q),
(516,368,o),
(475,273,q),
(502,176,o),
(550.5,113.5,q),
(599,51,o),
(668,51,q),
(686,51,o),
(702,63.5,q),
(718,76,o),
(725,76,q),
(732,76,o),
(738,68,q),
(744,60,o),
(744,52,q),
(744,24,o),
(687.5,-16.5,q),
(631,-57,o),
(559,-57,q),
(511,-57,o),
(465,-8.5,q),
(419,40,o),
(394,126,q),
(285,-29,o),
(153,-29,q),
(0,-29,o),
(0,211,q),
(0,341,o),
(40,494.5,q),
(80,648,o),
(131,729,q),
(144,750,o),
(170,750,q),
(179,750,o),
(179,740,q),
(179,734,o),
(176,725,q)
);
}
);
width = 744;
}
);
unicode = 220;
},
{
category = Letter;
glyphname = Yacute;
layers = (
{
layerId = "746fec36-5ae7-46fb-b5cd-17efca425fb8";
name = Fore;
shapes = (
{
closed = 1;
nodes = (
(559,692,o),
(529,616.5,q),
(499,541,o),
(477,422,q),
(529,482,o),
(563.5,557.5,q),
(598,633,o),
(598,681,q),
(598,692,o),
(590,692,q)
);
},
{
closed = 1;
nodes = (
(455,822,o),
(428,801.5,q),
(401,781,o),
(363,772,q),
(298,758,o),
(265,758,q),
(250,758,o),
(250,770,q),
(250,784,o),
(276,793,q),
(318,807,o),
(341,825.5,q),
(364,844,o),
(368,857,q),
(379,888,o),
(418,888,q),
(436,888,o),
(445.5,876,q),
(455,864,o),
(455,851,q)
);
},
{
closed = 1;
nodes = (
(470,-27,l),
(485,-29,o),
(486,-44,q),
(483,-106,o),
(449,-156,q),
(430,-183,o),
(407,-183,q),
(377,-183,o),
(377,-72,q),
(377,125,o),
(412,317,q),
(289,214,o),
(176,214,q),
(108,214,o),
(54.5,276.5,q),
(1,339,o),
(1,433,q),
(1,554,o),
(75,697,q),
(81,712,o),
(90.5,712,q),
(100,712,o),
(105,707,q),
(110,702,o),
(110,697,q),
(110,692,o),
(107,686,q),
(89,636,o),
(89,581.5,q),
(89,527,o),
(112,469,q),
(135,411,o),
(185.5,367.5,q),
(236,324,o),
(300,324,q),
(364,324,o),
(423,372,q),
(461,551,o),
(518.5,662.5,q),
(576,774,o),
(635,774,q),
(671,774,o),
(671,735,q),
(671,671,o),
(612.5,564,q),
(554,457,o),
(467,368,q),
(445,230,o),
(445,116.5,q),
(445,3,o),
(450,-16,q),
(452,-31,o),
(458,-31,q)
);
}
);
width = 530;
}
);
unicode = 221;
},
{
category = Letter;
glyphname = Thorn;
layers = (
{
layerId = "746fec36-5ae7-46fb-b5cd-17efca425fb8";
name = Fore;
shapes = (
{
closed = 1;
nodes = (
(356,116,o),
(348,216,q),
(324,498,o),
(317,674,q),
(314,674,l),
(192,674,o),
(124.5,599.5,q),
(57,525,o),
(57,399,q),
(57,273,o),
(149.5,174.5,q),
(242,76,o),
(341,76,q),
(354,76,o),
(357,103,q)
);
},
{
closed = 1;
nodes = (
(402,166,o),
(402,187,q),
(402,198,o),
(417,205,q),
(536,289,o),
(536,418,q),
(536,488,o),
(501,562,q),
(483,601,o),
(446.5,630,q),
(410,659,o),
(361,669,q),
(377,299,o),
(378,285.5,q),
(379,272,o),
(392,158.5,q),
(405,45,o),
(405,17,q),
(405,-11,o),
(389.5,-35.5,q),
(374,-60,o),
(345,-60,q),
(290,-60,o),
(229.5,-27,q),
(169,6,o),
(119,58.5,q),
(69,111,o),
(36,184,q),
(3,257,o),
(3,331,q),
(3,499,o),
(83,611.5,q),
(163,724,o),
(314,752,q),
(314,826,l),
(314,846,o),
(323.5,860,q),
(333,874,o),
(351,874,q),
(357,874,o),
(357,847,q),
(357,758,l),
(382,761,o),
(419.5,761,q),
(457,761,o),
(494.5,745.5,q),
(532,730,o),
(556,705.5,q),
(580,681,o),
(596,651,q),
(626,597,o),
(626,540.5,q),
(626,484,o),
(613.5,431,q),
(601,378,o),
(580,340,q),
(534,256,o),
(485,211,q),
(436,166,o),
(419,166,q)
);
}
);
width = 484;
}
);
unicode = 222;
},
{
category = Letter;
glyphname = germandbls;
layers = (
{
layerId = "746fec36-5ae7-46fb-b5cd-17efca425fb8";
name = Fore;
shapes = (
{
closed = 1;
nodes = (
(62,53,l),
(83,41,o),
(113,41,q),
(196,41,o),
(196,63,q),
(196,105,o),
(165,135.5,q),
(134,166,o),
(113,166,q),
(108,166,o),
(103,160,q),
(64,121,l),
(63,97,o),
(63,61,q)
);
},
{
closed = 1;
nodes = (
(137,471,o),
(130.5,484,q),
(124,497,o),
(116,497,q),
(84,497,o),
(74,322,q),
(69,242,o),
(66,167,q),
(137,275,o),
(137,458,q)
);
},
{
closed = 1;
nodes = (
(26,-89,l),
(26,-57,l),
(-9,-52,o),
(-32,-34.5,q),
(-55,-17,o),
(-55,-7.5,q),
(-55,2,o),
(-48,10,q),
(-42,18,o),
(-28,34,q),
(2,69,o),
(6,75,q),
(10,81,o),
(16,81,q),
(22,81,o),
(28,79,q),
(34,503,o),
(90,583,q),
(106,605,o),
(126,605,q),
(178,605,o),
(178,521,q),
(178,373,o),
(114,217,q),
(152,258,o),
(165,258,q),
(193,258,o),
(229,220,q),
(265,182,o),
(265,150.5,q),
(265,119,o),
(254.5,88,q),
(244,57,o),
(222,23.5,q),
(200,-10,o),
(157,-33.5,q),
(114,-57,o),
(58,-59,q),
(47,-343,l),
(47,-361,o),
(35,-361,q),
(29,-361,o),
(23.5,-356.5,q),
(18,-352,o),
(18,-347,q)
);
}
);
width = 267;
}
);
unicode = 223;
},
{
category = Letter;
glyphname = agrave;
layers = (
{
layerId = "746fec36-5ae7-46fb-b5cd-17efca425fb8";
name = Fore;
shapes = (
{
closed = 1;
nodes = (
(257,128,l),
(257,140,o),
(245,140,q),
(231,140,o),
(214,106,q),
(208,93,o),
(193.5,82,q),
(179,71,o),
(157,71,q),
(102,71,o),
(102,123,q),
(102,155,o),
(118,175.5,q),
(134,196,o),
(159,196,q),
(184,196,o),
(205,175,q),
(226,154,o),
(238,154,q),
(250,154,o),
(264,169.5,q),
(278,185,o),
(278,201,q),
(278,246,o),
(212,248,q),
(168,248,o),
(88,189,q),
(52,162,o),
(26,117.5,q),
(0,73,o),
(0,24,q),
(0,-4,o),
(18.5,-22,q),
(37,-40,o),
(64,-40,q),
(91,-40,o),
(117,-20.5,q),
(143,-1,o),
(161.5,18.5,q),
(180,38,o),
(185,38,q),
(190,38,o),
(190,34,q),
(190,-29,o),
(212,-44,q),
(224,-51,o),
(246.5,-51,q),
(269,-51,o),
(298,-32,q),
(327,-13,o),
(342,4,q),
(389,57,o),
(389,66.5,q),
(389,76,o),
(376.5,76,q),
(364,76,o),
(359,71,q),
(354,66,o),
(347,61,q),
(340,56,o),
(335,52,q),
(321,43,o),
(302.5,43,q),
(284,43,o),
(268.5,62.5,q),
(253,82,o),
(253,100,q)
);
},
{
closed = 1;
nodes = (
(76,386,o),
(85.5,398,q),
(95,410,o),
(115,410,q),
(135,410,o),
(146,400.5,q),
(157,391,o),
(161.5,378.5,q),
(166,366,o),
(185,350,q),
(204,334,o),
(234.5,324.5,q),
(265,315,o),
(265,300,q),
(265,288,o),
(250.5,288,q),
(236,288,o),
(216.5,290,q),
(197,292,o),
(160.5,298.5,q),
(124,305,o),
(100,324.5,q),
(76,344,o),
(76,373,q)
);
}
);
width = 358;
}
);
unicode = 224;
},
{
category = Letter;
glyphname = aacute;
layers = (
{
layerId = "746fec36-5ae7-46fb-b5cd-17efca425fb8";
name = Fore;
shapes = (
{
closed = 1;
nodes = (
(301,344,o),
(274,323.5,q),
(247,303,o),
(209,294,q),
(144,280,o),
(111,280,q),
(96,280,o),
(96,292,q),
(96,306,o),
(122,315,q),
(164,329,o),
(187,347.5,q),
(210,366,o),
(214,379,q),
(225,410,o),
(264,410,q),
(282,410,o),
(291.5,398,q),
(301,386,o),
(301,373,q)
);
},
{
closed = 1;
nodes = (
(253,100,l),
(253,82,o),
(268.5,62.5,q),
(284,43,o),
(305,43,q),
(321,43,o),
(331,50,q),
(353,65,o),
(358.5,70.5,q),
(364,76,o),
(376.5,76,q),
(389,76,o),
(389,67,q),
(389,57,o),
(342,4,q),
(327,-13,o),
(298,-32,q),
(269,-51,o),
(246.5,-51,q),
(224,-51,o),
(212.5,-43.5,q),
(201,-36,o),
(196,-20,q),
(190,2,o),
(190,34,q),
(190,38,o),
(185,38,q),
(180,38,o),
(162,18,q),
(106,-40,o),
(71.5,-40,q),
(37,-40,o),
(18.5,-22,q),
(0,-4,o),
(0,24,q),
(0,73,o),
(26,117.5,q),
(52,162,o),
(88,189,q),
(168,248,o),
(212,248,q),
(278,246,o),
(278,201,q),
(278,185,o),
(264,169.5,q),
(250,154,o),
(238,154,q),
(226,154,o),
(205,175,q),
(184,196,o),
(159,196,q),
(134,196,o),
(118,175.5,q),
(102,155,o),
(102,123,q),
(102,71,o),
(157,71,q),
(179,71,o),
(193.5,82,q),
(208,93,o),
(214,106,q),
(231,140,o),
(245,140,q),
(257,140,o),
(257,128,q)
);
}
);
width = 358;
}
);
unicode = 225;
},
{
category = Letter;
glyphname = acircumflex;
layers = (
{
layerId = "746fec36-5ae7-46fb-b5cd-17efca425fb8";
name = Fore;
shapes = (
{
closed = 1;
nodes = (
(257,128,l),
(257,140,o),
(245,140,q),
(231,140,o),
(214,106,q),
(208,93,o),
(193.5,82,q),
(179,71,o),
(157,71,q),
(102,71,o),
(102,123,q),
(102,155,o),
(118,175.5,q),
(134,196,o),
(159,196,q),
(184,196,o),
(205,175,q),
(226,154,o),
(238,154,q),
(250,154,o),
(264,169.5,q),
(278,185,o),
(278,201,q),
(278,246,o),
(212,248,q),
(168,248,o),
(88,189,q),
(52,162,o),
(26,117.5,q),
(0,73,o),
(0,24,q),
(0,-4,o),
(18.5,-22,q),
(37,-40,o),
(64,-40,q),
(91,-40,o),
(117,-20.5,q),
(143,-1,o),
(161.5,18.5,q),
(180,38,o),
(185,38,q),
(190,38,o),
(190,34,q),
(190,-29,o),
(212,-44,q),
(224,-51,o),
(246.5,-51,q),
(269,-51,o),
(298,-32,q),
(327,-13,o),
(342,4,q),
(389,57,o),
(389,66.5,q),
(389,76,o),
(376.5,76,q),
(364,76,o),
(359,71,q),
(354,66,o),
(347,61,q),
(340,56,o),
(335,52,q),
(321,43,o),
(302.5,43,q),
(284,43,o),
(268.5,62.5,q),
(253,82,o),
(253,100,q)
);
},
{
closed = 1;
nodes = (
(138,290,o),
(92.5,290,q),
(47,290,o),
(47,308,q),
(47,319,o),
(73.5,328.5,q),
(100,338,o),
(116,352.5,q),
(132,367,o),
(138,379.5,q),
(144,392,o),
(154,401,q),
(164,410,o),
(179,410,q),
(194,410,o),
(204,401,q),
(214,392,o),
(220,379.5,q),
(226,367,o),
(242,352.5,q),
(258,338,o),
(284.5,328.5,q),
(311,319,o),
(311,308,q),
(311,290,o),
(265.5,290,q),
(220,290,o),
(179,326,q)
);
}
);
width = 358;
}
);
unicode = 226;
},
{
category = Letter;
glyphname = atilde;
layers = (
{
layerId = "746fec36-5ae7-46fb-b5cd-17efca425fb8";
name = Fore;
shapes = (
{
closed = 1;
nodes = (
(253,100,l),
(253,82,o),
(268.5,62.5,q),
(284,43,o),
(305,43,q),
(321,43,o),
(331,50,q),
(353,65,o),
(358.5,70.5,q),
(364,76,o),
(376.5,76,q),
(389,76,o),
(389,67,q),
(389,57,o),
(342,4,q),
(327,-13,o),
(298,-32,q),
(269,-51,o),
(246.5,-51,q),
(224,-51,o),
(212.5,-43.5,q),
(201,-36,o),
(196,-20,q),
(190,2,o),
(190,34,q),
(190,38,o),
(185,38,q),
(180,38,o),
(162,18,q),
(106,-40,o),
(71.5,-40,q),
(37,-40,o),
(18.5,-22,q),
(0,-4,o),
(0,24,q),
(0,73,o),
(26,117.5,q),
(52,162,o),
(88,189,q),
(168,248,o),
(212,248,q),
(278,246,o),
(278,201,q),
(278,185,o),
(264,169.5,q),
(250,154,o),
(238,154,q),
(226,154,o),
(205,175,q),
(184,196,o),
(159,196,q),
(134,196,o),
(118,175.5,q),
(102,155,o),
(102,123,q),
(102,71,o),
(157,71,q),
(179,71,o),
(193.5,82,q),
(208,93,o),
(214,106,q),
(231,140,o),
(245,140,q),
(257,140,o),
(257,128,q)
);
},
{
closed = 1;
nodes = (
(125,382,o),
(152.5,382,q),
(180,382,o),
(210,368.5,q),
(240,355,o),
(256.5,355,q),
(273,355,o),
(282,357,q),
(292,357,o),
(293,349,q),
(293,333,o),
(262,315,q),
(231,297,o),
(204,297,q),
(177,297,o),
(148,310,q),
(119,323,o),
(101.5,323,q),
(84,323,o),
(75,321,q),
(65,321,o),
(64,329,q),
(64,345,o),
(94.5,363.5,q)
);
}
);
width = 358;
}
);
unicode = 227;
},
{
category = Letter;
glyphname = adieresis;
layers = (
{
layerId = "746fec36-5ae7-46fb-b5cd-17efca425fb8";
name = Fore;
shapes = (
{
closed = 1;
nodes = (
(253,100,l),
(253,82,o),
(268.5,62.5,q),
(284,43,o),
(305,43,q),
(321,43,o),
(331,50,q),
(353,65,o),
(358.5,70.5,q),
(364,76,o),
(376.5,76,q),
(389,76,o),
(389,67,q),
(389,57,o),
(342,4,q),
(327,-13,o),
(298,-32,q),
(269,-51,o),
(246.5,-51,q),
(224,-51,o),
(212.5,-43.5,q),
(201,-36,o),
(196,-20,q),
(190,2,o),
(190,34,q),
(190,38,o),
(185,38,q),
(180,38,o),
(162,18,q),
(106,-40,o),
(71.5,-40,q),
(37,-40,o),
(18.5,-22,q),
(0,-4,o),
(0,24,q),
(0,73,o),
(26,117.5,q),
(52,162,o),
(88,189,q),
(168,248,o),
(212,248,q),
(278,246,o),
(278,201,q),
(278,185,o),
(264,169.5,q),
(250,154,o),
(238,154,q),
(226,154,o),
(205,175,q),
(184,196,o),
(159,196,q),
(134,196,o),
(118,175.5,q),
(102,155,o),
(102,123,q),
(102,71,o),
(157,71,q),
(179,71,o),
(193.5,82,q),
(208,93,o),
(214,106,q),
(231,140,o),
(245,140,q),
(257,140,o),
(257,128,q)
);
},
{
closed = 1;
nodes = (
(195,378,o),
(210.5,395,q),
(226,412,o),
(249,412,q),
(272,412,o),
(287.5,395,q),
(303,378,o),
(303,353,q),
(303,328,o),
(287.5,311,q),
(272,294,o),
(249,294,q),
(226,294,o),
(210.5,311,q),
(195,328,o),
(195,353,q)
);
},
{
closed = 1;
nodes = (
(55,378,o),
(70.5,395,q),
(86,412,o),
(109,412,q),
(132,412,o),
(147.5,395,q),
(163,378,o),
(163,353,q),
(163,328,o),
(147.5,311,q),
(132,294,o),
(109,294,q),
(86,294,o),
(70.5,311,q),
(55,328,o),
(55,353,q)
);
}
);
width = 358;
}
);
unicode = 228;
},
{
category = Letter;
glyphname = aring;
layers = (
{
layerId = "746fec36-5ae7-46fb-b5cd-17efca425fb8";
name = Fore;
shapes = (
{
closed = 1;
nodes = (
(253,100,l),
(253,82,o),
(268.5,62.5,q),
(284,43,o),
(305,43,q),
(321,43,o),
(331,50,q),
(353,65,o),
(358.5,70.5,q),
(364,76,o),
(376.5,76,q),
(389,76,o),
(389,67,q),
(389,57,o),
(342,4,q),
(327,-13,o),
(298,-32,q),
(269,-51,o),
(246.5,-51,q),
(224,-51,o),
(212.5,-43.5,q),
(201,-36,o),
(196,-20,q),
(190,2,o),
(190,34,q),
(190,38,o),
(185,38,q),
(180,38,o),
(162,18,q),
(106,-40,o),
(71.5,-40,q),
(37,-40,o),
(18.5,-22,q),
(0,-4,o),
(0,24,q),
(0,73,o),
(26,117.5,q),
(52,162,o),
(88,189,q),
(168,248,o),
(212,248,q),
(278,246,o),
(278,201,q),
(278,185,o),
(264,169.5,q),
(250,154,o),
(238,154,q),
(226,154,o),
(205,175,q),
(184,196,o),
(159,196,q),
(134,196,o),
(118,175.5,q),
(102,155,o),
(102,123,q),
(102,71,o),
(157,71,q),
(179,71,o),
(193.5,82,q),
(208,93,o),
(214,106,q),
(231,140,o),
(245,140,q),
(257,140,o),
(257,128,q)
);
},
{
closed = 1;
nodes = (
(146,367,o),
(146,354.5,q),
(146,342,o),
(155,333,q),
(164,324,o),
(176.5,324,q),
(189,324,o),
(200.5,335.5,q),
(212,347,o),
(212,359.5,q),
(212,372,o),
(203,381,q),
(194,390,o),
(182,390,q),
(170,390,o),
(158,378.5,q)
);
},
{
closed = 1;
nodes = (
(111,388,o),
(130.5,410,q),
(150,432,o),
(179,432,q),
(208,432,o),
(227.5,410,q),
(247,388,o),
(247,357,q),
(247,326,o),
(227.5,304,q),
(208,282,o),
(179,282,q),
(150,282,o),
(130.5,304,q),
(111,326,o),
(111,357,q)
);
}
);
width = 358;
}
);
unicode = 229;
},
{
category = Letter;
glyphname = ae;
layers = (
{
layerId = "746fec36-5ae7-46fb-b5cd-17efca425fb8";
name = Fore;
shapes = (
{
closed = 1;
nodes = (
(270,180,o),
(270,154.5,q),
(270,129,o),
(278,109,q),
(295,115,o),
(312.5,147.5,q),
(330,180,o),
(330,201,q),
(330,222,o),
(314,223,q),
(290,223,o),
(280,201.5,q)
);
},
{
closed = 1;
nodes = (
(180,95,o),
(196,108,q),
(206,143,o),
(228,179,q),
(225,180,o),
(203.5,200,q),
(182,220,o),
(158,220,q),
(134,220,o),
(118,199.5,q),
(102,179,o),
(102,147,q),
(102,95,o),
(157,95,q)
);
},
{
closed = 1;
nodes = (
(264,269,o),
(275,240,q),
(319,284,o),
(362,284,q),
(394,284,o),
(394,258,q),
(394,223,o),
(372,185.5,q),
(350,148,o),
(291,84,q),
(318,44,o),
(364,44,q),
(392,44,o),
(410.5,56.5,q),
(429,69,o),
(445.5,89,q),
(462,109,o),
(471.5,109,q),
(481,109,o),
(481,100,q),
(481,94,o),
(477,86,q),
(444,33,o),
(395,-7.5,q),
(346,-48,o),
(291,-48,q),
(236,-48,o),
(211.5,-21.5,q),
(187,5,o),
(187,49,q),
(187,62,o),
(185,62,q),
(180,62,o),
(162,42,q),
(106,-16,o),
(71.5,-16,q),
(37,-16,o),
(18.5,2,q),
(0,20,o),
(0,48,q),
(0,97,o),
(26,141.5,q),
(52,186,o),
(88,213,q),
(168,272,o),
(212,272,q)
);
}
);
width = 437;
}
);
unicode = 230;
},
{
category = Letter;
glyphname = ccedilla;
layers = (
{
layerId = "746fec36-5ae7-46fb-b5cd-17efca425fb8";
name = Fore;
shapes = (
{
closed = 1;
nodes = (
(194,-118,o),
(88,-118,q),
(74,-118,o),
(74,-107,q),
(74,-104,o),
(101.5,-97,q),
(129,-90,o),
(129,-77,q),
(129,-62,o),
(120.5,-54.5,q),
(112,-47,o),
(111,-45,q),
(105,-46,o),
(95,-46,q),
(-8,-46,o),
(-8,43,q),
(-8,115,o),
(53.5,186.5,q),
(115,258,o),
(195,258,q),
(214,258,o),
(225.5,246.5,q),
(237,235,o),
(237,213.5,q),
(237,192,o),
(212.5,165.5,q),
(188,139,o),
(163,139,q),
(156,139,o),
(156,146,q),
(156,153,o),
(163.5,161,q),
(171,169,o),
(171,180.5,q),
(171,192,o),
(163.5,203,q),
(156,214,o),
(147,214,q),
(120,214,o),
(104,189.5,q),
(88,165,o),
(88,129.5,q),
(88,94,o),
(109,69.5,q),
(130,45,o),
(164.5,45,q),
(199,45,o),
(221.5,53.5,q),
(244,62,o),
(256,70.5,q),
(268,79,o),
(274,79,q),
(283,79,o),
(283,70,q),
(283,49,o),
(249,16.5,q),
(215,-16,o),
(165,-33,q),
(168,-40,o),
(181,-46.5,q),
(194,-53,o),
(194,-64,q)
);
}
);
width = 269;
}
);
unicode = 231;
},
{
category = Letter;
glyphname = egrave;
layers = (
{
layerId = "746fec36-5ae7-46fb-b5cd-17efca425fb8";
name = Fore;
shapes = (
{
closed = 1;
nodes = (
(134,186,o),
(134,207,q),
(134,228,o),
(118,229,q),
(94,229,o),
(84,207.5,q),
(74,186,o),
(74,160.5,q),
(74,135,o),
(82,115,q),
(99,121,o),
(116.5,153.5,q)
);
},
{
closed = 1;
nodes = (
(18,424,o),
(27.5,436,q),
(37,448,o),
(57,448,q),
(77,448,o),
(88,438.5,q),
(99,429,o),
(103.5,416.5,q),
(108,404,o),
(127,388,q),
(146,372,o),
(176.5,362.5,q),
(207,353,o),
(207,338,q),
(207,326,o),
(192.5,326,q),
(178,326,o),
(158.5,328,q),
(139,330,o),
(102.5,336.5,q),
(66,343,o),
(42,362.5,q),
(18,382,o),
(18,411,q)
);
},
{
closed = 1;
nodes = (
(196,50,o),
(214.5,62.5,q),
(233,75,o),
(249.5,95,q),
(266,115,o),
(275.5,115,q),
(285,115,o),
(285,106,q),
(285,100,o),
(281,92,q),
(248,39,o),
(199,-1.5,q),
(150,-42,o),
(95,-42,q),
(40,-42,o),
(15.5,-15.5,q),
(-9,11,o),
(-9,55,q),
(-9,131,o),
(48,210.5,q),
(105,290,o),
(166,290,q),
(198,290,o),
(198,264,q),
(198,229,o),
(176,191.5,q),
(154,154,o),
(95,90,q),
(122,50,o),
(168,50,q)
);
}
);
width = 241;
}
);
unicode = 232;
},
{
category = Letter;
glyphname = eacute;
layers = (
{
layerId = "746fec36-5ae7-46fb-b5cd-17efca425fb8";
name = Fore;
shapes = (
{
closed = 1;
nodes = (
(134,186,o),
(134,207,q),
(134,228,o),
(118,229,q),
(94,229,o),
(84,207.5,q),
(74,186,o),
(74,160.5,q),
(74,135,o),
(82,115,q),
(99,121,o),
(116.5,153.5,q)
);
},
{
closed = 1;
nodes = (
(223,369,o),
(196,348.5,q),
(169,328,o),
(131,320,q),
(66,305,o),
(33,305,q),
(18,305,o),
(18,317,q),
(18,331,o),
(44,340,q),
(86,354,o),
(109,372.5,q),
(132,391,o),
(136,404,q),
(147,435,o),
(186,435,q),
(204,435,o),
(213.5,423,q),
(223,411,o),
(223,398,q)
);
},
{
closed = 1;
nodes = (
(196,50,o),
(214.5,62.5,q),
(233,75,o),
(249.5,95,q),
(266,115,o),
(275.5,115,q),
(285,115,o),
(285,106,q),
(285,100,o),
(281,92,q),
(248,39,o),
(199,-1.5,q),
(150,-42,o),
(95,-42,q),
(40,-42,o),
(15.5,-15.5,q),
(-9,11,o),
(-9,55,q),
(-9,131,o),
(48,210.5,q),
(105,290,o),
(166,290,q),
(198,290,o),
(198,264,q),
(198,229,o),
(176,191.5,q),
(154,154,o),
(95,90,q),
(122,50,o),
(168,50,q)
);
}
);
width = 241;
}
);
unicode = 233;
},
{
category = Letter;
glyphname = ecircumflex;
layers = (
{
layerId = "746fec36-5ae7-46fb-b5cd-17efca425fb8";
name = Fore;
shapes = (
{
closed = 1;
nodes = (
(134,186,o),
(134,207,q),
(134,228,o),
(118,229,q),
(94,229,o),
(84,207.5,q),
(74,186,o),
(74,160.5,q),
(74,135,o),
(82,115,q),
(99,121,o),
(116.5,153.5,q)
);
},
{
closed = 1;
nodes = (
(90,312,o),
(44.5,312,q),
(-1,312,o),
(-1,330,q),
(-1,341,o),
(25.5,350.5,q),
(52,360,o),
(68,374.5,q),
(84,389,o),
(90,401.5,q),
(96,414,o),
(106,423,q),
(116,432,o),
(131,432,q),
(146,432,o),
(156,423,q),
(166,414,o),
(172,401.5,q),
(178,389,o),
(194,374.5,q),
(210,360,o),
(236.5,350.5,q),
(263,341,o),
(263,330,q),
(263,312,o),
(217.5,312,q),
(172,312,o),
(131,348,q)
);
},
{
closed = 1;
nodes = (
(196,50,o),
(214.5,62.5,q),
(233,75,o),
(249.5,95,q),
(266,115,o),
(275.5,115,q),
(285,115,o),
(285,106,q),
(285,100,o),
(281,92,q),
(248,39,o),
(199,-1.5,q),
(150,-42,o),
(95,-42,q),
(40,-42,o),
(15.5,-15.5,q),
(-9,11,o),
(-9,55,q),
(-9,131,o),
(48,210.5,q),
(105,290,o),
(166,290,q),
(198,290,o),
(198,264,q),
(198,229,o),
(176,191.5,q),
(154,154,o),
(95,90,q),
(122,50,o),
(168,50,q)
);
}
);
width = 241;
}
);
unicode = 234;
},
{
category = Letter;
glyphname = edieresis;
layers = (
{
layerId = "746fec36-5ae7-46fb-b5cd-17efca425fb8";
name = Fore;
shapes = (
{
closed = 1;
nodes = (
(134,186,o),
(134,207,q),
(134,228,o),
(118,229,q),
(94,229,o),
(84,207.5,q),
(74,186,o),
(74,160.5,q),
(74,135,o),
(82,115,q),
(99,121,o),
(116.5,153.5,q)
);
},
{
closed = 1;
nodes = (
(-3,398,o),
(12.5,415,q),
(28,432,o),
(51,432,q),
(74,432,o),
(89.5,415,q),
(105,398,o),
(105,373,q),
(105,348,o),
(89.5,331,q),
(74,314,o),
(51,314,q),
(28,314,o),
(12.5,331,q),
(-3,348,o),
(-3,373,q)
);
},
{
closed = 1;
nodes = (
(137,398,o),
(152.5,415,q),
(168,432,o),
(191,432,q),
(214,432,o),
(229.5,415,q),
(245,398,o),
(245,373,q),
(245,348,o),
(229.5,331,q),
(214,314,o),
(191,314,q),
(168,314,o),
(152.5,331,q),
(137,348,o),
(137,373,q)
);
},
{
closed = 1;
nodes = (
(196,50,o),
(214.5,62.5,q),
(233,75,o),
(249.5,95,q),
(266,115,o),
(275.5,115,q),
(285,115,o),
(285,106,q),
(285,100,o),
(281,92,q),
(248,39,o),
(199,-1.5,q),
(150,-42,o),
(95,-42,q),
(40,-42,o),
(15.5,-15.5,q),
(-9,11,o),
(-9,55,q),
(-9,131,o),
(48,210.5,q),
(105,290,o),
(166,290,q),
(198,290,o),
(198,264,q),
(198,229,o),
(176,191.5,q),
(154,154,o),
(95,90,q),
(122,50,o),
(168,50,q)
);
}
);
width = 241;
}
);
unicode = 235;
},
{
category = Letter;
glyphname = igrave;
layers = (
{
layerId = "746fec36-5ae7-46fb-b5cd-17efca425fb8";
name = Fore;
shapes = (
{
closed = 1;
nodes = (
(-47,376,o),
(-37.5,388,q),
(-28,400,o),
(-8,400,q),
(12,400,o),
(23,390.5,q),
(34,381,o),
(38.5,368.5,q),
(43,356,o),
(62,340,q),
(81,324,o),
(111.5,314.5,q),
(142,305,o),
(142,290,q),
(142,278,o),
(127.5,278,q),
(113,278,o),
(93.5,280,q),
(74,282,o),
(37.5,288.5,q),
(1,295,o),
(-23,314.5,q),
(-47,334,o),
(-47,363,q)
);
},
{
closed = 1;
nodes = (
(196,63,o),
(158.5,63,q),
(121,63,o),
(98,88,q),
(60,129,o),
(60,198,q),
(60,217,o),
(52,218,q),
(35,218,o),
(18,171,q),
(1,124,o),
(1,73.5,q),
(1,23,o),
(26,-9,q),
(51,-41,o),
(96,-41,q),
(141,-41,o),
(203,8.5,q),
(265,58,o),
(265,83,q),
(265,101,o),
(251,101,q),
(243,101,o),
(233,93,q)
);
}
);
width = 234;
}
);
unicode = 236;
},
{
category = Letter;
glyphname = iacute;
layers = (
{
layerId = "746fec36-5ae7-46fb-b5cd-17efca425fb8";
name = Fore;
shapes = (
{
closed = 1;
nodes = (
(180,341,o),
(153,320.5,q),
(126,300,o),
(88,292,q),
(23,277,o),
(-10,277,q),
(-25,277,o),
(-25,289,q),
(-25,303,o),
(1,312,q),
(43,326,o),
(66,344.5,q),
(89,363,o),
(94,376,q),
(104,407,o),
(143,407,q),
(161,407,o),
(170.5,395,q),
(180,383,o),
(180,370,q)
);
},
{
closed = 1;
nodes = (
(243,101,o),
(251,101,q),
(265,101,o),
(265,83,q),
(265,58,o),
(203,8.5,q),
(141,-41,o),
(96,-41,q),
(51,-41,o),
(26,-9,q),
(1,23,o),
(1,73.5,q),
(1,124,o),
(18,171,q),
(35,218,o),
(52,218,q),
(60,217,o),
(60,193.5,q),
(60,170,o),
(67,142,q),
(74,114,o),
(97.5,88.5,q),
(121,63,o),
(158.5,63,q),
(196,63,o),
(233,93,q)
);
}
);
width = 234;
}
);
unicode = 237;
},
{
category = Letter;
glyphname = icircumflex;
layers = (
{
layerId = "746fec36-5ae7-46fb-b5cd-17efca425fb8";
name = Fore;
shapes = (
{
closed = 1;
nodes = (
(10,272,o),
(-35.5,272,q),
(-81,272,o),
(-81,290,q),
(-81,301,o),
(-54.5,310.5,q),
(-28,320,o),
(-12,334.5,q),
(4,349,o),
(10,361.5,q),
(16,374,o),
(26,383,q),
(36,392,o),
(51,392,q),
(66,392,o),
(76,383,q),
(86,374,o),
(92,361.5,q),
(98,349,o),
(114,334.5,q),
(130,320,o),
(156.5,310.5,q),
(183,301,o),
(183,290,q),
(183,272,o),
(137.5,272,q),
(92,272,o),
(51,308,q)
);
},
{
closed = 1;
nodes = (
(196,63,o),
(158.5,63,q),
(121,63,o),
(98,88,q),
(60,129,o),
(60,198,q),
(60,217,o),
(52,218,q),
(35,218,o),
(18,171,q),
(1,124,o),
(1,73.5,q),
(1,23,o),
(26,-9,q),
(51,-41,o),
(96,-41,q),
(141,-41,o),
(203,8.5,q),
(265,58,o),
(265,83,q),
(265,101,o),
(251,101,q),
(243,101,o),
(233,93,q)
);
}
);
width = 234;
}
);
unicode = 238;
},
{
category = Letter;
glyphname = idieresis;
layers = (
{
layerId = "746fec36-5ae7-46fb-b5cd-17efca425fb8";
name = Fore;
shapes = (
{
closed = 1;
nodes = (
(68,378,o),
(83.5,395,q),
(99,412,o),
(122,412,q),
(145,412,o),
(160.5,395,q),
(176,378,o),
(176,353,q),
(176,328,o),
(160.5,311,q),
(145,294,o),
(122,294,q),
(99,294,o),
(83.5,311,q),
(68,328,o),
(68,353,q)
);
},
{
closed = 1;
nodes = (
(-72,378,o),
(-56.5,395,q),
(-41,412,o),
(-18,412,q),
(5,412,o),
(20.5,395,q),
(36,378,o),
(36,353,q),
(36,328,o),
(20.5,311,q),
(5,294,o),
(-18,294,q),
(-41,294,o),
(-56.5,311,q),
(-72,328,o),
(-72,353,q)
);
},
{
closed = 1;
nodes = (
(243,101,o),
(251,101,q),
(265,101,o),
(265,83,q),
(265,58,o),
(203,8.5,q),
(141,-41,o),
(96,-41,q),
(51,-41,o),
(26,-9,q),
(1,23,o),
(1,73.5,q),
(1,124,o),
(18,171,q),
(35,218,o),
(52,218,q),
(60,217,o),
(60,193.5,q),
(60,170,o),
(67,142,q),
(74,114,o),
(97.5,88.5,q),
(121,63,o),
(158.5,63,q),
(196,63,o),
(233,93,q)
);
}
);
width = 234;
}
);
unicode = 239;
},
{
category = Letter;
glyphname = eth;
layers = (
{
layerId = "746fec36-5ae7-46fb-b5cd-17efca425fb8";
name = Fore;
shapes = (
{
closed = 1;
nodes = (
(148,360,o),
(184,373.5,q),
(220,387,o),
(230,389,q),
(223,455,o),
(207,497.5,q),
(191,540,o),
(169,540,q),
(156,539,o),
(156,526.5,q),
(156,514,o),
(164.5,494,q),
(173,474,o),
(173,473,q),
(173,465,o),
(166,465,q),
(139,465,o),
(117,489.5,q),
(95,514,o),
(95,540,q),
(95,581,o),
(150,581,q),
(192,581,o),
(220.5,530,q),
(249,479,o),
(259,398,q),
(307,410,o),
(326,410,q),
(333,410,o),
(333,402,q),
(333,394,o),
(329.5,382,q),
(326,370,o),
(321,369,q),
(300,367,o),
(263,357,q),
(264,344,o),
(264,318,q),
(264,121,o),
(180,20,q),
(135,-35,o),
(72,-35,q),
(34,-35,o),
(17,-7.5,q),
(0,20,o),
(0,61,q),
(0,116,o),
(60.5,174,q),
(121,232,o),
(156,232,q),
(165,232,o),
(168,221,q),
(168,213,o),
(142,196,q),
(103,172,o),
(103,134,q),
(103,92,o),
(126,80,q),
(143,70,o),
(155,70,q),
(194,70,o),
(214.5,136,q),
(235,202,o),
(235,297,q),
(235,314,o),
(233,348,q),
(155,323,o),
(128,299,q),
(127,298,o),
(124,298,q),
(121,298,o),
(121,305,q),
(121,312,o),
(125.5,327.5,q),
(130,343,o),
(132,345,q)
);
}
);
width = 302;
}
);
unicode = 240;
},
{
category = Letter;
glyphname = ntilde;
layers = (
{
layerId = "746fec36-5ae7-46fb-b5cd-17efca425fb8";
name = Fore;
shapes = (
{
closed = 1;
nodes = (
(142,338,o),
(169,338,q),
(196,338,o),
(226,324.5,q),
(256,311,o),
(273,311,q),
(290,311,o),
(299,313,q),
(309,313,o),
(310,305,q),
(310,289,o),
(279,271,q),
(248,253,o),
(221,253,q),
(194,253,o),
(165,266,q),
(136,279,o),
(118.5,279,q),
(101,279,o),
(92,277,q),
(82,277,o),
(81,285,q),
(81,301,o),
(111.5,319.5,q)
);
},
{
closed = 1;
nodes = (
(10,102,o),
(41,138.5,q),
(72,175,o),
(91.5,175,q),
(111,175,o),
(120.5,160,q),
(130,145,o),
(132,127,q),
(134,109,o),
(143.5,94,q),
(153,79,o),
(171.5,79,q),
(190,79,o),
(204.5,95.5,q),
(219,112,o),
(228,132.5,q),
(237,153,o),
(252,169.5,q),
(267,186,o),
(281.5,186,q),
(296,186,o),
(302,174,q),
(364,41,o),
(428,41,q),
(438,41,o),
(446,44,q),
(454,47,o),
(458,47,q),
(470,47,o),
(470,28,q),
(470,-6,o),
(434.5,-33,q),
(399,-60,o),
(362,-60,q),
(325,-60,o),
(299.5,-36,q),
(274,-12,o),
(264.5,13.5,q),
(255,39,o),
(250.5,63,q),
(246,87,o),
(241,87,q),
(233,87,o),
(209.5,55.5,q),
(186,24,o),
(156.5,-8,q),
(127,-40,o),
(104,-40,q),
(80,-37,o),
(66,-16.5,q),
(52,4,o),
(48,26,q),
(39,86,o),
(10,86,q)
);
}
);
width = 444;
}
);
unicode = 241;
},
{
category = Letter;
glyphname = ograve;
layers = (
{
layerId = "746fec36-5ae7-46fb-b5cd-17efca425fb8";
name = Fore;
shapes = (
{
closed = 1;
nodes = (
(223,92,o),
(208.5,78,q),
(194,64,o),
(166.5,64,q),
(139,64,o),
(120.5,88.5,q),
(102,113,o),
(102,145.5,q),
(102,178,o),
(118,190,q),
(122,153,o),
(149,129,q),
(176,105,o),
(223,105,q)
);
},
{
closed = 1;
nodes = (
(274,163,o),
(269.5,163,q),
(265,163,o),
(262,172,q),
(237,252,o),
(169,252,q),
(147,252,o),
(132,238.5,q),
(117,225,o),
(117,203,q),
(117,199,l),
(77,199,o),
(39,145.5,q),
(1,92,o),
(1,46.5,q),
(1,1,o),
(25,-22.5,q),
(49,-46,o),
(85,-46,q),
(136,-46,o),
(184.5,2.5,q),
(233,51,o),
(254,108,q),
(269,108,o),
(290.5,131,q),
(312,154,o),
(312,164,q),
(312,174,o),
(304,174,q),
(296,174,o),
(285,168.5,q)
);
},
{
closed = 1;
nodes = (
(46,386,o),
(55.5,398,q),
(65,410,o),
(85,410,q),
(105,410,o),
(116,400.5,q),
(127,391,o),
(131.5,378.5,q),
(136,366,o),
(155,350,q),
(174,334,o),
(204.5,324.5,q),
(235,315,o),
(235,300,q),
(235,288,o),
(220.5,288,q),
(206,288,o),
(186.5,290,q),
(167,292,o),
(130.5,298.5,q),
(94,305,o),
(70,324.5,q),
(46,344,o),
(46,373,q)
);
}
);
width = 280;
}
);
unicode = 242;
},
{
category = Letter;
glyphname = oacute;
layers = (
{
layerId = "746fec36-5ae7-46fb-b5cd-17efca425fb8";
name = Fore;
shapes = (
{
closed = 1;
nodes = (
(176,105,o),
(149,129,q),
(122,153,o),
(118,190,q),
(102,178,o),
(102,145.5,q),
(102,113,o),
(120.5,88.5,q),
(139,64,o),
(166.5,64,q),
(194,64,o),
(208.5,78,q),
(223,92,o),
(223,105,q)
);
},
{
closed = 1;
nodes = (
(265,163,o),
(269.5,163,q),
(274,163,o),
(285,168.5,q),
(296,174,o),
(304,174,q),
(312,174,o),
(312,164,q),
(312,154,o),
(290.5,131,q),
(269,108,o),
(254,108,q),
(233,51,o),
(184.5,2.5,q),
(136,-46,o),
(85,-46,q),
(49,-46,o),
(25,-22.5,q),
(1,1,o),
(1,46.5,q),
(1,92,o),
(39,145.5,q),
(77,199,o),
(117,199,q),
(117,203,l),
(117,225,o),
(132,238.5,q),
(147,252,o),
(169,252,q),
(237,252,o),
(262,172,q)
);
},
{
closed = 1;
nodes = (
(254,344,o),
(227,323.5,q),
(200,303,o),
(162,294,q),
(97,280,o),
(64,280,q),
(49,280,o),
(49,292,q),
(49,306,o),
(75,315,q),
(117,329,o),
(140,347.5,q),
(163,366,o),
(168,379,q),
(178,410,o),
(217,410,q),
(235,410,o),
(244.5,398,q),
(254,386,o),
(254,373,q)
);
}
);
width = 280;
}
);
unicode = 243;
},
{
category = Letter;
glyphname = ocircumflex;
layers = (
{
layerId = "746fec36-5ae7-46fb-b5cd-17efca425fb8";
name = Fore;
shapes = (
{
closed = 1;
nodes = (
(223,92,o),
(208.5,78,q),
(194,64,o),
(166.5,64,q),
(139,64,o),
(120.5,88.5,q),
(102,113,o),
(102,145.5,q),
(102,178,o),
(118,190,q),
(122,153,o),
(149,129,q),
(176,105,o),
(223,105,q)
);
},
{
closed = 1;
nodes = (
(274,163,o),
(269.5,163,q),
(265,163,o),
(262,172,q),
(237,252,o),
(169,252,q),
(147,252,o),
(132,238.5,q),
(117,225,o),
(117,203,q),
(117,199,l),
(77,199,o),
(39,145.5,q),
(1,92,o),
(1,46.5,q),
(1,1,o),
(25,-22.5,q),
(49,-46,o),
(85,-46,q),
(136,-46,o),
(184.5,2.5,q),
(233,51,o),
(254,108,q),
(269,108,o),
(290.5,131,q),
(312,154,o),
(312,164,q),
(312,174,o),
(304,174,q),
(296,174,o),
(285,168.5,q)
);
},
{
closed = 1;
nodes = (
(117,290,o),
(71.5,290,q),
(26,290,o),
(26,308,q),
(26,319,o),
(52.5,328.5,q),
(79,338,o),
(95,352.5,q),
(111,367,o),
(117,379.5,q),
(123,392,o),
(133,401,q),
(143,410,o),
(158,410,q),
(173,410,o),
(183,401,q),
(193,392,o),
(199,379.5,q),
(205,367,o),
(221,352.5,q),
(237,338,o),
(263.5,328.5,q),
(290,319,o),
(290,308,q),
(290,290,o),
(244.5,290,q),
(199,290,o),
(158,326,q)
);
}
);
width = 280;
}
);
unicode = 244;
},
